<svg width="64" height="64" viewBox="0 0 64 64" fill="none" xmlns="http://www.w3.org/2000/svg">
<path opacity="0.12" d="M8 20.8C8 16.3196 8 14.0794 8.87195 12.3681C9.63893 10.8628 10.8628 9.63893 12.3681 8.87195C14.0794 8 16.3196 8 20.8 8H43.2C47.6804 8 49.9206 8 51.6319 8.87195C53.1372 9.63893 54.3611 10.8628 55.1281 12.3681C56 14.0794 56 16.3196 56 20.8V43.2C56 47.6804 56 49.9206 55.1281 51.6319C54.3611 53.1372 53.1372 54.3611 51.6319 55.1281C49.9206 56 47.6804 56 43.2 56H20.8C16.3196 56 14.0794 56 12.3681 55.1281C10.8628 54.3611 9.63893 53.1372 8.87195 51.6319C8 49.9206 8 47.6804 8 43.2V20.8Z" fill="#EC3B3B"/>
<path d="M45.3333 24L30.8418 38.4915C30.3138 39.0195 30.0498 39.2835 29.7454 39.3825C29.4776 39.4695 29.1891 39.4695 28.9213 39.3825C28.6169 39.2835 28.3529 39.0195 27.8248 38.4915L22.8418 33.5085C22.3138 32.9805 22.0498 32.7165 21.7454 32.6175C21.4776 32.5305 21.1891 32.5305 20.9213 32.6175C20.6169 32.7165 20.3529 32.9805 19.8248 33.5085L8 45.3333M45.3333 24H34.6667M45.3333 24V34.6667M20.8 56H43.2C47.6804 56 49.9206 56 51.6319 55.1281C53.1372 54.3611 54.3611 53.1372 55.1281 51.6319C56 49.9206 56 47.6804 56 43.2V20.8C56 16.3196 56 14.0794 55.1281 12.3681C54.3611 10.8628 53.1372 9.63893 51.6319 8.87195C49.9206 8 47.6804 8 43.2 8H20.8C16.3196 8 14.0794 8 12.3681 8.87195C10.8628 9.63893 9.63893 10.8628 8.87195 12.3681C8 14.0794 8 16.3196 8 20.8V43.2C8 47.6804 8 49.9206 8.87195 51.6319C9.63893 53.1372 10.8628 54.3611 12.3681 55.1281C14.0794 56 16.3196 56 20.8 56Z" stroke="#EC3B3B" stroke-width="4" stroke-linecap="round" stroke-linejoin="round"/>
</svg>
