<svg width="64" height="64" viewBox="0 0 64 64" fill="none" xmlns="http://www.w3.org/2000/svg">
<g opacity="0.12">
<path d="M49.8242 51.8358C45.1009 56.0826 38.8527 58.6667 32.0009 58.6667C25.1492 58.6667 18.901 56.0826 14.1777 51.8358C15.7999 48.014 19.5874 45.3334 24.0009 45.3334H40.0009C44.4145 45.3334 48.202 48.014 49.8242 51.8358Z" fill="#EC3B3B"/>
<path d="M32.0007 36.0001C37.8917 36.0001 42.6673 31.2245 42.6673 25.3334C42.6673 19.4424 37.8917 14.6667 32.0007 14.6667C26.1096 14.6667 21.334 19.4424 21.334 25.3334C21.334 31.2245 26.1096 36.0001 32.0007 36.0001Z" fill="#EC3B3B"/>
</g>
<path d="M14.1774 51.8357C15.7996 48.0138 19.5871 45.3332 24.0006 45.3332H40.0006C44.4142 45.3332 48.2016 48.0138 49.8238 51.8357M42.6673 25.3333C42.6673 31.2243 37.8917 35.9999 32.0006 35.9999C26.1096 35.9999 21.334 31.2243 21.334 25.3333C21.334 19.4422 26.1096 14.6666 32.0006 14.6666C37.8917 14.6666 42.6673 19.4422 42.6673 25.3333ZM58.6673 31.9999C58.6673 46.7275 46.7282 58.6666 32.0006 58.6666C17.2731 58.6666 5.33398 46.7275 5.33398 31.9999C5.33398 17.2723 17.2731 5.33325 32.0006 5.33325C46.7282 5.33325 58.6673 17.2723 58.6673 31.9999Z" stroke="#EC3B3B" stroke-width="4" stroke-linecap="round" stroke-linejoin="round"/>
</svg>
