<svg width="64" height="64" viewBox="0 0 64 64" fill="none" xmlns="http://www.w3.org/2000/svg">
<path opacity="0.12" d="M36.0793 22.2715C34.5528 23.3598 32.6848 23.9999 30.6673 23.9999C25.5127 23.9999 21.334 19.8212 21.334 14.6666C21.334 9.51193 25.5127 5.33325 30.6673 5.33325C34.0086 5.33325 36.9398 7.08903 38.5887 9.7283C40.1151 8.64005 41.9831 7.99992 44.0007 7.99992C49.1553 7.99992 53.334 12.1786 53.334 17.3333C53.334 22.4879 49.1553 26.6666 44.0007 26.6666C40.6594 26.6666 37.7281 24.9108 36.0793 22.2715Z" fill="#EC3B3B"/>
<path d="M36.0793 22.2715C34.5528 23.3598 32.6848 23.9999 30.6673 23.9999C25.5127 23.9999 21.334 19.8212 21.334 14.6666C21.334 9.51193 25.5127 5.33325 30.6673 5.33325C34.0086 5.33325 36.9398 7.08903 38.5887 9.7283M16.0007 53.5657H22.9614C23.869 53.5657 24.771 53.6737 25.6508 53.8896L33.0057 55.6769C34.6016 56.0657 36.2641 56.1035 37.8766 55.7903L46.0086 54.2082C48.1568 53.7897 50.1329 52.7611 51.6816 51.2546L57.435 45.6578C59.0781 44.0622 59.0781 41.4731 57.435 39.8748C55.9557 38.4357 53.6133 38.2738 51.9397 39.4941L45.2342 44.3862C44.2739 45.0882 43.1055 45.4661 41.9037 45.4661H35.4286L39.5502 45.466C41.8732 45.466 43.7549 43.6355 43.7549 41.3757V40.5576C43.7549 38.6812 42.4422 37.0451 40.5715 36.5916L34.2102 35.0446C33.175 34.7935 32.1148 34.6666 31.049 34.6666C28.4762 34.6666 23.819 36.7968 23.819 36.7968L16.0007 40.0663M53.334 17.3333C53.334 22.4879 49.1553 26.6666 44.0006 26.6666C38.846 26.6666 34.6673 22.4879 34.6673 17.3333C34.6673 12.1786 38.846 7.99992 44.0006 7.99992C49.1553 7.99992 53.334 12.1786 53.334 17.3333ZM5.33398 38.9333L5.33398 54.3999C5.33398 55.8934 5.33398 56.6401 5.62463 57.2106C5.8803 57.7123 6.28824 58.1203 6.79001 58.3759C7.36044 58.6666 8.10718 58.6666 9.60065 58.6666H11.734C13.2275 58.6666 13.9742 58.6666 14.5446 58.3759C15.0464 58.1203 15.4543 57.7123 15.71 57.2106C16.0007 56.6401 16.0007 55.8934 16.0007 54.3999V38.9333C16.0007 37.4398 16.0007 36.693 15.71 36.1226C15.4543 35.6208 15.0464 35.2129 14.5446 34.9572C13.9742 34.6666 13.2275 34.6666 11.734 34.6666L9.60065 34.6666C8.10718 34.6666 7.36044 34.6666 6.79001 34.9572C6.28824 35.2129 5.8803 35.6208 5.62463 36.1226C5.33398 36.693 5.33398 37.4398 5.33398 38.9333Z" stroke="#EC3B3B" stroke-width="4" stroke-linecap="round" stroke-linejoin="round"/>
</svg>
