<svg width="64" height="64" viewBox="0 0 64 64" fill="none" xmlns="http://www.w3.org/2000/svg">
<path opacity="0.12" d="M8 20.8C8 16.3196 8 14.0794 8.87195 12.3681C9.63893 10.8628 10.8628 9.63893 12.3681 8.87195C14.0794 8 16.3196 8 20.8 8H29.3333L56 34.6667V43.2C56 47.6804 56 49.9206 55.1281 51.6319C54.3611 53.1372 53.1372 54.3611 51.6319 55.1281C49.9206 56 47.6804 56 43.2 56H20.8C16.3196 56 14.0794 56 12.3681 55.1281C10.8628 54.3611 9.63893 53.1372 8.87195 51.6319C8 49.9206 8 47.6804 8 43.2V20.8Z" fill="#EC3B3B"/>
<path d="M29.3333 7.99992H20.8C16.3196 7.99992 14.0794 7.99992 12.3681 8.87187C10.8628 9.63885 9.63893 10.8627 8.87195 12.368C8 14.0793 8 16.3195 8 20.7999V43.1999C8 47.6803 8 49.9206 8.87195 51.6318C9.63893 53.1371 10.8628 54.361 12.3681 55.128C14.0794 55.9999 16.3196 55.9999 20.8 55.9999H43.2C47.6804 55.9999 49.9206 55.9999 51.6319 55.128C53.1372 54.361 54.3611 53.1371 55.1281 51.6318C56 49.9206 56 47.6803 56 43.1999V34.6666M32 21.3333H42.6667V31.9999M41.3333 9.33325V5.33325M51.8382 12.1617L54.6667 9.33325M54.694 22.6666H58.694M8 35.5922C9.73851 35.8606 11.5197 35.9999 13.3333 35.9999C25.0303 35.9999 35.3742 30.2068 41.6525 21.3333" stroke="#EC3B3B" stroke-width="4" stroke-linecap="round" stroke-linejoin="round"/>
</svg>
