<svg width="64" height="64" viewBox="0 0 64 64" fill="none" xmlns="http://www.w3.org/2000/svg">
<path opacity="0.12" d="M58.6673 24V20.8C58.6673 16.3196 58.6673 14.0794 57.7954 12.3681C57.0284 10.8628 55.8045 9.63894 54.2992 8.87195C52.5879 8 50.3477 8 45.8673 8L18.134 8C13.6536 8 11.4134 8 9.70206 8.87195C8.19676 9.63893 6.97292 10.8628 6.20593 12.3681C5.33398 14.0794 5.33398 16.3196 5.33398 20.8L5.33398 24L58.6673 24Z" fill="black"/>
<path d="M58.6673 24H5.33398M37.334 46.6667L44.0006 40L37.334 33.3333M26.6673 33.3333L20.0007 40L26.6673 46.6667M5.33398 20.8L5.33398 43.2C5.33398 47.6804 5.33398 49.9206 6.20593 51.6319C6.97292 53.1372 8.19676 54.3611 9.70206 55.128C11.4134 56 13.6536 56 18.134 56H45.8673C50.3477 56 52.5879 56 54.2992 55.1281C55.8045 54.3611 57.0284 53.1372 57.7954 51.6319C58.6673 49.9206 58.6673 47.6804 58.6673 43.2V20.8C58.6673 16.3196 58.6673 14.0794 57.7954 12.3681C57.0284 10.8628 55.8045 9.63894 54.2992 8.87195C52.5879 8 50.3477 8 45.8673 8L18.134 8C13.6536 8 11.4134 8 9.70206 8.87195C8.19676 9.63893 6.97292 10.8628 6.20593 12.3681C5.33399 14.0794 5.33399 16.3196 5.33398 20.8Z" stroke="#EC3B3B" stroke-width="4" stroke-linecap="round" stroke-linejoin="round"/>
</svg>
