<svg width="65" height="64" viewBox="0 0 65 64" fill="none" xmlns="http://www.w3.org/2000/svg">
<path opacity="0.12" d="M33.4542 9.81037C33.1044 9.63546 32.9295 9.54801 32.746 9.51359C32.5835 9.4831 32.4168 9.4831 32.2543 9.51359C32.0708 9.54801 31.8959 9.63546 31.5461 9.81037L5.8335 22.6667L31.5461 35.523C31.8959 35.6979 32.0708 35.7853 32.2543 35.8198C32.4168 35.8503 32.5835 35.8503 32.746 35.8198C32.9295 35.7853 33.1044 35.6979 33.4542 35.523L59.1668 22.6667L33.4542 9.81037Z" fill="#EC3B3B"/>
<path d="M45.8335 38.6667V30.6518C45.8335 30.1732 45.8335 29.9339 45.7606 29.7226C45.6962 29.5358 45.591 29.3656 45.4527 29.2244C45.2963 29.0648 45.0823 28.9577 44.6542 28.7437L32.5002 22.6667M11.1668 25.3333V43.4843C11.1668 44.4761 11.1668 44.972 11.3215 45.4061C11.4583 45.79 11.6812 46.1374 11.9732 46.4216C12.3034 46.7432 12.7542 46.9498 13.6558 47.363L30.7224 55.1852C31.3764 55.485 31.7034 55.6348 32.044 55.694C32.3459 55.7464 32.6545 55.7464 32.9563 55.694C33.297 55.6348 33.6239 55.485 34.2779 55.1852L51.3446 47.363C52.2461 46.9498 52.6969 46.7432 53.0272 46.4216C53.3191 46.1374 53.542 45.79 53.6788 45.4061C53.8335 44.972 53.8335 44.4761 53.8335 43.4843V25.3333M5.8335 22.6667L31.5461 9.81037C31.8959 9.63546 32.0708 9.54801 32.2543 9.51359C32.4168 9.4831 32.5835 9.4831 32.746 9.51359C32.9295 9.54801 33.1044 9.63546 33.4542 9.81037L59.1668 22.6667L33.4542 35.523C33.1044 35.6979 32.9295 35.7853 32.746 35.8198C32.5835 35.8503 32.4168 35.8503 32.2543 35.8198C32.0708 35.7853 31.8959 35.6979 31.5461 35.523L5.8335 22.6667Z" stroke="#EC3B3B" stroke-width="4" stroke-linecap="round" stroke-linejoin="round"/>
</svg>
