<svg xmlns="http://www.w3.org/2000/svg" width="909.84" height="147.72" viewBox="0 0 909.84 147.72"><path d="M426.56,337.47h-.63a4.26,4.26,0,0,0-1.12.15L324.58,365.16a4.23,4.23,0,0,0-3.1,4.07h0a4.23,4.23,0,0,0,3.1,4.07l61.8,17h0l38.42,10.55a4.26,4.26,0,0,0,1.12.15h.63a4.13,4.13,0,0,0,1.11-.15l38.43-10.55h0l61.8-17a4.23,4.23,0,0,0,3.1-4.07h0a4.23,4.23,0,0,0-3.1-4.07L427.67,337.62A4.13,4.13,0,0,0,426.56,337.47Z" transform="translate(-321.48 -337.47)" fill="#123461"/><path d="M427.63,409h-2.78a4.18,4.18,0,0,1-1.11-.15l-51.27-14.09a4.26,4.26,0,0,0-2.24,0l-45.65,12.54a4.23,4.23,0,0,0-3.1,4.07h0a4.21,4.21,0,0,0,3.1,4.06l61.84,17,38.39,10.55a4.26,4.26,0,0,0,1.12.15h.63a4.13,4.13,0,0,0,1.11-.15l38.4-10.55,61.84-17a4.21,4.21,0,0,0,3.1-4.06h0a4.23,4.23,0,0,0-3.1-4.07l-45.66-12.54a4.22,4.22,0,0,0-2.23,0l-51.27,14.09A4.2,4.2,0,0,1,427.63,409Z" transform="translate(-321.48 -337.47)" fill="#123461"/><path d="M427.63,451.06h-2.78a4.18,4.18,0,0,1-1.11-.15l-51.25-14.08a4.26,4.26,0,0,0-2.24,0l-45.67,12.55a4.21,4.21,0,0,0-3.1,4.06h0a4.23,4.23,0,0,0,3.1,4.07l100.23,27.54a4.26,4.26,0,0,0,1.12.15h.63a4.13,4.13,0,0,0,1.11-.15l100.24-27.54a4.23,4.23,0,0,0,3.1-4.07h0a4.21,4.21,0,0,0-3.1-4.06l-45.67-12.55a4.26,4.26,0,0,0-2.24,0l-51.25,14.08A4.2,4.2,0,0,1,427.63,451.06Z" transform="translate(-321.48 -337.47)" fill="#123461"/><polygon points="263.84 130.3 263.85 21.22 290.17 21.22 290.17 64.34 337.78 64.34 337.78 21.23 364.1 21.23 364.09 130.31 337.77 130.31 337.78 85.64 290.16 85.63 290.16 130.3 263.84 130.3" fill="#123461"/><path d="M771.8,440.61c-4,17.48-17.67,29.26-37.75,29.26-24.41,0-41.72-14.9-41.72-39.31,0-24.24,17.66-41.73,41.21-41.72,25.45,0,38.78,17.49,38.78,38.44v7.61H716.91c.69,10.21,8.31,16.1,18,16.1,8.65,0,14-3.29,16.79-10.38Zm-23.55-19.05c-.52-7.62-5.36-14.54-14.89-14.54-10,0-14.71,6.4-16.1,14.54Z" transform="translate(-321.48 -337.47)" fill="#123461"/><path d="M896.78,467.8V380.37H858.86V358.72h102.5v21.64H922.93v87.44Z" transform="translate(-321.48 -337.47)" fill="#123461"/><path d="M1003.46,415.36c-4-2.26-7.79-3.12-13.16-3.12-10.39,0-17.32,5.88-17.32,19.21v36.36H948.05V390.94H973v14c2.94-8.65,10.91-16.1,21.29-16.1,4.68,0,8.66,1.39,10.74,3.12Z" transform="translate(-321.48 -337.47)" fill="#123461"/><path d="M1063.71,391h25.11v76.87h-25.1V455.88c-4.16,8.65-12.82,14-24.42,14-20.77,0-27.35-14.2-27.35-30.65V390.94h24.93v42.24c0,10.91,3.64,17,12.81,17,9.35,0,14-7.79,14-20.08Z" transform="translate(-321.48 -337.47)" fill="#123461"/><path d="M1117.73,442.2c1,7.45,6.93,11.6,16.28,11.6,6.75,0,11.25-2.42,11.25-6.57,0-3.81-2.42-5.89-8.66-6.93l-11.77-1.91c-17.66-2.77-27.18-8.83-27.18-24.07,0-14.89,13-25.45,33.59-25.44,21.82,0,34.8,9.7,36.36,26.14l-20.6.69c-1.22-6.75-6.58-10.56-16.11-10.56-6.23,0-10,2.6-10,6.75,0,3.12,2.43,5,6.23,5.54L1142,420c16.8,2.6,26.49,10,26.49,24.76,0,16.1-13.68,25.11-34.63,25.11-20.78,0-36.53-8.49-37.91-27.19Z" transform="translate(-321.48 -337.47)" fill="#123461"/><polygon points="504.05 86.76 529.63 53.45 503.66 53.45 491.48 70.06 504.05 86.76" fill="#123461"/><polygon points="515.54 108.37 515.54 108.38 501.57 89.98 488.94 73.53 474.57 53.45 446.69 53.44 474.74 91.02 444.26 130.32 470.23 130.32 487.38 107.47 504.34 130.32 532.22 130.32 515.54 108.37" fill="#123461"/><path d="M1218.85,449.83c-5.89,0-9-2.77-9-9.35v-32h0V391h0v-21.3h-15.41l-2.6,10.22c-1.9,7.1-4.15,11.08-11.77,12.46l-5.54.87v15.23h10.73v38.79c0,17.31,11.25,22.68,23.72,22.68,10,0,16.62-2.42,22.33-6.75V446.71C1226.64,448.79,1222.66,449.83,1218.85,449.83Z" transform="translate(-321.48 -337.47)" fill="#123461"/><rect x="892.71" y="53.49" width="16.09" height="17.49" fill="#123461"/></svg>