<svg width="837" height="401" viewBox="0 0 837 401" fill="none" xmlns="http://www.w3.org/2000/svg">
<rect x="0.246094" y="0.190536" width="835.81" height="400.275" rx="10.4476" fill="#050E27"/>
<rect x="0.409338" y="0.353781" width="835.484" height="399.948" rx="10.2844" stroke="#DAE6EA" stroke-opacity="0.2" stroke-width="0.326488"/>
<path d="M18.3751 28.8621L16.9386 28.8621L16.9386 19.4854L18.3751 19.4854L18.3751 23.4032L23.1288 23.4032L23.1288 19.4854L24.5653 19.4854L24.5653 28.8621L23.1288 28.8621L23.1288 24.657L18.3751 24.657L18.3751 28.8621ZM27.8202 28.8621L26.5012 28.8621L26.5012 21.9406L27.8202 21.9406L27.8202 28.8621ZM28.1075 20.3342C28.1075 20.578 28.0161 20.787 27.8333 20.9611C27.6592 21.1265 27.4328 21.2092 27.1542 21.2092C26.8669 21.2092 26.6318 21.1265 26.449 20.9611C26.2748 20.787 26.1878 20.578 26.1878 20.3342C26.1878 20.0731 26.2748 19.8641 26.449 19.7074C26.6318 19.542 26.8669 19.4593 27.1542 19.4593C27.4328 19.4593 27.6592 19.542 27.8333 19.7074C28.0161 19.8641 28.1075 20.0731 28.1075 20.3342ZM35.1363 26.7987C35.1363 27.4778 34.8838 28.0133 34.3789 28.405C33.8739 28.7968 33.16 28.9927 32.2371 28.9927C31.3316 28.9927 30.6134 28.7794 30.0823 28.3528C29.5599 27.9262 29.2639 27.3429 29.1942 26.6028H30.461C30.4784 27.0381 30.6482 27.382 30.9703 27.6345C31.3012 27.8783 31.7321 28.0002 32.2632 28.0002C32.7247 28.0002 33.0947 27.9175 33.3733 27.7521C33.6606 27.5866 33.8042 27.3429 33.8042 27.0207C33.8042 26.7334 33.7085 26.5158 33.5169 26.3678C33.3341 26.2197 33.025 26.1066 32.5897 26.0282L31.4666 25.8192C30.831 25.6974 30.3391 25.4753 29.9909 25.1532C29.6426 24.8224 29.4685 24.3958 29.4685 23.8734C29.4685 23.4642 29.5773 23.1072 29.795 22.8025C30.0213 22.4891 30.3348 22.2453 30.7353 22.0712C31.1357 21.897 31.6015 21.81 32.1326 21.81C32.6898 21.81 33.1774 21.9057 33.5953 22.0973C34.0132 22.2801 34.3484 22.5457 34.6009 22.8939C34.8534 23.2335 34.997 23.6427 35.0318 24.1215L33.7651 24.1215C33.7215 23.7123 33.5561 23.3902 33.2688 23.1551C32.9815 22.92 32.6071 22.8025 32.1457 22.8025C31.7278 22.8025 31.3882 22.8896 31.127 23.0637C30.8746 23.2291 30.7483 23.4598 30.7483 23.7558C30.7483 24.0344 30.8397 24.2478 31.0226 24.3958C31.2141 24.5351 31.5188 24.6482 31.9367 24.7353L33.1121 24.9573C33.7999 25.0792 34.3092 25.2925 34.6401 25.5972C34.9709 25.902 35.1363 26.3025 35.1363 26.7987ZM40.392 27.5823V28.7446C40.1917 28.8404 39.9958 28.9057 39.8043 28.9405C39.6214 28.9753 39.4256 28.9927 39.2166 28.9927C38.79 28.9927 38.4113 28.9144 38.0804 28.7576C37.7583 28.6009 37.5058 28.3572 37.323 28.0263C37.1401 27.6955 37.0487 27.2776 37.0487 26.7726L37.0487 23.0637L35.5208 23.0637L35.5208 21.9406L37.0487 21.9406L37.0487 19.8902L38.3677 19.8902L38.3677 21.9406L40.4573 21.9406L40.4573 23.0637L38.3677 23.0637L38.3677 26.4722C38.3677 26.9511 38.4722 27.2863 38.6812 27.4778C38.8988 27.6694 39.1818 27.7651 39.53 27.7651C39.6867 27.7651 39.8348 27.7521 39.9741 27.7259C40.1221 27.6911 40.2614 27.6432 40.392 27.5823ZM44.424 28.9927C43.9364 28.9927 43.4837 28.9057 43.0658 28.7315C42.6566 28.5487 42.2996 28.2962 41.9949 27.9741C41.6902 27.6432 41.4508 27.2602 41.2766 26.8248C41.1112 26.3895 41.0285 25.915 41.0285 25.4013C41.0285 24.8877 41.1112 24.4132 41.2766 23.9779C41.4508 23.5425 41.6902 23.1638 41.9949 22.8417C42.2996 22.5108 42.6566 22.2583 43.0658 22.0842C43.4837 21.9014 43.9364 21.81 44.424 21.81C44.9203 21.81 45.373 21.9014 45.7822 22.0842C46.2001 22.2583 46.557 22.5108 46.8531 22.8417C47.1578 23.1638 47.3929 23.5425 47.5583 23.9779C47.7324 24.4132 47.8195 24.8877 47.8195 25.4013C47.8195 25.915 47.7324 26.3895 47.5583 26.8248C47.3929 27.2602 47.1578 27.6432 46.8531 27.9741C46.557 28.2962 46.2001 28.5487 45.7822 28.7315C45.373 28.9057 44.9203 28.9927 44.424 28.9927ZM44.424 27.8304C44.8071 27.8304 45.151 27.7346 45.4557 27.5431C45.7691 27.3429 46.0129 27.0599 46.187 26.6942C46.3699 26.3286 46.4613 25.8976 46.4613 25.4013C46.4613 24.8964 46.3699 24.4654 46.187 24.1085C46.0129 23.7428 45.7691 23.4642 45.4557 23.2726C45.151 23.0811 44.8071 22.9853 44.424 22.9853C44.0496 22.9853 43.7057 23.0811 43.3923 23.2726C43.0876 23.4642 42.8438 23.7428 42.661 24.1085C42.4868 24.4654 42.3998 24.8964 42.3998 25.4013C42.3998 25.8976 42.4868 26.3286 42.661 26.6942C42.8438 27.0599 43.0876 27.3429 43.3923 27.5431C43.7057 27.7346 44.0496 27.8304 44.424 27.8304ZM50.4831 25.323L50.4831 28.8621L49.1641 28.8621L49.1641 21.9406L50.3917 21.9406L50.3917 23.4032C50.6355 22.9244 50.9968 22.5457 51.4756 22.2671C51.9632 21.9885 52.4899 21.8492 53.0558 21.8492L53.0558 23.2204C52.5596 23.1943 52.1155 23.2509 51.7238 23.3902C51.3407 23.5295 51.036 23.7602 50.8096 24.0823C50.5919 24.3958 50.4831 24.8093 50.4831 25.323ZM55.4187 28.8621L54.0997 28.8621L54.0997 21.9406L55.4187 21.9406L55.4187 28.8621ZM55.706 20.3342C55.706 20.578 55.6146 20.787 55.4318 20.9611C55.2576 21.1265 55.0313 21.2092 54.7527 21.2092C54.4653 21.2092 54.2303 21.1265 54.0474 20.9611C53.8733 20.787 53.7863 20.578 53.7863 20.3342C53.7863 20.0731 53.8733 19.8641 54.0474 19.7074C54.2303 19.542 54.4653 19.4593 54.7527 19.4593C55.0313 19.4593 55.2576 19.542 55.4318 19.7074C55.6146 19.8641 55.706 20.0731 55.706 20.3342ZM59.9792 29.0058C59.3437 29.0058 58.7821 28.8534 58.2945 28.5487C57.8157 28.244 57.437 27.8217 57.1584 27.2819C56.8885 26.7334 56.7535 26.1066 56.7535 25.4013C56.7535 24.7048 56.8928 24.0867 57.1714 23.5469C57.45 23.0071 57.8331 22.5848 58.3207 22.2801C58.8082 21.9667 59.3611 21.81 59.9792 21.81C60.5538 21.81 61.0632 21.9319 61.5072 22.1756C61.9599 22.4107 62.3299 22.7503 62.6173 23.1943C62.9133 23.6296 63.1005 24.1476 63.1788 24.7484L61.7945 24.7484C61.7248 24.1912 61.529 23.7558 61.2068 23.4424C60.8847 23.129 60.4798 22.9723 59.9923 22.9723C59.6092 22.9723 59.2784 23.0767 58.9998 23.2857C58.7212 23.4859 58.5035 23.7645 58.3468 24.1215C58.1901 24.4785 58.1117 24.9051 58.1117 25.4013C58.1117 25.8889 58.1901 26.3155 58.3468 26.6812C58.5035 27.0468 58.7212 27.3298 58.9998 27.53C59.2784 27.7303 59.6092 27.8304 59.9923 27.8304C60.4885 27.8304 60.8934 27.6737 61.2068 27.3603C61.529 27.0468 61.7292 26.6115 61.8076 26.0543L63.1788 26.0543C63.1092 26.6638 62.9307 27.1905 62.6434 27.6345C62.3561 28.0698 61.986 28.4094 61.5333 28.6532C61.0806 28.8882 60.5625 29.0058 59.9792 29.0058ZM68.6986 28.8621V27.7912C68.481 28.1743 68.1849 28.4703 67.8106 28.6793C67.4362 28.8882 66.9922 28.9927 66.4785 28.9927C65.7646 28.9927 65.1899 28.8055 64.7546 28.4312C64.3193 28.0481 64.1017 27.5388 64.1017 26.9032C64.1017 26.2241 64.3672 25.7104 64.8983 25.3622C65.4381 25.0139 66.2217 24.8398 67.249 24.8398C67.4492 24.8398 67.6451 24.8441 67.8367 24.8528C68.0282 24.8616 68.2633 24.8833 68.5419 24.9181V24.4088C68.5419 23.9213 68.4157 23.5425 68.1632 23.2726C67.9107 22.994 67.5537 22.8547 67.0923 22.8547C66.6134 22.8547 66.2304 22.994 65.943 23.2726C65.6644 23.5425 65.5164 23.9169 65.499 24.3958L64.2975 24.3958C64.315 23.8734 64.4412 23.4206 64.6763 23.0376C64.9201 22.6458 65.2465 22.3454 65.6557 22.1365C66.0736 21.9188 66.5525 21.81 67.0923 21.81C67.9455 21.81 68.6072 22.0407 69.0773 22.5021C69.5562 22.9549 69.7956 23.5948 69.7956 24.4219L69.7956 28.8621L68.6986 28.8621ZM65.3554 26.864C65.3554 27.221 65.4816 27.5083 65.7341 27.7259C65.9866 27.9436 66.3218 28.0524 66.7397 28.0524C67.2969 28.0524 67.7366 27.8957 68.0587 27.5823C68.3808 27.2602 68.5419 26.8335 68.5419 26.3025V25.7409C68.2894 25.7148 68.0674 25.6974 67.8759 25.6887C67.6843 25.6712 67.5015 25.6625 67.3274 25.6625C66.6657 25.6625 66.1694 25.7627 65.8386 25.9629C65.5164 26.1544 65.3554 26.4548 65.3554 26.864ZM72.8912 28.8621L71.5592 28.8621L71.5592 19.4854L72.8912 19.4854L72.8912 28.8621ZM81.8393 28.8621L78.8747 21.6924L78.8747 28.8621L77.5557 28.8621L77.5557 19.4854L79.3188 19.4854L82.4661 27.0991L85.6004 19.4854L87.3765 19.4854L87.3765 28.8621L86.0444 28.8621L86.0444 21.6794L83.0669 28.8621L81.8393 28.8621ZM93.4913 28.8621V27.7912C93.2737 28.1743 92.9776 28.4703 92.6033 28.6793C92.2289 28.8882 91.7849 28.9927 91.2712 28.9927C90.5573 28.9927 89.9827 28.8055 89.5473 28.4312C89.112 28.0481 88.8944 27.5388 88.8944 26.9032C88.8944 26.2241 89.1599 25.7104 89.691 25.3622C90.2308 25.0139 91.0144 24.8398 92.0417 24.8398C92.242 24.8398 92.4378 24.8441 92.6294 24.8528C92.8209 24.8616 93.056 24.8833 93.3346 24.9181V24.4088C93.3346 23.9213 93.2084 23.5425 92.9559 23.2726C92.7034 22.994 92.3464 22.8547 91.885 22.8547C91.4061 22.8547 91.0231 22.994 90.7358 23.2726C90.4572 23.5425 90.3091 23.9169 90.2917 24.3958L89.0903 24.3958C89.1077 23.8734 89.2339 23.4206 89.469 23.0376C89.7128 22.6458 90.0392 22.3454 90.4484 22.1365C90.8664 21.9188 91.3452 21.81 91.885 21.81C92.7382 21.81 93.3999 22.0407 93.87 22.5021C94.3489 22.9549 94.5883 23.5948 94.5883 24.4219L94.5883 28.8621H93.4913ZM90.1481 26.864C90.1481 27.221 90.2743 27.5083 90.5268 27.7259C90.7793 27.9436 91.1145 28.0524 91.5324 28.0524C92.0896 28.0524 92.5293 27.8957 92.8514 27.5823C93.1735 27.2602 93.3346 26.8335 93.3346 26.3025L93.3346 25.7409C93.0821 25.7148 92.8601 25.6974 92.6686 25.6887C92.477 25.6712 92.2942 25.6625 92.1201 25.6625C91.4584 25.6625 90.9621 25.7627 90.6313 25.9629C90.3091 26.1544 90.1481 26.4548 90.1481 26.864ZM97.6709 25.323L97.6709 28.8621L96.3519 28.8621L96.3519 21.9406L97.5795 21.9406V23.4032C97.8232 22.9244 98.1846 22.5457 98.6634 22.2671C99.151 21.9885 99.6777 21.8492 100.244 21.8492L100.244 23.2204C99.7473 23.1943 99.3033 23.2509 98.9115 23.3902C98.5285 23.5295 98.2237 23.7602 97.9974 24.0823C97.7797 24.3958 97.6709 24.8093 97.6709 25.323ZM102.606 28.8621H101.287L101.287 19.4854L102.606 19.4854L102.606 25.0357L105.571 21.9406L107.125 21.9406L103.925 25.2969L107.425 28.8621L105.728 28.8621L102.606 25.5842L102.606 28.8621ZM110.881 28.9927C110.211 28.9927 109.623 28.8447 109.118 28.5487C108.622 28.244 108.234 27.8174 107.956 27.2689C107.677 26.7204 107.538 26.0848 107.538 25.3622C107.538 24.6744 107.681 24.0649 107.969 23.5338C108.256 23.0027 108.648 22.5848 109.144 22.2801C109.64 21.9667 110.206 21.81 110.842 21.81C111.364 21.81 111.83 21.9101 112.239 22.1103C112.657 22.3019 113.01 22.5761 113.297 22.9331C113.593 23.2813 113.806 23.6949 113.937 24.1737C114.068 24.6439 114.102 25.1619 114.041 25.7278L108.308 25.7278V24.8528L112.644 24.8528C112.618 24.2086 112.439 23.708 112.109 23.351C111.786 22.9853 111.356 22.8025 110.816 22.8025C110.424 22.8025 110.08 22.907 109.784 23.1159C109.497 23.3162 109.27 23.6078 109.105 23.9909C108.948 24.3653 108.87 24.8224 108.87 25.3622C108.87 25.902 108.948 26.3678 109.105 26.7595C109.262 27.1426 109.488 27.4386 109.784 27.6476C110.08 27.8565 110.437 27.961 110.855 27.961C111.351 27.961 111.76 27.8348 112.082 27.5823C112.413 27.3298 112.631 26.9772 112.735 26.5245L114.041 26.5245C113.876 27.2906 113.51 27.8957 112.944 28.3397C112.387 28.7751 111.699 28.9927 110.881 28.9927ZM119.323 27.5823V28.7446C119.123 28.8404 118.927 28.9057 118.735 28.9405C118.553 28.9753 118.357 28.9927 118.148 28.9927C117.721 28.9927 117.342 28.9144 117.012 28.7576C116.689 28.6009 116.437 28.3572 116.254 28.0263C116.071 27.6955 115.98 27.2776 115.98 26.7726L115.98 23.0637L114.452 23.0637V21.9406L115.98 21.9406L115.98 19.8902L117.299 19.8902L117.299 21.9406L119.388 21.9406V23.0637L117.299 23.0637L117.299 26.4722C117.299 26.9511 117.403 27.2863 117.612 27.4778C117.83 27.6694 118.113 27.7651 118.461 27.7651C118.618 27.7651 118.766 27.7521 118.905 27.7259C119.053 27.6911 119.192 27.6432 119.323 27.5823ZM131.134 19.4854L127.686 28.8621L126.106 28.8621L122.658 19.4854L124.199 19.4854L126.929 27.1905L129.697 19.4854L131.134 19.4854ZM135.59 28.8621V27.7912C135.373 28.1743 135.077 28.4703 134.702 28.6793C134.328 28.8882 133.884 28.9927 133.37 28.9927C132.656 28.9927 132.082 28.8055 131.646 28.4312C131.211 28.0481 130.994 27.5388 130.994 26.9032C130.994 26.2241 131.259 25.7104 131.79 25.3622C132.33 25.0139 133.114 24.8398 134.141 24.8398C134.341 24.8398 134.537 24.8441 134.729 24.8528C134.92 24.8616 135.155 24.8833 135.434 24.9181V24.4088C135.434 23.9213 135.308 23.5425 135.055 23.2726C134.803 22.994 134.446 22.8547 133.984 22.8547C133.505 22.8547 133.122 22.994 132.835 23.2726C132.556 23.5425 132.408 23.9169 132.391 24.3958H131.189C131.207 23.8734 131.333 23.4206 131.568 23.0376C131.812 22.6458 132.138 22.3454 132.548 22.1365C132.966 21.9188 133.444 21.81 133.984 21.81C134.837 21.81 135.499 22.0407 135.969 22.5021C136.448 22.9549 136.687 23.5948 136.687 24.4219L136.687 28.8621L135.59 28.8621ZM132.247 26.864C132.247 27.221 132.373 27.5083 132.626 27.7259C132.878 27.9436 133.214 28.0524 133.632 28.0524C134.189 28.0524 134.628 27.8957 134.951 27.5823C135.273 27.2602 135.434 26.8335 135.434 26.3025L135.434 25.7409C135.181 25.7148 134.959 25.6974 134.768 25.6887C134.576 25.6712 134.393 25.6625 134.219 25.6625C133.558 25.6625 133.061 25.7627 132.73 25.9629C132.408 26.1544 132.247 26.4548 132.247 26.864ZM139.783 28.8621L138.451 28.8621V19.4854L139.783 19.4854L139.783 28.8621ZM145.937 26.0151V21.9406L147.256 21.9406L147.256 28.8621L146.028 28.8621L146.028 27.7782C145.854 28.1264 145.575 28.4181 145.192 28.6532C144.809 28.8795 144.382 28.9927 143.912 28.9927C143.451 28.9927 143.037 28.9013 142.672 28.7185C142.315 28.5356 142.036 28.2527 141.836 27.8696C141.644 27.4778 141.549 26.9859 141.549 26.3939V21.9406L142.868 21.9406L142.868 26.1327C142.868 26.7334 143.003 27.1687 143.272 27.4386C143.542 27.6998 143.895 27.8304 144.33 27.8304C144.626 27.8304 144.896 27.7564 145.14 27.6084C145.384 27.4517 145.575 27.2384 145.715 26.9685C145.863 26.6899 145.937 26.3721 145.937 26.0151ZM151.934 28.9927C151.264 28.9927 150.676 28.8447 150.171 28.5487C149.675 28.244 149.288 27.8174 149.009 27.2689C148.73 26.7204 148.591 26.0848 148.591 25.3622C148.591 24.6744 148.735 24.0649 149.022 23.5338C149.309 23.0027 149.701 22.5848 150.197 22.2801C150.694 21.9667 151.26 21.81 151.895 21.81C152.418 21.81 152.883 21.9101 153.293 22.1103C153.71 22.3019 154.063 22.5761 154.35 22.9331C154.646 23.2813 154.86 23.6949 154.99 24.1737C155.121 24.6439 155.156 25.1619 155.095 25.7278L149.362 25.7278V24.8528L153.697 24.8528C153.671 24.2086 153.493 23.708 153.162 23.351C152.84 22.9853 152.409 22.8025 151.869 22.8025C151.477 22.8025 151.133 22.907 150.837 23.1159C150.55 23.3162 150.324 23.6078 150.158 23.9909C150.002 24.3653 149.923 24.8224 149.923 25.3622C149.923 25.902 150.002 26.3678 150.158 26.7595C150.315 27.1426 150.541 27.4386 150.837 27.6476C151.133 27.8565 151.49 27.961 151.908 27.961C152.405 27.961 152.814 27.8348 153.136 27.5823C153.467 27.3298 153.684 26.9772 153.789 26.5245L155.095 26.5245C154.929 27.2906 154.564 27.8957 153.998 28.3397C153.441 28.7751 152.753 28.9927 151.934 28.9927Z" fill="#DAE6EA"/>
<rect x="778.371" y="16.1886" width="41.6899" height="17.6304" rx="8.81519" stroke="#DAE6EA" stroke-width="0.652977"/>
<path d="M788.431 29.0861C787.993 29.0861 787.603 28.9947 787.261 28.8118C786.926 28.629 786.661 28.3822 786.466 28.0713C786.271 27.7605 786.173 27.4192 786.173 27.0475C786.173 26.7854 786.204 26.5508 786.265 26.3436C786.332 26.1364 786.423 25.9352 786.539 25.7402C786.661 25.5452 786.81 25.341 786.987 25.1277L788.852 22.824L789.903 22.824L788.084 25.0912C788.175 25.0546 788.264 25.0302 788.349 25.018C788.441 24.9997 788.529 24.9906 788.614 24.9906C789.016 24.9906 789.373 25.0759 789.684 25.2466C790.001 25.4172 790.248 25.6549 790.424 25.9596C790.607 26.2582 790.699 26.6056 790.699 27.0018C790.699 27.3918 790.601 27.7453 790.406 28.0622C790.217 28.3791 789.952 28.629 789.611 28.8118C789.269 28.9947 788.876 29.0861 788.431 29.0861ZM788.441 28.309C788.684 28.309 788.904 28.2572 789.099 28.1536C789.294 28.0439 789.449 27.8946 789.565 27.7057C789.681 27.5107 789.739 27.2852 789.739 27.0292C789.739 26.7549 789.681 26.5203 789.565 26.3253C789.449 26.1303 789.294 25.981 789.099 25.8773C788.904 25.7737 788.684 25.7219 788.441 25.7219C788.081 25.7219 787.773 25.8316 787.517 26.051C787.267 26.2643 787.142 26.5873 787.142 27.0201C787.142 27.276 787.2 27.5015 787.316 27.6965C787.432 27.8916 787.587 28.0439 787.782 28.1536C787.977 28.2572 788.197 28.309 788.441 28.309ZM792.551 26.2704V29.0038H791.627V22.4401L792.551 22.4401V24.9358C792.709 24.6737 792.91 24.4634 793.154 24.305C793.404 24.1465 793.696 24.0673 794.032 24.0673C794.531 24.0673 794.93 24.2227 795.229 24.5335C795.534 24.8443 795.686 25.2892 795.686 25.8682V29.0038L794.763 29.0038V26.179C794.763 25.7646 794.674 25.4446 794.498 25.2191C794.321 24.9937 794.059 24.8809 793.712 24.8809C793.498 24.8809 793.303 24.9388 793.126 25.0546C792.95 25.1643 792.81 25.3228 792.706 25.53C792.602 25.7372 792.551 25.984 792.551 26.2704Z" fill="#DAE6EA"/>
<mask id="mask0_1181_5841" style="mask-type:alpha" maskUnits="userSpaceOnUse" x="799" y="18" width="14" height="14">
<rect x="799.492" y="18.474" width="13.0595" height="13.0595" fill="#D9D9D9"/>
</mask>
<g mask="url(#mask0_1181_5841)">
<path d="M806.021 26.8403L802.756 23.5754L803.518 22.8136L806.021 25.3167L808.524 22.8136L809.286 23.5754L806.021 26.8403Z" fill="#DAE6EA"/>
</g>
<line x1="244.459" y1="376.47" x2="265.354" y2="376.47" stroke="#56ACF7" stroke-width="1.30595"/>
<path d="M277.466 379.701C277.466 380.469 277.203 381.065 276.678 381.488C276.161 381.911 275.464 382.123 274.586 382.123H271.495V373.684H274.422C275.276 373.684 275.942 373.876 276.42 374.259C276.905 374.636 277.148 375.18 277.148 375.893C277.148 376.293 277.035 376.653 276.808 376.975C276.58 377.296 276.263 377.547 275.855 377.727C276.38 377.876 276.78 378.122 277.054 378.467C277.329 378.804 277.466 379.216 277.466 379.701ZM274.339 374.718H272.682V377.257H274.339C274.849 377.257 275.236 377.143 275.503 376.916C275.777 376.689 275.914 376.379 275.914 375.987C275.914 375.595 275.777 375.286 275.503 375.059C275.236 374.831 274.849 374.718 274.339 374.718ZM274.504 378.291H272.682V381.088H274.504C275.052 381.088 275.475 380.963 275.773 380.712C276.079 380.461 276.232 380.113 276.232 379.666C276.232 379.235 276.079 378.898 275.773 378.655C275.475 378.412 275.052 378.291 274.504 378.291ZM281.95 382.123H280.657L280.657 374.847L277.906 374.847V373.684L284.7 373.684V374.847H281.95L281.95 382.123ZM289.051 382.299C288.463 382.299 287.915 382.189 287.405 381.97C286.904 381.743 286.461 381.429 286.077 381.03C285.701 380.63 285.407 380.164 285.196 379.631C284.984 379.09 284.878 378.51 284.878 377.891C284.878 377.272 284.984 376.696 285.196 376.164C285.407 375.631 285.701 375.168 286.077 374.777C286.461 374.377 286.904 374.067 287.405 373.848C287.915 373.621 288.463 373.507 289.051 373.507C289.756 373.507 290.399 373.652 290.978 373.942C291.566 374.232 292.052 374.639 292.436 375.164C292.828 375.689 293.074 376.301 293.176 376.998H291.801C291.723 376.544 291.554 376.14 291.296 375.787C291.037 375.435 290.716 375.161 290.332 374.965C289.956 374.769 289.533 374.671 289.063 374.671C288.647 374.671 288.263 374.749 287.911 374.906C287.566 375.063 287.264 375.286 287.006 375.576C286.755 375.866 286.559 376.207 286.418 376.598C286.285 376.99 286.218 377.421 286.218 377.891C286.218 378.361 286.285 378.796 286.418 379.196C286.559 379.588 286.755 379.929 287.006 380.219C287.264 380.508 287.566 380.736 287.911 380.9C288.263 381.057 288.647 381.135 289.063 381.135C289.533 381.135 289.96 381.037 290.344 380.841C290.728 380.638 291.045 380.36 291.296 380.007C291.554 379.654 291.723 379.251 291.801 378.796H293.176C293.074 379.494 292.828 380.105 292.436 380.63C292.052 381.155 291.566 381.566 290.978 381.864C290.399 382.154 289.756 382.299 289.051 382.299Z" fill="#DAE6EA"/>
<line x1="307.637" y1="376.47" x2="328.532" y2="376.47" stroke="#5350BE" stroke-width="1.30595"/>
<path d="M340.021 380.994V382.123H334.673V373.684H339.938V374.812H335.966V377.21H339.586V378.338H335.966V380.994H340.021ZM344.886 382.123H343.593L343.593 374.847L340.843 374.847V373.684L347.637 373.684V374.847H344.886L344.886 382.123ZM350.072 382.123H348.779V373.684H350.072V377.21H354.35V373.684H355.643L355.643 382.123H354.35V378.338H350.072V382.123Z" fill="#DAE6EA"/>
<line x1="369.816" y1="376.47" x2="390.712" y2="376.47" stroke="#0EA766" stroke-width="1.30595"/>
<path d="M402.823 379.701C402.823 380.469 402.561 381.065 402.036 381.488C401.518 381.911 400.821 382.123 399.944 382.123H396.852V373.684H399.779C400.633 373.684 401.299 373.876 401.777 374.259C402.263 374.636 402.506 375.18 402.506 375.893C402.506 376.293 402.392 376.653 402.165 376.975C401.938 377.296 401.62 377.547 401.213 377.727C401.738 377.876 402.138 378.122 402.412 378.467C402.686 378.804 402.823 379.216 402.823 379.701ZM399.697 374.718H398.039V377.257H399.697C400.206 377.257 400.594 377.143 400.86 376.916C401.135 376.689 401.272 376.379 401.272 375.987C401.272 375.595 401.135 375.286 400.86 375.059C400.594 374.831 400.206 374.718 399.697 374.718ZM399.861 378.291H398.039V381.088H399.861C400.41 381.088 400.833 380.963 401.131 380.712C401.436 380.461 401.589 380.113 401.589 379.666C401.589 379.235 401.436 378.898 401.131 378.655C400.833 378.412 400.41 378.291 399.861 378.291ZM409.955 382.123L405.512 375.529L405.512 382.123H404.313V373.684H405.724L410.061 380.101L410.061 373.684H411.259L411.259 382.123H409.955ZM419.053 379.701C419.053 380.469 418.791 381.065 418.266 381.488C417.749 381.911 417.051 382.123 416.174 382.123H413.082V373.684H416.009C416.863 373.684 417.529 373.876 418.007 374.259C418.493 374.636 418.736 375.18 418.736 375.893C418.736 376.293 418.622 376.653 418.395 376.975C418.168 377.296 417.85 377.547 417.443 377.727C417.968 377.876 418.368 378.122 418.642 378.467C418.916 378.804 419.053 379.216 419.053 379.701ZM415.927 374.718H414.269V377.257H415.927C416.436 377.257 416.824 377.143 417.09 376.916C417.365 376.689 417.502 376.379 417.502 375.987C417.502 375.595 417.365 375.286 417.09 375.059C416.824 374.831 416.436 374.718 415.927 374.718ZM416.091 378.291H414.269V381.088L416.091 381.088C416.64 381.088 417.063 380.963 417.361 380.712C417.666 380.461 417.819 380.113 417.819 379.666C417.819 379.235 417.666 378.898 417.361 378.655C417.063 378.412 416.64 378.291 416.091 378.291Z" fill="#DAE6EA"/>
<line x1="432.994" y1="376.47" x2="453.889" y2="376.47" stroke="#EC3B3B" stroke-width="1.30595"/>
<path d="M463.38 382.123H462.087L462.087 374.847H459.337V373.684H466.13V374.847H463.38L463.38 382.123ZM472.621 380.994V382.123L467.273 382.123V373.684H472.538V374.812H468.566V377.21H472.186V378.338H468.566V380.994H472.621ZM477.486 382.123H476.194L476.194 374.847H473.443V373.684H480.237V374.847H477.486L477.486 382.123ZM482.672 382.123H481.379V373.684H482.672V377.21L486.951 377.21V373.684H488.243L488.243 382.123H486.951V378.338L482.672 378.338V382.123ZM495.428 380.994V382.123H490.08V373.684H495.345V374.812H491.373V377.21H494.993V378.338H491.373V380.994H495.428ZM498.237 382.123H496.944L496.944 373.684L500.094 373.684C501.065 373.684 501.825 373.915 502.374 374.377C502.922 374.831 503.197 375.478 503.197 376.316C503.197 376.92 503.016 377.441 502.656 377.88C502.295 378.318 501.794 378.612 501.151 378.761L503.443 382.123H501.892L499.788 378.949L498.237 378.949V382.123ZM498.237 374.765V377.868L500.011 377.868C500.607 377.868 501.069 377.739 501.398 377.48C501.727 377.214 501.892 376.826 501.892 376.316C501.892 375.807 501.727 375.423 501.398 375.164C501.069 374.898 500.607 374.765 500.011 374.765L498.237 374.765Z" fill="#DAE6EA"/>
<line x1="517.174" y1="376.47" x2="538.069" y2="376.47" stroke="#7189B8" stroke-width="1.30595"/>
<path d="M550.38 379.654C550.38 380.14 550.251 380.579 549.993 380.971C549.742 381.363 549.377 381.672 548.899 381.899C548.421 382.127 547.842 382.24 547.16 382.24C546.478 382.24 545.891 382.127 545.397 381.899C544.911 381.664 544.531 381.335 544.257 380.912C543.983 380.489 543.826 379.999 543.787 379.443H545.103C545.134 379.976 545.319 380.403 545.655 380.724C546 381.045 546.494 381.206 547.136 381.206C547.497 381.206 547.818 381.151 548.1 381.041C548.382 380.932 548.602 380.775 548.758 380.571C548.923 380.367 549.005 380.121 549.005 379.831C549.005 379.478 548.888 379.204 548.653 379.008C548.418 378.812 548.057 378.663 547.571 378.561L546.349 378.326C546.051 378.264 545.765 378.177 545.491 378.068C545.224 377.958 544.982 377.817 544.762 377.644C544.551 377.464 544.382 377.245 544.257 376.986C544.139 376.72 544.08 376.41 544.08 376.058C544.08 375.58 544.206 375.153 544.457 374.777C544.715 374.4 545.068 374.107 545.514 373.895C545.969 373.676 546.49 373.566 547.078 373.566C547.665 373.566 548.19 373.68 548.653 373.907C549.123 374.134 549.499 374.451 549.781 374.859C550.071 375.266 550.232 375.752 550.263 376.316H548.946C548.923 375.979 548.829 375.682 548.664 375.423C548.508 375.164 548.296 374.965 548.03 374.824C547.763 374.675 547.45 374.6 547.089 374.6C546.729 374.6 546.423 374.667 546.173 374.8C545.922 374.925 545.73 375.094 545.597 375.306C545.463 375.509 545.397 375.733 545.397 375.975C545.397 376.242 545.463 376.457 545.597 376.622C545.738 376.779 545.922 376.904 546.149 376.998C546.376 377.092 546.619 377.167 546.878 377.221L548.124 377.468C548.852 377.617 549.409 377.86 549.793 378.197C550.184 378.534 550.38 379.02 550.38 379.654ZM555.444 382.299C554.833 382.299 554.265 382.189 553.74 381.97C553.223 381.743 552.768 381.429 552.376 381.03C551.992 380.63 551.691 380.164 551.471 379.631C551.26 379.09 551.154 378.51 551.154 377.891C551.154 377.272 551.26 376.696 551.471 376.164C551.691 375.631 551.992 375.168 552.376 374.777C552.768 374.377 553.223 374.067 553.74 373.848C554.265 373.621 554.833 373.507 555.444 373.507C556.055 373.507 556.619 373.621 557.136 373.848C557.661 374.067 558.116 374.377 558.5 374.777C558.892 375.168 559.193 375.631 559.405 376.164C559.624 376.696 559.734 377.272 559.734 377.891C559.734 378.51 559.624 379.09 559.405 379.631C559.193 380.164 558.892 380.63 558.5 381.03C558.116 381.429 557.661 381.743 557.136 381.97C556.619 382.189 556.055 382.299 555.444 382.299ZM555.444 381.135C555.891 381.135 556.294 381.053 556.655 380.888C557.015 380.724 557.325 380.493 557.583 380.195C557.85 379.897 558.049 379.552 558.183 379.161C558.324 378.761 558.394 378.338 558.394 377.891C558.394 377.445 558.324 377.025 558.183 376.634C558.049 376.242 557.85 375.901 557.583 375.611C557.325 375.313 557.015 375.082 556.655 374.918C556.294 374.753 555.891 374.671 555.444 374.671C554.997 374.671 554.594 374.753 554.233 374.918C553.873 375.082 553.559 375.313 553.293 375.611C553.034 375.901 552.835 376.242 552.694 376.634C552.56 377.025 552.494 377.445 552.494 377.891C552.494 378.338 552.56 378.761 552.694 379.161C552.835 379.552 553.034 379.897 553.293 380.195C553.559 380.493 553.873 380.724 554.233 380.888C554.594 381.053 554.997 381.135 555.444 381.135ZM566.184 382.123H561.071L561.071 373.684H562.364L562.364 380.959H566.184V382.123ZM568.746 378.984H572.672L573.024 380.03H568.311L568.746 378.984ZM573.259 382.123L570.685 375.094L568.076 382.123L566.771 382.123L570.003 373.684H571.426L574.634 382.123H573.259ZM581.439 382.123L576.996 375.529V382.123H575.798V373.684H577.208L581.545 380.101V373.684H582.744V382.123H581.439ZM585.86 378.984H589.785L590.138 380.03H585.425L585.86 378.984ZM590.373 382.123L587.799 375.094L585.19 382.123H583.885L587.117 373.684H588.539L591.748 382.123H590.373Z" fill="#DAE6EA"/>
<path d="M20.3902 57.8915L20.3902 58.7143L16.3953 58.7143L16.3953 58.1841L18.3242 56.0998C18.568 55.8316 18.763 55.6 18.9093 55.405C19.0616 55.2039 19.1713 55.018 19.2384 54.8474C19.3054 54.6767 19.3389 54.5 19.3389 54.3171C19.3389 54.1099 19.2932 53.9271 19.2018 53.7686C19.1165 53.6102 18.9946 53.4883 18.8361 53.403C18.6777 53.3177 18.4918 53.275 18.2785 53.275C18.0469 53.275 17.8458 53.3207 17.6751 53.4121C17.5106 53.5035 17.3795 53.6346 17.282 53.8052C17.1845 53.9759 17.1358 54.177 17.1358 54.4086L16.2307 54.4086C16.2307 54.0246 16.3191 53.6864 16.4958 53.3938C16.6787 53.0952 16.9255 52.8636 17.2363 52.6991C17.5471 52.5284 17.9067 52.4431 18.315 52.4431C18.699 52.4431 19.0403 52.5193 19.3389 52.6716C19.6436 52.824 19.8813 53.0343 20.052 53.3024C20.2226 53.5645 20.3079 53.8662 20.3079 54.2074C20.3079 54.439 20.2714 54.6615 20.1982 54.8748C20.1251 55.082 19.9971 55.3105 19.8143 55.5604C19.6314 55.8103 19.3694 56.1181 19.0281 56.4837L17.7848 57.8915L20.3902 57.8915ZM21.2422 55.6335C21.2422 54.6097 21.4373 53.8235 21.8273 53.275C22.2234 52.7204 22.7872 52.4431 23.5185 52.4431C24.2498 52.4431 24.8136 52.7204 25.2097 53.275C25.6059 53.8235 25.8039 54.6097 25.8039 55.6335C25.8039 56.6574 25.6059 57.4436 25.2097 57.9921C24.8197 58.5345 24.2559 58.8057 23.5185 58.8057C22.7811 58.8057 22.2173 58.5345 21.8273 57.9921C21.4373 57.4436 21.2422 56.6574 21.2422 55.6335ZM22.193 55.6335C22.193 56.3954 22.3057 56.9774 22.5312 57.3796C22.7567 57.7757 23.0858 57.9738 23.5185 57.9738C23.9512 57.9738 24.2803 57.7757 24.5058 57.3796C24.7374 56.9835 24.8532 56.4015 24.8532 55.6335C24.8532 54.8596 24.7374 54.2745 24.5058 53.8783C24.2803 53.4761 23.9512 53.275 23.5185 53.275C23.0919 53.275 22.7628 53.4761 22.5312 53.8783C22.3057 54.2745 22.193 54.8596 22.193 55.6335ZM27.9676 58.7143H26.962L26.962 52.1506H27.9676L27.9676 55.1856L30.7466 52.1506L31.9076 52.1506L28.9823 55.3684L31.9808 58.7143H30.7192L27.9676 55.6701L27.9676 58.7143Z" fill="#DAE6EA"/>
<line opacity="0.2" x1="40.7559" y1="54.5511" x2="821.063" y2="54.5511" stroke="#DAE6EA" stroke-width="0.326488"/>
<path d="M18.2145 131.684H17.282L17.282 126.309H16.0845L16.0845 125.505L18.2145 125.505L18.2145 131.684ZM21.4605 131.776C21.0583 131.776 20.6956 131.697 20.3726 131.538C20.0496 131.374 19.7906 131.151 19.5956 130.871C19.4067 130.584 19.3031 130.258 19.2848 129.893L20.2081 129.893C20.2446 130.222 20.3757 130.481 20.6012 130.67C20.8267 130.852 21.1131 130.944 21.4605 130.944C21.7408 130.944 21.9755 130.892 22.1644 130.788C22.3533 130.679 22.4935 130.533 22.5849 130.35C22.6824 130.161 22.7312 129.947 22.7312 129.71C22.7312 129.496 22.6794 129.298 22.5758 129.116C22.4783 128.933 22.335 128.786 22.1461 128.677C21.9572 128.567 21.7256 128.512 21.4514 128.512C21.1771 128.512 20.9364 128.57 20.7292 128.686C20.528 128.796 20.3635 128.963 20.2355 129.189L19.4859 128.951L20.0344 125.505L23.3345 125.505L23.3345 126.327L20.7017 126.327L20.4275 128.11C20.6042 127.976 20.7901 127.875 20.9851 127.808C21.1801 127.741 21.3813 127.708 21.5885 127.708C22.0456 127.708 22.4295 127.802 22.7403 127.991C23.0511 128.174 23.2858 128.418 23.4442 128.722C23.6088 129.027 23.6911 129.356 23.6911 129.71C23.6911 129.984 23.6423 130.246 23.5448 130.496C23.4473 130.746 23.301 130.968 23.106 131.163C22.9171 131.352 22.6855 131.502 22.4112 131.611C22.137 131.721 21.8201 131.776 21.4605 131.776ZM25.7268 131.684H24.7212L24.7212 125.121H25.7268L25.7268 128.156L28.5059 125.121H29.6669L26.7415 128.339L29.74 131.684H28.4784L25.7268 128.64L25.7268 131.684Z" fill="#DAE6EA"/>
<line opacity="0.2" x1="37.7559" y1="127.521" x2="820.022" y2="127.521" stroke="#DAE6EA" stroke-width="0.326488"/>
<path d="M18.2145 204.655H17.282L17.282 199.279H16.0845L16.0845 198.475H18.2145L18.2145 204.655ZM19.3853 201.574C19.3853 200.55 19.5804 199.764 19.9704 199.215C20.3665 198.661 20.9303 198.384 21.6616 198.384C22.3929 198.384 22.9567 198.661 23.3528 199.215C23.749 199.764 23.947 200.55 23.947 201.574C23.947 202.598 23.749 203.384 23.3528 203.933C22.9628 204.475 22.399 204.746 21.6616 204.746C20.9242 204.746 20.3604 204.475 19.9704 203.933C19.5804 203.384 19.3853 202.598 19.3853 201.574ZM20.3361 201.574C20.3361 202.336 20.4488 202.918 20.6743 203.32C20.8998 203.716 21.2289 203.914 21.6616 203.914C22.0943 203.914 22.4234 203.716 22.6489 203.32C22.8805 202.924 22.9963 202.342 22.9963 201.574C22.9963 200.8 22.8805 200.215 22.6489 199.819C22.4234 199.417 22.0943 199.215 21.6616 199.215C21.235 199.215 20.9059 199.417 20.6743 199.819C20.4488 200.215 20.3361 200.8 20.3361 201.574ZM26.1107 204.655H25.1051L25.1051 198.091H26.1107L26.1107 201.126L28.8897 198.091H30.0507L27.1254 201.309L30.1239 204.655H28.8623L26.1107 201.611L26.1107 204.655Z" fill="#DAE6EA"/>
<line opacity="0.2" x1="38.7559" y1="200.491" x2="820.369" y2="200.492" stroke="#DAE6EA" stroke-width="0.326488"/>
<path d="M18.443 277.716C18.0408 277.716 17.6782 277.637 17.3552 277.478C17.0322 277.314 16.7731 277.091 16.5781 276.811C16.3892 276.525 16.2856 276.199 16.2673 275.833H17.1906C17.2272 276.162 17.3582 276.421 17.5837 276.61C17.8092 276.793 18.0956 276.884 18.443 276.884C18.7234 276.884 18.958 276.832 19.1469 276.729C19.3359 276.619 19.476 276.473 19.5675 276.29C19.665 276.101 19.7137 275.888 19.7137 275.65C19.7137 275.437 19.6619 275.239 19.5583 275.056C19.4608 274.873 19.3176 274.727 19.1287 274.617C18.9397 274.507 18.7081 274.453 18.4339 274.453C18.1596 274.453 17.9189 274.51 17.7117 274.626C17.5106 274.736 17.346 274.904 17.218 275.129L16.4684 274.891L17.0169 271.445H20.3171L20.3171 272.268H17.6843L17.41 274.05C17.5868 273.916 17.7726 273.816 17.9677 273.749C18.1627 273.682 18.3638 273.648 18.571 273.648C19.0281 273.648 19.412 273.743 19.7229 273.931C20.0337 274.114 20.2683 274.358 20.4268 274.663C20.5913 274.968 20.6736 275.297 20.6736 275.65C20.6736 275.924 20.6248 276.186 20.5273 276.436C20.4298 276.686 20.2835 276.909 20.0885 277.104C19.8996 277.293 19.668 277.442 19.3938 277.552C19.1195 277.661 18.8026 277.716 18.443 277.716ZM22.7093 277.625H21.7037L21.7037 271.061H22.7093L22.7093 274.096L25.4884 271.061H26.6494L23.7241 274.279L26.7225 277.625H25.461L22.7093 274.581L22.7093 277.625Z" fill="#DAE6EA"/>
<line opacity="0.2" x1="34.7559" y1="273.461" x2="820.287" y2="273.461" stroke="#DAE6EA" stroke-width="0.326488"/>
<g opacity="0.5">
<path d="M16.3679 347.514C16.3679 346.49 16.5629 345.704 16.9529 345.156C17.3491 344.601 17.9128 344.324 18.6441 344.324C19.3755 344.324 19.9392 344.601 20.3354 345.156C20.7315 345.704 20.9296 346.49 20.9296 347.514C20.9296 348.538 20.7315 349.324 20.3354 349.873C19.9453 350.415 19.3816 350.686 18.6441 350.686C17.9067 350.686 17.343 350.415 16.9529 349.873C16.5629 349.324 16.3679 348.538 16.3679 347.514ZM17.3186 347.514C17.3186 348.276 17.4313 348.858 17.6568 349.26C17.8823 349.656 18.2114 349.854 18.6441 349.854C19.0768 349.854 19.4059 349.656 19.6314 349.26C19.863 348.864 19.9788 348.282 19.9788 347.514C19.9788 346.74 19.863 346.155 19.6314 345.759C19.4059 345.357 19.0768 345.156 18.6441 345.156C18.2175 345.156 17.8884 345.357 17.6568 345.759C17.4313 346.155 17.3186 346.74 17.3186 347.514Z" fill="#DAE6EA"/>
<line x1="29.7559" y1="346.268" x2="820.511" y2="346.268" stroke="#DAE6EA" stroke-width="0.652977"/>
</g>
<path d="M29.6289 329.291C29.6289 329.291 261.631 318.632 410.399 317.629C570.534 316.549 820.384 325.404 820.384 325.404" stroke="#7189B8" stroke-width="1.30595"/>
<path d="M29.6289 298.455C29.6289 298.455 229.319 280.322 357.359 285.01C431.839 287.736 472.237 300.287 546.838 300.556C624.875 300.838 667.146 285.01 745.184 285.01C777.037 285.01 820.384 300.556 820.384 300.556" stroke="#EC3B3B" stroke-width="1.30595"/>
<path d="M29.6289 248.275C29.6289 248.275 334.766 241.034 530.07 248.275C611.417 251.291 656.839 258.003 738.232 259.211C770.311 259.687 820.384 259.211 820.384 259.211" stroke="#0EA766" stroke-width="1.30595"/>
<path d="M29.6289 191.64C29.6289 191.64 365.097 175.846 578.088 198.528C673.219 208.659 820.384 234.609 820.384 234.609" stroke="#5350BE" stroke-width="1.30595"/>
<path d="M30.9336 100.275C30.9336 100.275 202.398 184.481 309.311 155.348C371.234 138.475 387.151 70.2449 451.294 72.7377C503.916 74.7828 517.621 130.689 569.941 136.663C633.611 143.932 660.668 90.8604 723.756 79.6219C760.998 72.9876 820.383 72.7377 820.383 72.7377" stroke="#56ACF7" stroke-width="1.30595"/>
<g filter="url(#filter0_d_1181_5841)">
<rect x="569.643" y="68.1003" width="94.0287" height="106.435" rx="5.22381" fill="#07153B" shape-rendering="crispEdges"/>
<rect x="569.806" y="68.2635" width="93.7022" height="106.109" rx="5.06057" stroke="#DAE6EA" stroke-opacity="0.2" stroke-width="0.326488" shape-rendering="crispEdges"/>
<path d="M581.949 85.1133V85.936L577.954 85.936V85.4058L579.883 83.3215C580.127 83.0533 580.322 82.8217 580.468 82.6267C580.62 82.4256 580.73 82.2397 580.797 82.0691C580.864 81.8984 580.898 81.7217 580.898 81.5389C580.898 81.3316 580.852 81.1488 580.76 80.9904C580.675 80.8319 580.553 80.71 580.395 80.6247C580.236 80.5394 580.05 80.4967 579.837 80.4967C579.605 80.4967 579.404 80.5424 579.234 80.6338C579.069 80.7252 578.938 80.8563 578.841 81.0269C578.743 81.1976 578.694 81.3987 578.694 81.6303H577.789C577.789 81.2463 577.878 80.9081 578.054 80.6155C578.237 80.3169 578.484 80.0853 578.795 79.9208C579.106 79.7501 579.465 79.6648 579.874 79.6648C580.258 79.6648 580.599 79.741 580.898 79.8934C581.202 80.0457 581.44 80.256 581.611 80.5241C581.781 80.7862 581.867 81.0879 581.867 81.4292C581.867 81.6607 581.83 81.8832 581.757 82.0965C581.684 82.3037 581.556 82.5323 581.373 82.7821C581.19 83.032 580.928 83.3398 580.587 83.7054L579.343 85.1133L581.949 85.1133ZM582.801 82.8553C582.801 81.8314 582.996 81.0452 583.386 80.4967C583.782 79.9421 584.346 79.6648 585.077 79.6648C585.808 79.6648 586.372 79.9421 586.768 80.4967C587.164 81.0452 587.363 81.8314 587.363 82.8553C587.363 83.8791 587.164 84.6653 586.768 85.2138C586.378 85.7562 585.815 86.0274 585.077 86.0274C584.34 86.0274 583.776 85.7562 583.386 85.2138C582.996 84.6653 582.801 83.8791 582.801 82.8553ZM583.752 82.8553C583.752 83.6171 583.864 84.1991 584.09 84.6013C584.315 84.9975 584.644 85.1955 585.077 85.1955C585.51 85.1955 585.839 84.9975 586.064 84.6013C586.296 84.2052 586.412 83.6232 586.412 82.8553C586.412 82.0813 586.296 81.4962 586.064 81.1001C585.839 80.6978 585.51 80.4967 585.077 80.4967C584.65 80.4967 584.321 80.6978 584.09 81.1001C583.864 81.4962 583.752 82.0813 583.752 82.8553ZM590.057 85.936H589.125V80.5607H587.927V79.7562H590.057V85.936ZM593.331 86.0183C592.892 86.0183 592.502 85.9269 592.161 85.744C591.826 85.5612 591.56 85.3144 591.365 85.0036C591.17 84.6927 591.073 84.3514 591.073 83.9797C591.073 83.7176 591.103 83.483 591.164 83.2758C591.231 83.0686 591.323 82.8674 591.439 82.6724C591.56 82.4774 591.71 82.2732 591.887 82.0599L593.751 79.7562H594.803L592.984 82.0234C593.075 81.9868 593.163 81.9624 593.249 81.9502C593.34 81.932 593.428 81.9228 593.514 81.9228C593.916 81.9228 594.272 82.0081 594.583 82.1788C594.9 82.3494 595.147 82.5871 595.324 82.8918C595.507 83.1905 595.598 83.5378 595.598 83.934C595.598 84.324 595.501 84.6775 595.305 84.9944C595.117 85.3113 594.851 85.5612 594.51 85.744C594.169 85.9269 593.776 86.0183 593.331 86.0183ZM593.34 85.2412C593.584 85.2412 593.803 85.1894 593.998 85.0858C594.193 84.9761 594.349 84.8268 594.464 84.6379C594.58 84.4429 594.638 84.2174 594.638 83.9614C594.638 83.6872 594.58 83.4525 594.464 83.2575C594.349 83.0625 594.193 82.9132 593.998 82.8096C593.803 82.7059 593.584 82.6541 593.34 82.6541C592.98 82.6541 592.673 82.7638 592.417 82.9832C592.167 83.1965 592.042 83.5196 592.042 83.9523C592.042 84.2082 592.1 84.4337 592.216 84.6287C592.331 84.8238 592.487 84.9761 592.682 85.0858C592.877 85.1894 593.096 85.2412 593.34 85.2412Z" fill="#DAE6EA"/>
<mask id="mask1_1181_5841" style="mask-type:alpha" maskUnits="userSpaceOnUse" x="577" y="90" width="14" height="14">
<rect x="577.479" y="90.5479" width="13.0595" height="13.0595" fill="#56ACF7"/>
</mask>
<g mask="url(#mask1_1181_5841)">
<path d="M584.008 100.995C583.466 100.995 582.956 100.893 582.48 100.687C582.003 100.481 581.588 100.202 581.236 99.8495C580.883 99.4969 580.604 99.0823 580.398 98.6056C580.193 98.1289 580.09 97.6196 580.09 97.0776C580.09 96.5357 580.193 96.0263 580.398 95.5497C580.604 95.073 580.883 94.6583 581.236 94.3057C581.588 93.9531 582.003 93.674 582.48 93.4683C582.956 93.2626 583.466 93.1598 584.008 93.1598C584.55 93.1598 585.059 93.2626 585.536 93.4683C586.012 93.674 586.427 93.9531 586.78 94.3057C587.132 94.6583 587.411 95.073 587.617 95.5497C587.823 96.0263 587.926 96.5357 587.926 97.0776C587.926 97.6196 587.823 98.1289 587.617 98.6056C587.411 99.0823 587.132 99.4969 586.78 99.8495C586.427 100.202 586.012 100.481 585.536 100.687C585.059 100.893 584.55 100.995 584.008 100.995ZM584.008 100.212C584.883 100.212 585.624 99.9083 586.231 99.301C586.838 98.6937 587.142 97.9526 587.142 97.0776C587.142 96.2026 586.838 95.4615 586.231 94.8542C585.624 94.247 584.883 93.9433 584.008 93.9433C583.133 93.9433 582.392 94.247 581.784 94.8542C581.177 95.4615 580.873 96.2026 580.873 97.0776C580.873 97.9526 581.177 98.6937 581.784 99.301C582.392 99.9083 583.133 100.212 584.008 100.212ZM584.008 100.212C583.133 100.212 582.392 99.9083 581.784 99.301C581.177 98.6937 580.873 97.9526 580.873 97.0776C580.873 96.2026 581.177 95.4615 581.784 94.8542C582.392 94.247 583.133 93.9433 584.008 93.9433C584.883 93.9433 585.624 94.247 586.231 94.8542C586.838 95.4615 587.142 96.2026 587.142 97.0776C587.142 97.9526 586.838 98.6937 586.231 99.301C585.624 99.9083 584.883 100.212 584.008 100.212Z" fill="#56ACF7"/>
</g>
<path d="M598.306 99.2402C598.306 99.8253 598.108 100.279 597.712 100.602C597.322 100.919 596.804 101.078 596.158 101.078L593.891 101.078V94.514L596.021 94.514C596.655 94.514 597.148 94.6602 597.502 94.9528C597.861 95.2453 598.041 95.6628 598.041 96.2052C598.041 96.5282 597.944 96.8207 597.749 97.0828C597.56 97.3448 597.298 97.5368 596.962 97.6587C597.407 97.7684 597.743 97.9604 597.968 98.2346C598.194 98.5089 598.306 98.8441 598.306 99.2402ZM595.984 95.0716L594.531 95.0716V97.4119L595.984 97.4119C596.429 97.4119 596.77 97.3083 597.008 97.1011C597.252 96.8938 597.374 96.6074 597.374 96.2417C597.374 95.8761 597.252 95.5896 597.008 95.3824C596.77 95.1752 596.429 95.0716 595.984 95.0716ZM596.121 97.9695L594.531 97.9695L594.531 100.52L596.121 100.52C596.603 100.52 596.978 100.407 597.246 100.182C597.514 99.9502 597.648 99.6303 597.648 99.2219C597.648 98.8258 597.514 98.518 597.246 98.2986C596.978 98.0792 596.603 97.9695 596.121 97.9695ZM601.516 101.078H600.839V95.1265L598.636 95.1265V94.514L603.719 94.514V95.1265L601.516 95.1265V101.078ZM607.107 101.215C606.65 101.215 606.227 101.129 605.837 100.959C605.447 100.782 605.105 100.538 604.813 100.228C604.526 99.9167 604.301 99.5541 604.136 99.1396C603.978 98.7191 603.899 98.2681 603.899 97.7867C603.899 97.3052 603.978 96.8573 604.136 96.4429C604.301 96.0284 604.526 95.6689 604.813 95.3641C605.105 95.0533 605.447 94.8126 605.837 94.6419C606.227 94.4652 606.65 94.3768 607.107 94.3768C607.625 94.3768 608.104 94.4865 608.543 94.7059C608.981 94.9192 609.347 95.224 609.64 95.6201C609.938 96.0101 610.13 96.4672 610.216 96.9914H609.493C609.426 96.6013 609.28 96.257 609.055 95.9583C608.829 95.6536 608.549 95.4159 608.214 95.2453C607.884 95.0746 607.516 94.9893 607.107 94.9893C606.742 94.9893 606.407 95.0594 606.102 95.1996C605.797 95.3398 605.532 95.5348 605.306 95.7847C605.081 96.0345 604.907 96.3301 604.785 96.6714C604.663 97.0127 604.603 97.3844 604.603 97.7867C604.603 98.195 604.663 98.5698 604.785 98.9111C604.907 99.2524 605.081 99.551 605.306 99.807C605.532 100.057 605.797 100.252 606.102 100.392C606.407 100.532 606.742 100.602 607.107 100.602C607.516 100.602 607.887 100.517 608.223 100.346C608.558 100.17 608.835 99.9289 609.055 99.6242C609.28 99.3194 609.426 98.9751 609.493 98.5911H610.216C610.13 99.1092 609.941 99.5663 609.649 99.9624C609.356 100.359 608.988 100.666 608.543 100.886C608.104 101.105 607.625 101.215 607.107 101.215ZM612.341 100.547C612.341 100.712 612.286 100.849 612.176 100.959C612.073 101.069 611.936 101.123 611.765 101.123C611.6 101.123 611.463 101.069 611.354 100.959C611.244 100.849 611.189 100.712 611.189 100.547C611.189 100.377 611.244 100.237 611.354 100.127C611.463 100.017 611.6 99.9624 611.765 99.9624C611.936 99.9624 612.073 100.017 612.176 100.127C612.286 100.237 612.341 100.377 612.341 100.547ZM612.341 96.8268C612.341 96.9914 612.286 97.1285 612.176 97.2382C612.073 97.3479 611.936 97.4027 611.765 97.4027C611.6 97.4027 611.463 97.3479 611.354 97.2382C611.244 97.1285 611.189 96.9914 611.189 96.8268C611.189 96.6562 611.244 96.516 611.354 96.4063C611.463 96.2966 611.6 96.2417 611.765 96.2417C611.936 96.2417 612.073 96.2966 612.176 96.4063C612.286 96.516 612.341 96.6562 612.341 96.8268Z" fill="#DAE6EA"/>
<path d="M618.056 100.548L617.124 100.548V95.1726H615.926V94.3681L618.056 94.3681V100.548ZM619.227 97.4672C619.227 96.4433 619.422 95.6571 619.812 95.1086C620.208 94.554 620.772 94.2767 621.503 94.2767C622.235 94.2767 622.798 94.554 623.195 95.1086C623.591 95.6571 623.789 96.4433 623.789 97.4672C623.789 98.491 623.591 99.2772 623.195 99.8257C622.805 100.368 622.241 100.639 621.503 100.639C620.766 100.639 620.202 100.368 619.812 99.8257C619.422 99.2772 619.227 98.491 619.227 97.4672ZM620.178 97.4672C620.178 98.229 620.291 98.811 620.516 99.2132C620.742 99.6094 621.071 99.8074 621.503 99.8074C621.936 99.8074 622.265 99.6094 622.491 99.2132C622.722 98.8171 622.838 98.2351 622.838 97.4672C622.838 96.6932 622.722 96.1081 622.491 95.712C622.265 95.3097 621.936 95.1086 621.503 95.1086C621.077 95.1086 620.748 95.3097 620.516 95.712C620.291 96.1081 620.178 96.6932 620.178 97.4672ZM628.741 100.63C628.314 100.63 627.936 100.554 627.607 100.402C627.278 100.243 627.022 100.027 626.839 99.7526C626.656 99.4722 626.562 99.1523 626.556 98.7927H627.461C627.479 99.1279 627.604 99.3961 627.836 99.5972C628.067 99.7922 628.369 99.8897 628.741 99.8897C629.131 99.8897 629.435 99.7922 629.655 99.5972C629.88 99.4022 629.993 99.137 629.993 98.8019C629.993 98.4788 629.868 98.2229 629.618 98.034C629.368 97.8389 629.03 97.7414 628.603 97.7414H627.963V97.0009H628.558C628.789 97.0009 628.99 96.9583 629.161 96.873C629.338 96.7876 629.472 96.6688 629.563 96.5164C629.661 96.3641 629.71 96.1904 629.71 95.9954C629.71 95.7028 629.615 95.4682 629.426 95.2914C629.237 95.1086 628.987 95.0172 628.677 95.0172C628.36 95.0172 628.104 95.1117 627.909 95.3006C627.72 95.4834 627.616 95.7333 627.598 96.0502H626.702C626.714 95.7089 626.806 95.4042 626.976 95.136C627.153 94.8679 627.394 94.6576 627.698 94.5053C628.003 94.3529 628.341 94.2767 628.713 94.2767C629.109 94.2767 629.454 94.3468 629.746 94.487C630.039 94.6272 630.264 94.8222 630.423 95.072C630.587 95.3158 630.669 95.6023 630.669 95.9314C630.669 96.23 630.581 96.4981 630.404 96.7358C630.234 96.9735 629.99 97.1685 629.673 97.3209C630.081 97.4306 630.395 97.6134 630.615 97.8694C630.84 98.1193 630.953 98.424 630.953 98.7836C630.953 99.1492 630.858 99.4722 630.669 99.7526C630.487 100.027 630.228 100.243 629.892 100.402C629.563 100.554 629.179 100.63 628.741 100.63ZM633.864 94.2859C634.303 94.2859 634.693 94.3773 635.034 94.5601C635.375 94.7429 635.641 94.9898 635.829 95.3006C636.025 95.6053 636.122 95.9466 636.122 96.3245C636.122 96.5743 636.092 96.8029 636.031 97.0101C635.976 97.2112 635.887 97.4123 635.765 97.6134C635.65 97.8085 635.497 98.0187 635.308 98.2442L633.453 100.548H632.392L634.211 98.2808C634.12 98.3112 634.029 98.3356 633.937 98.3539C633.852 98.3661 633.763 98.3722 633.672 98.3722C633.276 98.3722 632.919 98.2899 632.602 98.1254C632.292 97.9547 632.045 97.7201 631.862 97.4215C631.685 97.1167 631.597 96.7663 631.597 96.3702C631.597 95.9801 631.694 95.6266 631.889 95.3097C632.084 94.9928 632.353 94.7429 632.694 94.5601C633.035 94.3773 633.425 94.2859 633.864 94.2859ZM633.855 95.0629C633.611 95.0629 633.392 95.1178 633.197 95.2275C633.002 95.3311 632.846 95.4804 632.73 95.6754C632.615 95.8643 632.557 96.0868 632.557 96.3427C632.557 96.6109 632.615 96.8455 632.73 97.0467C632.846 97.2417 633.002 97.391 633.197 97.4946C633.392 97.5982 633.611 97.65 633.855 97.65C634.221 97.65 634.528 97.5433 634.778 97.33C635.034 97.1106 635.162 96.7846 635.162 96.3519C635.162 96.0898 635.101 95.8643 634.979 95.6754C634.864 95.4804 634.708 95.3311 634.513 95.2275C634.318 95.1178 634.099 95.0629 633.855 95.0629ZM641.339 98.811C641.339 99.1706 641.245 99.4875 641.056 99.7617C640.867 100.036 640.602 100.249 640.261 100.402C639.925 100.554 639.532 100.63 639.081 100.63C638.63 100.63 638.234 100.554 637.893 100.402C637.552 100.249 637.283 100.036 637.088 99.7617C636.899 99.4875 636.805 99.1706 636.805 98.811C636.805 98.4392 636.918 98.1284 637.143 97.8785C637.369 97.6287 637.643 97.4458 637.966 97.33C637.704 97.2142 637.485 97.0406 637.308 96.809C637.137 96.5774 637.052 96.3031 637.052 95.9862C637.052 95.651 637.137 95.3554 637.308 95.0995C637.485 94.8435 637.725 94.6424 638.03 94.4961C638.335 94.3499 638.685 94.2767 639.081 94.2767C639.471 94.2767 639.819 94.3499 640.123 94.4961C640.428 94.6424 640.666 94.8435 640.836 95.0995C641.013 95.3554 641.102 95.651 641.102 95.9862C641.102 96.3031 641.013 96.5774 640.836 96.809C640.66 97.0406 640.443 97.2142 640.187 97.33C640.51 97.4458 640.782 97.6287 641.001 97.8785C641.227 98.1284 641.339 98.4392 641.339 98.811ZM638.003 96.0136C638.003 96.3184 638.1 96.556 638.295 96.7267C638.496 96.8973 638.758 96.9827 639.081 96.9827C639.398 96.9827 639.654 96.8973 639.849 96.7267C640.05 96.556 640.151 96.3184 640.151 96.0136C640.151 95.7028 640.05 95.459 639.849 95.2823C639.654 95.1056 639.398 95.0172 639.081 95.0172C638.758 95.0172 638.496 95.1056 638.295 95.2823C638.1 95.459 638.003 95.7028 638.003 96.0136ZM637.774 98.7927C637.774 99.0182 637.829 99.2132 637.939 99.3778C638.048 99.5423 638.201 99.6703 638.396 99.7617C638.591 99.8471 638.819 99.8897 639.081 99.8897C639.337 99.8897 639.563 99.8471 639.758 99.7617C639.959 99.6703 640.114 99.5423 640.224 99.3778C640.334 99.2132 640.389 99.0182 640.389 98.7927C640.389 98.5672 640.334 98.3752 640.224 98.2168C640.114 98.0583 639.959 97.9364 639.758 97.8511C639.563 97.7658 639.337 97.7231 639.081 97.7231C638.819 97.7231 638.591 97.7658 638.396 97.8511C638.201 97.9364 638.048 98.0583 637.939 98.2168C637.829 98.3752 637.774 98.5672 637.774 98.7927Z" fill="#DAE6EA"/>
<mask id="mask2_1181_5841" style="mask-type:alpha" maskUnits="userSpaceOnUse" x="577" y="106" width="14" height="14">
<rect x="577.479" y="106.219" width="13.0595" height="13.0595" fill="#5350BE"/>
</mask>
<g mask="url(#mask2_1181_5841)">
<path d="M584.008 116.667C583.466 116.667 582.956 116.564 582.48 116.359C582.003 116.153 581.588 115.874 581.236 115.521C580.883 115.168 580.604 114.754 580.398 114.277C580.193 113.8 580.09 113.291 580.09 112.749C580.09 112.207 580.193 111.698 580.398 111.221C580.604 110.745 580.883 110.33 581.236 109.977C581.588 109.625 582.003 109.346 582.48 109.14C582.956 108.934 583.466 108.831 584.008 108.831C584.55 108.831 585.059 108.934 585.536 109.14C586.012 109.346 586.427 109.625 586.78 109.977C587.132 110.33 587.411 110.745 587.617 111.221C587.823 111.698 587.926 112.207 587.926 112.749C587.926 113.291 587.823 113.8 587.617 114.277C587.411 114.754 587.132 115.168 586.78 115.521C586.427 115.874 586.012 116.153 585.536 116.359C585.059 116.564 584.55 116.667 584.008 116.667ZM584.008 115.883C584.883 115.883 585.624 115.58 586.231 114.973C586.838 114.365 587.142 113.624 587.142 112.749C587.142 111.874 586.838 111.133 586.231 110.526C585.624 109.919 584.883 109.615 584.008 109.615C583.133 109.615 582.392 109.919 581.784 110.526C581.177 111.133 580.873 111.874 580.873 112.749C580.873 113.624 581.177 114.365 581.784 114.973C582.392 115.58 583.133 115.883 584.008 115.883ZM584.008 115.883C583.133 115.883 582.392 115.58 581.784 114.973C581.177 114.365 580.873 113.624 580.873 112.749C580.873 111.874 581.177 111.133 581.784 110.526C582.392 109.919 583.133 109.615 584.008 109.615C584.883 109.615 585.624 109.919 586.231 110.526C586.838 111.133 587.142 111.874 587.142 112.749C587.142 113.624 586.838 114.365 586.231 114.973C585.624 115.58 584.883 115.883 584.008 115.883Z" fill="#5350BE"/>
</g>
<path d="M597.831 116.155V116.749L593.891 116.749V110.185L597.767 110.185V110.78L594.576 110.78V113.065L597.493 113.065V113.659L594.576 113.659L594.576 116.155L597.831 116.155ZM601.426 116.749H600.75V110.798L598.547 110.798V110.185L603.63 110.185V110.798L601.426 110.798V116.749ZM605.236 116.749H604.55V110.185H605.236V113.065L608.966 113.065V110.185H609.651V116.749H608.966V113.659L605.236 113.659L605.236 116.749ZM612.144 116.219C612.144 116.383 612.09 116.521 611.98 116.63C611.876 116.74 611.739 116.795 611.569 116.795C611.404 116.795 611.267 116.74 611.157 116.63C611.047 116.521 610.993 116.383 610.993 116.219C610.993 116.048 611.047 115.908 611.157 115.798C611.267 115.689 611.404 115.634 611.569 115.634C611.739 115.634 611.876 115.689 611.98 115.798C612.09 115.908 612.144 116.048 612.144 116.219ZM612.144 112.498C612.144 112.663 612.09 112.8 611.98 112.91C611.876 113.019 611.739 113.074 611.569 113.074C611.404 113.074 611.267 113.019 611.157 112.91C611.047 112.8 610.993 112.663 610.993 112.498C610.993 112.328 611.047 112.187 611.157 112.078C611.267 111.968 611.404 111.913 611.569 111.913C611.739 111.913 611.876 111.968 611.98 112.078C612.09 112.187 612.144 112.328 612.144 112.498Z" fill="#DAE6EA"/>
<path d="M618.312 116.302C617.873 116.302 617.483 116.21 617.142 116.027C616.807 115.845 616.542 115.598 616.347 115.287C616.152 114.976 616.054 114.635 616.054 114.263C616.054 114.001 616.085 113.766 616.146 113.559C616.213 113.352 616.304 113.151 616.42 112.956C616.542 112.761 616.691 112.557 616.868 112.343L618.733 110.04H619.784L617.965 112.307C618.056 112.27 618.145 112.246 618.23 112.234C618.321 112.215 618.41 112.206 618.495 112.206C618.897 112.206 619.254 112.291 619.565 112.462C619.882 112.633 620.128 112.87 620.305 113.175C620.488 113.474 620.579 113.821 620.579 114.217C620.579 114.607 620.482 114.961 620.287 115.278C620.098 115.595 619.833 115.845 619.492 116.027C619.15 116.21 618.757 116.302 618.312 116.302ZM618.321 115.525C618.565 115.525 618.785 115.473 618.98 115.369C619.175 115.259 619.33 115.11 619.446 114.921C619.562 114.726 619.62 114.501 619.62 114.245C619.62 113.971 619.562 113.736 619.446 113.541C619.33 113.346 619.175 113.197 618.98 113.093C618.785 112.989 618.565 112.937 618.321 112.937C617.962 112.937 617.654 113.047 617.398 113.267C617.148 113.48 617.023 113.803 617.023 114.236C617.023 114.492 617.081 114.717 617.197 114.912C617.313 115.107 617.468 115.259 617.663 115.369C617.858 115.473 618.078 115.525 618.321 115.525ZM627.249 115.397V116.219L623.254 116.219V115.689L625.183 113.605C625.427 113.337 625.622 113.105 625.768 112.91C625.92 112.709 626.03 112.523 626.097 112.352C626.164 112.182 626.198 112.005 626.198 111.822C626.198 111.615 626.152 111.432 626.061 111.274C625.975 111.115 625.853 110.993 625.695 110.908C625.536 110.823 625.351 110.78 625.137 110.78C624.906 110.78 624.705 110.826 624.534 110.917C624.369 111.009 624.238 111.14 624.141 111.31C624.043 111.481 623.995 111.682 623.995 111.914H623.089C623.089 111.53 623.178 111.191 623.355 110.899C623.537 110.6 623.784 110.369 624.095 110.204C624.406 110.033 624.765 109.948 625.174 109.948C625.558 109.948 625.899 110.024 626.198 110.177C626.502 110.329 626.74 110.539 626.911 110.807C627.081 111.07 627.167 111.371 627.167 111.713C627.167 111.944 627.13 112.167 627.057 112.38C626.984 112.587 626.856 112.816 626.673 113.065C626.49 113.315 626.228 113.623 625.887 113.989L624.644 115.397L627.249 115.397ZM630.176 116.311C629.774 116.311 629.411 116.232 629.088 116.073C628.765 115.909 628.506 115.686 628.311 115.406C628.122 115.119 628.019 114.793 628 114.428H628.924C628.96 114.757 629.091 115.016 629.317 115.205C629.542 115.387 629.829 115.479 630.176 115.479C630.456 115.479 630.691 115.427 630.88 115.323C631.069 115.214 631.209 115.068 631.301 114.885C631.398 114.696 631.447 114.482 631.447 114.245C631.447 114.031 631.395 113.833 631.291 113.651C631.194 113.468 631.051 113.321 630.862 113.212C630.673 113.102 630.441 113.047 630.167 113.047C629.893 113.047 629.652 113.105 629.445 113.221C629.244 113.331 629.079 113.498 628.951 113.724L628.202 113.486L628.75 110.04L632.05 110.04V110.862L629.417 110.862L629.143 112.645C629.32 112.511 629.506 112.41 629.701 112.343C629.896 112.276 630.097 112.243 630.304 112.243C630.761 112.243 631.145 112.337 631.456 112.526C631.767 112.709 632.001 112.953 632.16 113.257C632.324 113.562 632.407 113.891 632.407 114.245C632.407 114.519 632.358 114.781 632.26 115.031C632.163 115.281 632.017 115.503 631.822 115.698C631.633 115.887 631.401 116.037 631.127 116.146C630.853 116.256 630.536 116.311 630.176 116.311ZM635.018 116.219H634.086V110.844L632.888 110.844V110.04L635.018 110.04V116.219Z" fill="#DAE6EA"/>
<mask id="mask3_1181_5841" style="mask-type:alpha" maskUnits="userSpaceOnUse" x="577" y="121" width="14" height="14">
<rect x="577.479" y="121.891" width="13.0595" height="13.0595" fill="#D9D9D9"/>
</mask>
<g mask="url(#mask3_1181_5841)">
<path d="M584.008 132.339C583.466 132.339 582.956 132.236 582.48 132.03C582.003 131.824 581.588 131.545 581.236 131.193C580.883 130.84 580.604 130.425 580.398 129.949C580.193 129.472 580.09 128.963 580.09 128.421C580.09 127.879 580.193 127.369 580.398 126.893C580.604 126.416 580.883 126.001 581.236 125.649C581.588 125.296 582.003 125.017 582.48 124.811C582.956 124.606 583.466 124.503 584.008 124.503C584.55 124.503 585.059 124.606 585.536 124.811C586.012 125.017 586.427 125.296 586.78 125.649C587.132 126.001 587.411 126.416 587.617 126.893C587.823 127.369 587.926 127.879 587.926 128.421C587.926 128.963 587.823 129.472 587.617 129.949C587.411 130.425 587.132 130.84 586.78 131.193C586.427 131.545 586.012 131.824 585.536 132.03C585.059 132.236 584.55 132.339 584.008 132.339ZM584.008 131.555C584.883 131.555 585.624 131.251 586.231 130.644C586.838 130.037 587.142 129.296 587.142 128.421C587.142 127.546 586.838 126.805 586.231 126.197C585.624 125.59 584.883 125.286 584.008 125.286C583.133 125.286 582.392 125.59 581.784 126.197C581.177 126.805 580.873 127.546 580.873 128.421C580.873 129.296 581.177 130.037 581.784 130.644C582.392 131.251 583.133 131.555 584.008 131.555ZM584.008 131.555C583.133 131.555 582.392 131.251 581.784 130.644C581.177 130.037 580.873 129.296 580.873 128.421C580.873 127.546 581.177 126.805 581.784 126.197C582.392 125.59 583.133 125.286 584.008 125.286C584.883 125.286 585.624 125.59 586.231 126.197C586.838 126.805 587.142 127.546 587.142 128.421C587.142 129.296 586.838 130.037 586.231 130.644C585.624 131.251 584.883 131.555 584.008 131.555Z" fill="#0EA766"/>
</g>
<path d="M598.306 130.583C598.306 131.168 598.108 131.622 597.712 131.945C597.322 132.262 596.804 132.421 596.158 132.421H593.891V125.857L596.021 125.857C596.655 125.857 597.148 126.003 597.502 126.296C597.861 126.588 598.041 127.006 598.041 127.548C598.041 127.871 597.944 128.164 597.749 128.426C597.56 128.688 597.298 128.88 596.962 129.002C597.407 129.111 597.743 129.303 597.968 129.578C598.194 129.852 598.306 130.187 598.306 130.583ZM595.984 126.414L594.531 126.414V128.755H595.984C596.429 128.755 596.77 128.651 597.008 128.444C597.252 128.237 597.374 127.95 597.374 127.585C597.374 127.219 597.252 126.933 597.008 126.725C596.77 126.518 596.429 126.414 595.984 126.414ZM596.121 129.312H594.531L594.531 131.863H596.121C596.603 131.863 596.978 131.75 597.246 131.525C597.514 131.293 597.648 130.973 597.648 130.565C597.648 130.169 597.514 129.861 597.246 129.642C596.978 129.422 596.603 129.312 596.121 129.312ZM604.066 132.421L600.235 126.826L600.235 132.421H599.595V125.857H600.354L604.148 131.378V125.857H604.797V132.421H604.066ZM610.698 130.583C610.698 131.168 610.499 131.622 610.103 131.945C609.713 132.262 609.195 132.421 608.549 132.421H606.282V125.857L608.412 125.857C609.046 125.857 609.54 126.003 609.893 126.296C610.253 126.588 610.432 127.006 610.432 127.548C610.432 127.871 610.335 128.164 610.14 128.426C609.951 128.688 609.689 128.88 609.354 129.002C609.799 129.111 610.134 129.303 610.359 129.578C610.585 129.852 610.698 130.187 610.698 130.583ZM608.376 126.414L606.922 126.414V128.755H608.376C608.82 128.755 609.162 128.651 609.399 128.444C609.643 128.237 609.765 127.95 609.765 127.585C609.765 127.219 609.643 126.933 609.399 126.725C609.162 126.518 608.82 126.414 608.376 126.414ZM608.513 129.312H606.922L606.922 131.863H608.513C608.994 131.863 609.369 131.75 609.637 131.525C609.905 131.293 610.039 130.973 610.039 130.565C610.039 130.169 609.905 129.861 609.637 129.642C609.369 129.422 608.994 129.312 608.513 129.312ZM613.001 131.89C613.001 132.055 612.947 132.192 612.837 132.302C612.733 132.411 612.596 132.466 612.426 132.466C612.261 132.466 612.124 132.411 612.014 132.302C611.904 132.192 611.85 132.055 611.85 131.89C611.85 131.72 611.904 131.58 612.014 131.47C612.124 131.36 612.261 131.305 612.426 131.305C612.596 131.305 612.733 131.36 612.837 131.47C612.947 131.58 613.001 131.72 613.001 131.89ZM613.001 128.17C613.001 128.334 612.947 128.471 612.837 128.581C612.733 128.691 612.596 128.746 612.426 128.746C612.261 128.746 612.124 128.691 612.014 128.581C611.904 128.471 611.85 128.334 611.85 128.17C611.85 127.999 611.904 127.859 612.014 127.749C612.124 127.639 612.261 127.585 612.426 127.585C612.596 127.585 612.733 127.639 612.837 127.749C612.947 127.859 613.001 127.999 613.001 128.17Z" fill="#DAE6EA"/>
<path d="M619.285 131.982C618.883 131.982 618.52 131.903 618.197 131.745C617.874 131.58 617.615 131.358 617.42 131.077C617.231 130.791 617.127 130.465 617.109 130.099H618.032C618.069 130.428 618.2 130.687 618.426 130.876C618.651 131.059 618.937 131.15 619.285 131.15C619.565 131.15 619.8 131.099 619.989 130.995C620.178 130.885 620.318 130.739 620.409 130.556C620.507 130.367 620.556 130.154 620.556 129.916C620.556 129.703 620.504 129.505 620.4 129.322C620.303 129.139 620.159 128.993 619.97 128.883C619.782 128.773 619.55 128.719 619.276 128.719C619.001 128.719 618.761 128.777 618.553 128.892C618.352 129.002 618.188 129.17 618.06 129.395L617.31 129.157L617.859 125.711L621.159 125.711V126.534L618.526 126.534L618.252 128.316C618.429 128.182 618.614 128.082 618.809 128.015C619.004 127.948 619.206 127.914 619.413 127.914C619.87 127.914 620.254 128.009 620.565 128.198C620.875 128.38 621.11 128.624 621.269 128.929C621.433 129.234 621.515 129.563 621.515 129.916C621.515 130.19 621.467 130.453 621.369 130.702C621.272 130.952 621.125 131.175 620.93 131.37C620.741 131.559 620.51 131.708 620.236 131.818C619.961 131.927 619.644 131.982 619.285 131.982ZM624.191 128.81C624.191 127.786 624.386 127 624.776 126.452C625.172 125.897 625.736 125.62 626.467 125.62C627.199 125.62 627.762 125.897 628.158 126.452C628.555 127 628.753 127.786 628.753 128.81C628.753 129.834 628.555 130.62 628.158 131.169C627.768 131.711 627.205 131.982 626.467 131.982C625.73 131.982 625.166 131.711 624.776 131.169C624.386 130.62 624.191 129.834 624.191 128.81ZM625.142 128.81C625.142 129.572 625.254 130.154 625.48 130.556C625.705 130.952 626.034 131.15 626.467 131.15C626.9 131.15 627.229 130.952 627.454 130.556C627.686 130.16 627.802 129.578 627.802 128.81C627.802 128.036 627.686 127.451 627.454 127.055C627.229 126.653 626.9 126.452 626.467 126.452C626.041 126.452 625.711 126.653 625.48 127.055C625.254 127.451 625.142 128.036 625.142 128.81ZM629.646 128.81C629.646 127.786 629.841 127 630.231 126.452C630.627 125.897 631.19 125.62 631.922 125.62C632.653 125.62 633.217 125.897 633.613 126.452C634.009 127 634.207 127.786 634.207 128.81C634.207 129.834 634.009 130.62 633.613 131.169C633.223 131.711 632.659 131.982 631.922 131.982C631.184 131.982 630.621 131.711 630.231 131.169C629.841 130.62 629.646 129.834 629.646 128.81ZM630.596 128.81C630.596 129.572 630.709 130.154 630.935 130.556C631.16 130.952 631.489 131.15 631.922 131.15C632.355 131.15 632.684 130.952 632.909 130.556C633.141 130.16 633.257 129.578 633.257 128.81C633.257 128.036 633.141 127.451 632.909 127.055C632.684 126.653 632.355 126.452 631.922 126.452C631.495 126.452 631.166 126.653 630.935 127.055C630.709 127.451 630.596 128.036 630.596 128.81ZM637.203 131.973C636.764 131.973 636.374 131.882 636.033 131.699C635.697 131.516 635.432 131.269 635.237 130.958C635.042 130.648 634.945 130.306 634.945 129.934C634.945 129.672 634.975 129.438 635.036 129.231C635.103 129.023 635.195 128.822 635.31 128.627C635.432 128.432 635.582 128.228 635.758 128.015L637.623 125.711H638.675L636.855 127.978C636.947 127.942 637.035 127.917 637.121 127.905C637.212 127.887 637.3 127.878 637.386 127.878C637.788 127.878 638.144 127.963 638.455 128.134C638.772 128.304 639.019 128.542 639.196 128.847C639.379 129.145 639.47 129.493 639.47 129.889C639.47 130.279 639.372 130.632 639.177 130.949C638.988 131.266 638.723 131.516 638.382 131.699C638.041 131.882 637.648 131.973 637.203 131.973ZM637.212 131.196C637.456 131.196 637.675 131.144 637.87 131.041C638.065 130.931 638.221 130.782 638.336 130.593C638.452 130.398 638.51 130.172 638.51 129.916C638.51 129.642 638.452 129.407 638.336 129.212C638.221 129.017 638.065 128.868 637.87 128.764C637.675 128.661 637.456 128.609 637.212 128.609C636.852 128.609 636.545 128.719 636.289 128.938C636.039 129.151 635.914 129.474 635.914 129.907C635.914 130.163 635.972 130.389 636.088 130.584C636.203 130.779 636.359 130.931 636.554 131.041C636.749 131.144 636.968 131.196 637.212 131.196Z" fill="#DAE6EA"/>
<mask id="mask4_1181_5841" style="mask-type:alpha" maskUnits="userSpaceOnUse" x="577" y="137" width="14" height="14">
<rect x="577.479" y="137.562" width="13.0595" height="13.0595" fill="#D9D9D9"/>
</mask>
<g mask="url(#mask4_1181_5841)">
<path d="M584.008 148.01C583.466 148.01 582.956 147.907 582.48 147.701C582.003 147.496 581.588 147.216 581.236 146.864C580.883 146.511 580.604 146.097 580.398 145.62C580.193 145.143 580.09 144.634 580.09 144.092C580.09 143.55 580.193 143.041 580.398 142.564C580.604 142.087 580.883 141.673 581.236 141.32C581.588 140.967 582.003 140.688 582.48 140.483C582.956 140.277 583.466 140.174 584.008 140.174C584.55 140.174 585.059 140.277 585.536 140.483C586.012 140.688 586.427 140.967 586.78 141.32C587.132 141.673 587.411 142.087 587.617 142.564C587.823 143.041 587.926 143.55 587.926 144.092C587.926 144.634 587.823 145.143 587.617 145.62C587.411 146.097 587.132 146.511 586.78 146.864C586.427 147.216 586.012 147.496 585.536 147.701C585.059 147.907 584.55 148.01 584.008 148.01ZM584.008 147.226C584.883 147.226 585.624 146.923 586.231 146.315C586.838 145.708 587.142 144.967 587.142 144.092C587.142 143.217 586.838 142.476 586.231 141.869C585.624 141.261 584.883 140.958 584.008 140.958C583.133 140.958 582.392 141.261 581.784 141.869C581.177 142.476 580.873 143.217 580.873 144.092C580.873 144.967 581.177 145.708 581.784 146.315C582.392 146.923 583.133 147.226 584.008 147.226ZM584.008 147.226C583.133 147.226 582.392 146.923 581.784 146.315C581.177 145.708 580.873 144.967 580.873 144.092C580.873 143.217 581.177 142.476 581.784 141.869C582.392 141.261 583.133 140.958 584.008 140.958C584.883 140.958 585.624 141.261 586.231 141.869C586.838 142.476 587.142 143.217 587.142 144.092C587.142 144.967 586.838 145.708 586.231 146.315C585.624 146.923 584.883 147.226 584.008 147.226Z" fill="#EC3B3B"/>
</g>
<path d="M596.213 148.092H595.536V142.141H593.333V141.528L598.416 141.528V142.141L596.213 142.141V148.092ZM603.277 147.498V148.092H599.337V141.528H603.213V142.123H600.022V144.408H602.938V145.002H600.022L600.022 147.498L603.277 147.498ZM606.872 148.092H606.196V142.141L603.993 142.141V141.528L609.075 141.528V142.141H606.872V148.092ZM610.682 148.092H609.996V141.528H610.682V144.408L614.411 144.408V141.528H615.097V148.092H614.411V145.002L610.682 145.002L610.682 148.092ZM620.515 147.498V148.092H616.575V141.528H620.452V142.123H617.261V144.408H620.177V145.002H617.261L617.261 147.498H620.515ZM622.475 148.092H621.789V141.528H624.129C624.83 141.528 625.382 141.702 625.784 142.049C626.186 142.391 626.387 142.878 626.387 143.512C626.387 144.006 626.235 144.426 625.93 144.774C625.632 145.115 625.223 145.328 624.705 145.414L626.561 148.092H625.738L623.974 145.496H622.475L622.475 148.092ZM622.475 142.104V144.92H624.074C624.574 144.92 624.97 144.801 625.263 144.563C625.555 144.32 625.702 143.969 625.702 143.512C625.702 143.055 625.555 142.708 625.263 142.47C624.97 142.226 624.574 142.104 624.074 142.104H622.475ZM628.624 147.562C628.624 147.726 628.57 147.863 628.46 147.973C628.356 148.083 628.219 148.138 628.049 148.138C627.884 148.138 627.747 148.083 627.637 147.973C627.527 147.863 627.473 147.726 627.473 147.562C627.473 147.391 627.527 147.251 627.637 147.141C627.747 147.032 627.884 146.977 628.049 146.977C628.219 146.977 628.356 147.032 628.46 147.141C628.57 147.251 628.624 147.391 628.624 147.562ZM628.624 143.841C628.624 144.006 628.57 144.143 628.46 144.253C628.356 144.362 628.219 144.417 628.049 144.417C627.884 144.417 627.747 144.362 627.637 144.253C627.527 144.143 627.473 144.006 627.473 143.841C627.473 143.67 627.527 143.53 627.637 143.421C627.747 143.311 627.884 143.256 628.049 143.256C628.219 143.256 628.356 143.311 628.46 143.421C628.57 143.53 628.624 143.67 628.624 143.841Z" fill="#DAE6EA"/>
<path d="M635.358 147.645C634.931 147.645 634.553 147.568 634.224 147.416C633.895 147.258 633.639 147.041 633.456 146.767C633.274 146.487 633.179 146.167 633.173 145.807H634.078C634.096 146.142 634.221 146.41 634.453 146.612C634.685 146.807 634.986 146.904 635.358 146.904C635.748 146.904 636.053 146.807 636.272 146.612C636.498 146.416 636.61 146.151 636.61 145.816C636.61 145.493 636.485 145.237 636.236 145.048C635.986 144.853 635.647 144.756 635.221 144.756H634.581V144.015H635.175C635.407 144.015 635.608 143.973 635.778 143.887C635.955 143.802 636.089 143.683 636.181 143.531C636.278 143.378 636.327 143.205 636.327 143.01C636.327 142.717 636.233 142.483 636.044 142.306C635.855 142.123 635.605 142.032 635.294 142.032C634.977 142.032 634.721 142.126 634.526 142.315C634.337 142.498 634.234 142.748 634.215 143.065H633.319C633.332 142.723 633.423 142.419 633.594 142.15C633.77 141.882 634.011 141.672 634.316 141.52C634.621 141.367 634.959 141.291 635.331 141.291C635.727 141.291 636.071 141.361 636.364 141.501C636.656 141.641 636.882 141.837 637.04 142.086C637.205 142.33 637.287 142.617 637.287 142.946C637.287 143.244 637.198 143.512 637.022 143.75C636.851 143.988 636.607 144.183 636.29 144.335C636.699 144.445 637.013 144.628 637.232 144.884C637.457 145.134 637.57 145.438 637.57 145.798C637.57 146.164 637.476 146.487 637.287 146.767C637.104 147.041 636.845 147.258 636.51 147.416C636.181 147.568 635.797 147.645 635.358 147.645ZM642.518 147.645C642.091 147.645 641.713 147.568 641.384 147.416C641.055 147.258 640.799 147.041 640.616 146.767C640.433 146.487 640.339 146.167 640.333 145.807H641.238C641.256 146.142 641.381 146.41 641.613 146.612C641.844 146.807 642.146 146.904 642.518 146.904C642.908 146.904 643.213 146.807 643.432 146.612C643.657 146.416 643.77 146.151 643.77 145.816C643.77 145.493 643.645 145.237 643.395 145.048C643.145 144.853 642.807 144.756 642.381 144.756H641.741V144.015H642.335C642.566 144.015 642.768 143.973 642.938 143.887C643.115 143.802 643.249 143.683 643.34 143.531C643.438 143.378 643.487 143.205 643.487 143.01C643.487 142.717 643.392 142.483 643.203 142.306C643.014 142.123 642.765 142.032 642.454 142.032C642.137 142.032 641.881 142.126 641.686 142.315C641.497 142.498 641.393 142.748 641.375 143.065H640.479C640.491 142.723 640.583 142.419 640.753 142.15C640.93 141.882 641.171 141.672 641.476 141.52C641.78 141.367 642.119 141.291 642.49 141.291C642.886 141.291 643.231 141.361 643.523 141.501C643.816 141.641 644.041 141.837 644.2 142.086C644.364 142.33 644.447 142.617 644.447 142.946C644.447 143.244 644.358 143.512 644.182 143.75C644.011 143.988 643.767 144.183 643.45 144.335C643.859 144.445 644.172 144.628 644.392 144.884C644.617 145.134 644.73 145.438 644.73 145.798C644.73 146.164 644.636 146.487 644.447 146.767C644.264 147.041 644.005 147.258 643.67 147.416C643.34 147.568 642.957 147.645 642.518 147.645ZM650.09 145.825C650.09 146.185 649.996 146.502 649.807 146.776C649.618 147.05 649.353 147.264 649.012 147.416C648.676 147.568 648.283 147.645 647.832 147.645C647.381 147.645 646.985 147.568 646.644 147.416C646.303 147.264 646.034 147.05 645.839 146.776C645.651 146.502 645.556 146.185 645.556 145.825C645.556 145.454 645.669 145.143 645.894 144.893C646.12 144.643 646.394 144.46 646.717 144.344C646.455 144.229 646.236 144.055 646.059 143.823C645.888 143.592 645.803 143.317 645.803 143.001C645.803 142.665 645.888 142.37 646.059 142.114C646.236 141.858 646.476 141.657 646.781 141.51C647.086 141.364 647.436 141.291 647.832 141.291C648.222 141.291 648.57 141.364 648.874 141.51C649.179 141.657 649.417 141.858 649.588 142.114C649.764 142.37 649.853 142.665 649.853 143.001C649.853 143.317 649.764 143.592 649.588 143.823C649.411 144.055 649.194 144.229 648.938 144.344C649.261 144.46 649.533 144.643 649.752 144.893C649.978 145.143 650.09 145.454 650.09 145.825ZM646.754 143.028C646.754 143.333 646.851 143.57 647.046 143.741C647.247 143.912 647.509 143.997 647.832 143.997C648.149 143.997 648.405 143.912 648.6 143.741C648.801 143.57 648.902 143.333 648.902 143.028C648.902 142.717 648.801 142.473 648.6 142.297C648.405 142.12 648.149 142.032 647.832 142.032C647.509 142.032 647.247 142.12 647.046 142.297C646.851 142.473 646.754 142.717 646.754 143.028ZM646.525 145.807C646.525 146.033 646.58 146.228 646.69 146.392C646.799 146.557 646.952 146.685 647.147 146.776C647.342 146.861 647.57 146.904 647.832 146.904C648.088 146.904 648.314 146.861 648.509 146.776C648.71 146.685 648.865 146.557 648.975 146.392C649.085 146.228 649.14 146.033 649.14 145.807C649.14 145.582 649.085 145.39 648.975 145.231C648.865 145.073 648.71 144.951 648.509 144.865C648.314 144.78 648.088 144.737 647.832 144.737C647.57 144.737 647.342 144.78 647.147 144.865C646.952 144.951 646.799 145.073 646.69 145.231C646.58 145.39 646.525 145.582 646.525 145.807ZM655.393 145.825C655.393 146.185 655.299 146.502 655.11 146.776C654.921 147.05 654.656 147.264 654.315 147.416C653.979 147.568 653.586 147.645 653.135 147.645C652.684 147.645 652.288 147.568 651.947 147.416C651.606 147.264 651.337 147.05 651.142 146.776C650.953 146.502 650.859 146.185 650.859 145.825C650.859 145.454 650.972 145.143 651.197 144.893C651.423 144.643 651.697 144.46 652.02 144.344C651.758 144.229 651.538 144.055 651.362 143.823C651.191 143.592 651.106 143.317 651.106 143.001C651.106 142.665 651.191 142.37 651.362 142.114C651.538 141.858 651.779 141.657 652.084 141.51C652.389 141.364 652.739 141.291 653.135 141.291C653.525 141.291 653.873 141.364 654.177 141.51C654.482 141.657 654.72 141.858 654.89 142.114C655.067 142.37 655.156 142.665 655.156 143.001C655.156 143.317 655.067 143.592 654.89 143.823C654.714 144.055 654.497 144.229 654.241 144.344C654.564 144.46 654.836 144.643 655.055 144.893C655.28 145.143 655.393 145.454 655.393 145.825ZM652.057 143.028C652.057 143.333 652.154 143.57 652.349 143.741C652.55 143.912 652.812 143.997 653.135 143.997C653.452 143.997 653.708 143.912 653.903 143.741C654.104 143.57 654.205 143.333 654.205 143.028C654.205 142.717 654.104 142.473 653.903 142.297C653.708 142.12 653.452 142.032 653.135 142.032C652.812 142.032 652.55 142.12 652.349 142.297C652.154 142.473 652.057 142.717 652.057 143.028ZM651.828 145.807C651.828 146.033 651.883 146.228 651.993 146.392C652.102 146.557 652.255 146.685 652.45 146.776C652.645 146.861 652.873 146.904 653.135 146.904C653.391 146.904 653.617 146.861 653.812 146.776C654.013 146.685 654.168 146.557 654.278 146.392C654.388 146.228 654.442 146.033 654.442 145.807C654.442 145.582 654.388 145.39 654.278 145.231C654.168 145.073 654.013 144.951 653.812 144.865C653.617 144.78 653.391 144.737 653.135 144.737C652.873 144.737 652.645 144.78 652.45 144.865C652.255 144.951 652.102 145.073 651.993 145.231C651.883 145.39 651.828 145.582 651.828 145.807Z" fill="#DAE6EA"/>
<mask id="mask5_1181_5841" style="mask-type:alpha" maskUnits="userSpaceOnUse" x="577" y="153" width="14" height="14">
<rect x="577.479" y="153.234" width="13.0595" height="13.0595" fill="#7189B8"/>
</mask>
<g mask="url(#mask5_1181_5841)">
<path d="M584.008 163.681C583.466 163.681 582.956 163.578 582.48 163.373C582.003 163.167 581.588 162.888 581.236 162.535C580.883 162.183 580.604 161.768 580.398 161.291C580.193 160.815 580.09 160.305 580.09 159.763C580.09 159.221 580.193 158.712 580.398 158.235C580.604 157.759 580.883 157.344 581.236 156.991C581.588 156.639 582.003 156.36 582.48 156.154C582.956 155.948 583.466 155.846 584.008 155.846C584.55 155.846 585.059 155.948 585.536 156.154C586.012 156.36 586.427 156.639 586.78 156.991C587.132 157.344 587.411 157.759 587.617 158.235C587.823 158.712 587.926 159.221 587.926 159.763C587.926 160.305 587.823 160.815 587.617 161.291C587.411 161.768 587.132 162.183 586.78 162.535C586.427 162.888 586.012 163.167 585.536 163.373C585.059 163.578 584.55 163.681 584.008 163.681ZM584.008 162.898C584.883 162.898 585.624 162.594 586.231 161.987C586.838 161.379 587.142 160.638 587.142 159.763C587.142 158.888 586.838 158.147 586.231 157.54C585.624 156.933 584.883 156.629 584.008 156.629C583.133 156.629 582.392 156.933 581.784 157.54C581.177 158.147 580.873 158.888 580.873 159.763C580.873 160.638 581.177 161.379 581.784 161.987C582.392 162.594 583.133 162.898 584.008 162.898ZM584.008 162.898C583.133 162.898 582.392 162.594 581.784 161.987C581.177 161.379 580.873 160.638 580.873 159.763C580.873 158.888 581.177 158.147 581.784 157.54C582.392 156.933 583.133 156.629 584.008 156.629C584.883 156.629 585.624 156.933 586.231 157.54C586.838 158.147 587.142 158.888 587.142 159.763C587.142 160.638 586.838 161.379 586.231 161.987C585.624 162.594 584.883 162.898 584.008 162.898Z" fill="#7189B8"/>
</g>
<path d="M598.489 161.944C598.489 162.292 598.398 162.612 598.215 162.904C598.032 163.191 597.764 163.422 597.41 163.599C597.057 163.77 596.624 163.855 596.112 163.855C595.6 163.855 595.162 163.767 594.796 163.59C594.436 163.413 594.156 163.169 593.955 162.858C593.76 162.542 593.65 162.176 593.626 161.761H594.321C594.357 162.225 594.522 162.596 594.814 162.877C595.107 163.157 595.536 163.297 596.103 163.297C596.414 163.297 596.694 163.248 596.944 163.151C597.2 163.047 597.401 162.901 597.548 162.712C597.694 162.517 597.767 162.292 597.767 162.036C597.767 161.694 597.663 161.438 597.456 161.268C597.249 161.091 596.914 160.954 596.451 160.856L595.619 160.692C595.399 160.649 595.183 160.588 594.97 160.509C594.762 160.43 594.573 160.326 594.403 160.198C594.232 160.064 594.095 159.9 593.991 159.705C593.888 159.503 593.836 159.26 593.836 158.973C593.836 158.62 593.93 158.303 594.119 158.022C594.308 157.742 594.57 157.52 594.906 157.355C595.241 157.191 595.628 157.108 596.067 157.108C596.499 157.108 596.886 157.194 597.228 157.364C597.569 157.535 597.846 157.773 598.059 158.077C598.273 158.382 598.389 158.745 598.407 159.165H597.703C597.691 158.873 597.612 158.614 597.465 158.388C597.325 158.163 597.136 157.986 596.898 157.858C596.667 157.73 596.393 157.666 596.076 157.666C595.741 157.666 595.457 157.727 595.226 157.849C595 157.971 594.826 158.126 594.704 158.315C594.589 158.504 594.531 158.711 594.531 158.937C594.531 159.193 594.595 159.397 594.723 159.549C594.857 159.702 595.027 159.82 595.235 159.906C595.448 159.985 595.677 160.049 595.92 160.098L596.752 160.271C597.307 160.387 597.733 160.573 598.032 160.829C598.337 161.079 598.489 161.451 598.489 161.944ZM602.521 163.901C602.046 163.901 601.607 163.812 601.205 163.635C600.802 163.459 600.452 163.215 600.153 162.904C599.855 162.593 599.623 162.231 599.459 161.816C599.294 161.396 599.212 160.948 599.212 160.472C599.212 159.997 599.294 159.552 599.459 159.138C599.623 158.723 599.855 158.361 600.153 158.05C600.452 157.739 600.802 157.498 601.205 157.328C601.607 157.151 602.046 157.063 602.521 157.063C602.996 157.063 603.435 157.151 603.837 157.328C604.24 157.498 604.59 157.739 604.889 158.05C605.193 158.361 605.428 158.723 605.593 159.138C605.757 159.552 605.839 159.997 605.839 160.472C605.839 160.948 605.757 161.396 605.593 161.816C605.428 162.231 605.193 162.593 604.889 162.904C604.59 163.215 604.24 163.459 603.837 163.635C603.435 163.812 602.996 163.901 602.521 163.901ZM602.521 163.288C602.911 163.288 603.265 163.218 603.581 163.078C603.898 162.932 604.173 162.73 604.404 162.474C604.636 162.212 604.813 161.911 604.934 161.569C605.062 161.228 605.126 160.863 605.126 160.472C605.126 160.082 605.062 159.717 604.934 159.375C604.813 159.034 604.636 158.739 604.404 158.489C604.173 158.233 603.898 158.035 603.581 157.895C603.265 157.748 602.911 157.675 602.521 157.675C602.137 157.675 601.784 157.748 601.461 157.895C601.144 158.035 600.869 158.233 600.638 158.489C600.406 158.739 600.226 159.034 600.098 159.375C599.977 159.717 599.916 160.082 599.916 160.472C599.916 160.863 599.977 161.228 600.098 161.569C600.226 161.911 600.406 162.212 600.638 162.474C600.869 162.73 601.144 162.932 601.461 163.078C601.784 163.218 602.137 163.288 602.521 163.288ZM610.682 163.763H606.934V157.2H607.619L607.619 163.151H610.682V163.763ZM612.56 161.387L615.733 161.387L615.925 161.944L612.286 161.944L612.56 161.387ZM616.327 163.763L614.114 157.931L611.884 163.763H611.207L613.758 157.2H614.508L617.049 163.763H616.327ZM622.501 163.763L618.671 158.169L618.671 163.763H618.031V157.2H618.789L622.583 162.721V157.2H623.232V163.763H622.501ZM625.577 161.387H628.749L628.941 161.944L625.302 161.944L625.577 161.387ZM629.343 163.763L627.131 157.931L624.9 163.763H624.224L626.774 157.2H627.524L630.065 163.763L629.343 163.763ZM632.062 163.233C632.062 163.398 632.007 163.535 631.897 163.645C631.793 163.754 631.656 163.809 631.486 163.809C631.321 163.809 631.184 163.754 631.074 163.645C630.965 163.535 630.91 163.398 630.91 163.233C630.91 163.063 630.965 162.922 631.074 162.813C631.184 162.703 631.321 162.648 631.486 162.648C631.656 162.648 631.793 162.703 631.897 162.813C632.007 162.922 632.062 163.063 632.062 163.233ZM632.062 159.513C632.062 159.677 632.007 159.814 631.897 159.924C631.793 160.034 631.656 160.089 631.486 160.089C631.321 160.089 631.184 160.034 631.074 159.924C630.965 159.814 630.91 159.677 630.91 159.513C630.91 159.342 630.965 159.202 631.074 159.092C631.184 158.982 631.321 158.928 631.486 158.928C631.656 158.928 631.793 158.982 631.897 159.092C632.007 159.202 632.062 159.342 632.062 159.513Z" fill="#DAE6EA"/>
<path d="M640.232 162.411V163.234L636.237 163.234V162.703L638.166 160.619C638.41 160.351 638.605 160.119 638.751 159.924C638.903 159.723 639.013 159.537 639.08 159.367C639.147 159.196 639.181 159.019 639.181 158.837C639.181 158.629 639.135 158.447 639.044 158.288C638.958 158.13 638.836 158.008 638.678 157.922C638.519 157.837 638.334 157.794 638.12 157.794C637.889 157.794 637.688 157.84 637.517 157.932C637.352 158.023 637.221 158.154 637.124 158.325C637.026 158.495 636.978 158.696 636.978 158.928H636.073C636.073 158.544 636.161 158.206 636.338 157.913C636.52 157.615 636.767 157.383 637.078 157.218C637.389 157.048 637.749 156.963 638.157 156.963C638.541 156.963 638.882 157.039 639.181 157.191C639.485 157.343 639.723 157.554 639.894 157.822C640.064 158.084 640.15 158.386 640.15 158.727C640.15 158.958 640.113 159.181 640.04 159.394C639.967 159.601 639.839 159.83 639.656 160.08C639.473 160.33 639.211 160.637 638.87 161.003L637.627 162.411L640.232 162.411ZM644.841 163.234H643.909V157.858H642.711V157.054H644.841V163.234ZM649.862 157.593L647.476 163.234H646.479L648.829 157.886L645.693 157.886V157.054L649.862 157.054V157.593ZM652.515 163.325C652.113 163.325 651.75 163.246 651.427 163.087C651.104 162.923 650.845 162.7 650.65 162.42C650.461 162.134 650.358 161.808 650.339 161.442H651.263C651.299 161.771 651.43 162.03 651.656 162.219C651.881 162.402 652.168 162.493 652.515 162.493C652.795 162.493 653.03 162.441 653.219 162.338C653.408 162.228 653.548 162.082 653.64 161.899C653.737 161.71 653.786 161.497 653.786 161.259C653.786 161.046 653.734 160.848 653.63 160.665C653.533 160.482 653.39 160.336 653.201 160.226C653.012 160.116 652.78 160.062 652.506 160.062C652.232 160.062 651.991 160.119 651.784 160.235C651.583 160.345 651.418 160.513 651.29 160.738L650.541 160.5L651.089 157.054H654.389V157.877H651.756L651.482 159.659C651.659 159.525 651.845 159.425 652.04 159.358C652.235 159.291 652.436 159.257 652.643 159.257C653.1 159.257 653.484 159.352 653.795 159.54C654.106 159.723 654.34 159.967 654.499 160.272C654.663 160.577 654.746 160.906 654.746 161.259C654.746 161.533 654.697 161.795 654.599 162.045C654.502 162.295 654.356 162.518 654.161 162.713C653.972 162.902 653.74 163.051 653.466 163.161C653.192 163.27 652.875 163.325 652.515 163.325Z" fill="#DAE6EA"/>
</g>
<defs>
<filter id="filter0_d_1181_5841" x="563.113" y="61.5705" width="107.089" height="119.495" filterUnits="userSpaceOnUse" color-interpolation-filters="sRGB">
<feFlood flood-opacity="0" result="BackgroundImageFix"/>
<feColorMatrix in="SourceAlpha" type="matrix" values="0 0 0 0 0 0 0 0 0 0 0 0 0 0 0 0 0 0 127 0" result="hardAlpha"/>
<feOffset/>
<feGaussianBlur stdDeviation="3.26488"/>
<feComposite in2="hardAlpha" operator="out"/>
<feColorMatrix type="matrix" values="0 0 0 0 0 0 0 0 0 0 0 0 0 0 0 0 0 0 0.5 0"/>
<feBlend mode="normal" in2="BackgroundImageFix" result="effect1_dropShadow_1181_5841"/>
<feBlend mode="normal" in="SourceGraphic" in2="effect1_dropShadow_1181_5841" result="shape"/>
</filter>
</defs>
</svg>
