<svg width="522" height="302" viewBox="0 0 522 302" fill="none" xmlns="http://www.w3.org/2000/svg">
<rect y="0.753387" width="521.674" height="507.343" rx="13.2255" fill="#050E27"/>
<rect x="0.206648" y="0.960036" width="521.261" height="506.929" rx="13.0188" stroke="#DAE6EA" stroke-opacity="0.2" stroke-width="0.413297"/>
<path d="M23.1724 36.8178H21.3539V24.948H23.1724V29.9075H29.19V24.948H31.0085V36.8178H29.19V31.4946H23.1724V36.8178ZM35.1289 36.8178H33.4591V28.056H35.1289V36.8178ZM35.4926 26.0225C35.4926 26.3311 35.3768 26.5956 35.1454 26.8161C34.925 27.0255 34.6384 27.1302 34.2857 27.1302C33.922 27.1302 33.6245 27.0255 33.393 26.8161C33.1726 26.5956 33.0624 26.3311 33.0624 26.0225C33.0624 25.6919 33.1726 25.4274 33.393 25.229C33.6245 25.0196 33.922 24.9149 34.2857 24.9149C34.6384 24.9149 34.925 25.0196 35.1454 25.229C35.3768 25.4274 35.4926 25.6919 35.4926 26.0225ZM44.3902 34.2058C44.3902 35.0655 44.0706 35.7433 43.4313 36.2392C42.7921 36.7352 41.8884 36.9832 40.7201 36.9832C39.5739 36.9832 38.6647 36.7131 37.9924 36.1731C37.3311 35.6331 36.9564 34.8946 36.8682 33.9578H38.4718C38.4938 34.5089 38.7087 34.9442 39.1165 35.2638C39.5353 35.5724 40.0809 35.7267 40.7532 35.7267C41.3373 35.7267 41.8057 35.622 42.1584 35.4126C42.5221 35.2032 42.7039 34.8946 42.7039 34.4868C42.7039 34.1231 42.5827 33.8476 42.3402 33.6603C42.1088 33.4729 41.7175 33.3296 41.1665 33.2304L39.7447 32.9659C38.9402 32.8116 38.3175 32.5306 37.8766 32.1228C37.4358 31.704 37.2154 31.1639 37.2154 30.5027C37.2154 29.9847 37.3531 29.5328 37.6287 29.1471C37.9152 28.7503 38.312 28.4417 38.819 28.2213C39.3259 28.0008 39.9156 27.8906 40.5879 27.8906C41.2932 27.8906 41.9104 28.0119 42.4394 28.2543C42.9684 28.4858 43.3928 28.8219 43.7124 29.2628C44.032 29.6926 44.2139 30.2106 44.2579 30.8168H42.6543C42.5992 30.2988 42.3898 29.891 42.0261 29.5934C41.6624 29.2958 41.1885 29.1471 40.6044 29.1471C40.0754 29.1471 39.6455 29.2573 39.3149 29.4777C38.9953 29.6871 38.8355 29.9792 38.8355 30.3539C38.8355 30.7066 38.9512 30.9766 39.1827 31.1639C39.4251 31.3403 39.8109 31.4836 40.3399 31.5938L41.8278 31.8748C42.6984 32.0291 43.3432 32.2991 43.762 32.6849C44.1808 33.0706 44.3902 33.5776 44.3902 34.2058ZM51.0432 35.1977V36.6691C50.7897 36.7903 50.5418 36.8729 50.2993 36.917C50.0679 36.9611 49.8199 36.9832 49.5554 36.9832C49.0153 36.9832 48.5359 36.884 48.1171 36.6856C47.7093 36.4872 47.3897 36.1786 47.1582 35.7598C46.9268 35.341 46.8111 34.812 46.8111 34.1727V29.4777H44.8768V28.056H46.8111V25.4604H48.4808V28.056H51.1259V29.4777H48.4808V33.7925C48.4808 34.3987 48.613 34.823 48.8776 35.0655C49.1531 35.3079 49.5113 35.4292 49.9521 35.4292C50.1505 35.4292 50.3379 35.4126 50.5142 35.3796C50.7016 35.3355 50.8779 35.2749 51.0432 35.1977ZM56.1473 36.9832C55.5301 36.9832 54.957 36.8729 54.428 36.6525C53.91 36.4211 53.4581 36.1015 53.0724 35.6937C52.6866 35.2749 52.3836 34.7899 52.1631 34.2389C51.9537 33.6878 51.849 33.0871 51.849 32.4369C51.849 31.7866 51.9537 31.186 52.1631 30.6349C52.3836 30.0839 52.6866 29.6044 53.0724 29.1966C53.4581 28.7778 53.91 28.4582 54.428 28.2378C54.957 28.0064 55.5301 27.8906 56.1473 27.8906C56.7755 27.8906 57.3486 28.0064 57.8666 28.2378C58.3957 28.4582 58.8475 28.7778 59.2222 29.1966C59.608 29.6044 59.9056 30.0839 60.115 30.6349C60.3354 31.186 60.4456 31.7866 60.4456 32.4369C60.4456 33.0871 60.3354 33.6878 60.115 34.2389C59.9056 34.7899 59.608 35.2749 59.2222 35.6937C58.8475 36.1015 58.3957 36.4211 57.8666 36.6525C57.3486 36.8729 56.7755 36.9832 56.1473 36.9832ZM56.1473 35.5118C56.6323 35.5118 57.0676 35.3906 57.4533 35.1481C57.8501 34.8946 58.1587 34.5364 58.3791 34.0736C58.6106 33.6107 58.7263 33.0651 58.7263 32.4369C58.7263 31.7977 58.6106 31.2521 58.3791 30.8002C58.1587 30.3373 57.8501 29.9847 57.4533 29.7422C57.0676 29.4997 56.6323 29.3785 56.1473 29.3785C55.6734 29.3785 55.2381 29.4997 54.8413 29.7422C54.4556 29.9847 54.147 30.3373 53.9155 30.8002C53.6951 31.2521 53.5849 31.7977 53.5849 32.4369C53.5849 33.0651 53.6951 33.6107 53.9155 34.0736C54.147 34.5364 54.4556 34.8946 54.8413 35.1481C55.2381 35.3906 55.6734 35.5118 56.1473 35.5118ZM63.8175 32.3377V36.8178H62.1477V28.056H63.7017V29.9075C64.0103 29.3014 64.4677 28.8219 65.0739 28.4692C65.6911 28.1166 66.3579 27.9402 67.0742 27.9402V29.6761C66.446 29.643 65.8839 29.7146 65.388 29.891C64.9031 30.0673 64.5173 30.3594 64.2308 30.7672C63.9552 31.1639 63.8175 31.6875 63.8175 32.3377ZM70.0653 36.8178H68.3956V28.056H70.0653V36.8178ZM70.429 26.0225C70.429 26.3311 70.3133 26.5956 70.0819 26.8161C69.8614 27.0255 69.5749 27.1302 69.2222 27.1302C68.8585 27.1302 68.5609 27.0255 68.3295 26.8161C68.1091 26.5956 67.9989 26.3311 67.9989 26.0225C67.9989 25.6919 68.1091 25.4274 68.3295 25.229C68.5609 25.0196 68.8585 24.9149 69.2222 24.9149C69.5749 24.9149 69.8614 25.0196 70.0819 25.229C70.3133 25.4274 70.429 25.6919 70.429 26.0225ZM75.8384 36.9997C75.0339 36.9997 74.323 36.8068 73.7058 36.4211C73.0997 36.0353 72.6202 35.5008 72.2676 34.8175C71.9259 34.1231 71.7551 33.3296 71.7551 32.4369C71.7551 31.5552 71.9314 30.7727 72.2841 30.0894C72.6368 29.4061 73.1217 28.8715 73.7389 28.4858C74.3561 28.089 75.0559 27.8906 75.8384 27.8906C76.5659 27.8906 77.2106 28.0449 77.7727 28.3535C78.3458 28.6511 78.8142 29.0809 79.1779 29.643C79.5526 30.1941 79.7896 30.8498 79.8888 31.6103H78.1364C78.0482 30.9049 77.8002 30.3539 77.3924 29.9571C76.9847 29.5604 76.4722 29.362 75.855 29.362C75.37 29.362 74.9512 29.4942 74.5986 29.7587C74.2459 30.0122 73.9703 30.3649 73.772 30.8168C73.5736 31.2686 73.4744 31.8087 73.4744 32.4369C73.4744 33.0541 73.5736 33.5941 73.772 34.057C73.9703 34.5199 74.2459 34.8781 74.5986 35.1316C74.9512 35.3851 75.37 35.5118 75.855 35.5118C76.4832 35.5118 76.9957 35.3134 77.3924 34.9167C77.8002 34.5199 78.0537 33.9688 78.1529 33.2635H79.8888C79.8006 34.035 79.5747 34.7018 79.211 35.2638C78.8472 35.8149 78.3788 36.2447 77.8057 36.5533C77.2326 36.8509 76.5769 36.9997 75.8384 36.9997ZM86.8762 36.8178V35.4622C86.6006 35.9472 86.2259 36.3219 85.752 36.5864C85.2781 36.8509 84.716 36.9832 84.0658 36.9832C83.162 36.9832 82.4346 36.7462 81.8836 36.2723C81.3325 35.7874 81.057 35.1426 81.057 34.3381C81.057 33.4784 81.3931 32.8282 82.0654 32.3873C82.7487 31.9465 83.7406 31.726 85.0411 31.726C85.2946 31.726 85.5426 31.7315 85.7851 31.7426C86.0275 31.7536 86.3251 31.7811 86.6778 31.8252V31.1805C86.6778 30.5633 86.518 30.0839 86.1984 29.7422C85.8788 29.3895 85.4269 29.2132 84.8428 29.2132C84.2366 29.2132 83.7517 29.3895 83.388 29.7422C83.0353 30.0839 82.8479 30.5578 82.8259 31.1639H81.3049C81.327 30.5027 81.4868 29.9296 81.7844 29.4446C82.093 28.9487 82.5063 28.5684 83.0243 28.3039C83.5533 28.0284 84.1594 27.8906 84.8428 27.8906C85.9228 27.8906 86.7605 28.1827 87.3556 28.7668C87.9618 29.3399 88.2649 30.15 88.2649 31.197V36.8178H86.8762ZM82.644 34.2885C82.644 34.7403 82.8038 35.104 83.1234 35.3796C83.4431 35.6551 83.8674 35.7929 84.3964 35.7929C85.1018 35.7929 85.6583 35.5945 86.0661 35.1977C86.4739 34.7899 86.6778 34.2499 86.6778 33.5776V32.8667C86.3582 32.8337 86.0771 32.8116 85.8347 32.8006C85.5922 32.7786 85.3608 32.7675 85.1403 32.7675C84.3027 32.7675 83.6745 32.8943 83.2557 33.1478C82.8479 33.3902 82.644 33.7705 82.644 34.2885ZM92.1836 36.8178H90.4973V24.948H92.1836V36.8178ZM103.511 36.8178L99.758 27.7418V36.8178H98.0883V24.948H100.32L104.304 34.586L108.272 24.948H110.52V36.8178H108.834V27.7253L105.065 36.8178H103.511ZM118.261 36.8178V35.4622C117.985 35.9472 117.611 36.3219 117.137 36.5864C116.663 36.8509 116.101 36.9832 115.45 36.9832C114.547 36.9832 113.819 36.7462 113.268 36.2723C112.717 35.7874 112.442 35.1426 112.442 34.3381C112.442 33.4784 112.778 32.8282 113.45 32.3873C114.133 31.9465 115.125 31.726 116.426 31.726C116.679 31.726 116.927 31.7315 117.17 31.7426C117.412 31.7536 117.71 31.7811 118.063 31.8252V31.1805C118.063 30.5633 117.903 30.0839 117.583 29.7422C117.263 29.3895 116.812 29.2132 116.227 29.2132C115.621 29.2132 115.136 29.3895 114.773 29.7422C114.42 30.0839 114.233 30.5578 114.211 31.1639H112.69C112.712 30.5027 112.872 29.9296 113.169 29.4446C113.478 28.9487 113.891 28.5684 114.409 28.3039C114.938 28.0284 115.544 27.8906 116.227 27.8906C117.308 27.8906 118.145 28.1827 118.74 28.7668C119.346 29.3399 119.65 30.15 119.65 31.197V36.8178H118.261ZM114.029 34.2885C114.029 34.7403 114.189 35.104 114.508 35.3796C114.828 35.6551 115.252 35.7929 115.781 35.7929C116.486 35.7929 117.043 35.5945 117.451 35.1977C117.859 34.7899 118.063 34.2499 118.063 33.5776V32.8667C117.743 32.8337 117.462 32.8116 117.219 32.8006C116.977 32.7786 116.745 32.7675 116.525 32.7675C115.687 32.7675 115.059 32.8943 114.64 33.1478C114.233 33.3902 114.029 33.7705 114.029 34.2885ZM123.552 32.3377V36.8178H121.882V28.056H123.436V29.9075C123.745 29.3014 124.202 28.8219 124.808 28.4692C125.425 28.1166 126.092 27.9402 126.809 27.9402V29.6761C126.18 29.643 125.618 29.7146 125.122 29.891C124.637 30.0673 124.252 30.3594 123.965 30.7672C123.69 31.1639 123.552 31.6875 123.552 32.3377ZM129.8 36.8178H128.13V24.948H129.8V31.974L133.552 28.056H135.52L131.469 32.3046L135.9 36.8178H133.751L129.8 32.6683V36.8178ZM140.274 36.9832C139.426 36.9832 138.682 36.7958 138.042 36.4211C137.414 36.0353 136.924 35.4953 136.571 34.801C136.218 34.1066 136.042 33.3021 136.042 32.3873C136.042 31.5166 136.224 30.7451 136.588 30.0728C136.951 29.4005 137.447 28.8715 138.076 28.4858C138.704 28.089 139.42 27.8906 140.225 27.8906C140.886 27.8906 141.476 28.0174 141.994 28.2709C142.523 28.5133 142.969 28.8605 143.333 29.3124C143.707 29.7532 143.977 30.2767 144.143 30.8829C144.308 31.478 144.352 32.1338 144.275 32.8502H137.017V31.7426H142.506C142.473 30.927 142.247 30.2933 141.828 29.8414C141.42 29.3785 140.875 29.1471 140.192 29.1471C139.696 29.1471 139.26 29.2793 138.886 29.5438C138.522 29.7973 138.235 30.1665 138.026 30.6515C137.828 31.1254 137.728 31.704 137.728 32.3873C137.728 33.0706 137.828 33.6603 138.026 34.1562C138.224 34.6411 138.511 35.0159 138.886 35.2804C139.26 35.5449 139.712 35.6771 140.241 35.6771C140.869 35.6771 141.387 35.5173 141.795 35.1977C142.214 34.8781 142.49 34.4317 142.622 33.8586H144.275C144.066 34.8285 143.603 35.5945 142.886 36.1566C142.181 36.7076 141.31 36.9832 140.274 36.9832ZM150.961 35.1977V36.6691C150.707 36.7903 150.459 36.8729 150.217 36.917C149.986 36.9611 149.738 36.9832 149.473 36.9832C148.933 36.9832 148.454 36.884 148.035 36.6856C147.627 36.4872 147.307 36.1786 147.076 35.7598C146.844 35.341 146.729 34.812 146.729 34.1727V29.4777H144.795V28.056H146.729V25.4604H148.398V28.056H151.044V29.4777H148.398V33.7925C148.398 34.3987 148.531 34.823 148.795 35.0655C149.071 35.3079 149.429 35.4292 149.87 35.4292C150.068 35.4292 150.256 35.4126 150.432 35.3796C150.619 35.3355 150.796 35.2749 150.961 35.1977ZM165.912 24.948L161.548 36.8178H159.547L155.183 24.948H157.134L160.589 34.7018L164.093 24.948H165.912ZM171.554 36.8178V35.4622C171.278 35.9472 170.903 36.3219 170.429 36.5864C169.955 36.8509 169.393 36.9832 168.743 36.9832C167.839 36.9832 167.112 36.7462 166.561 36.2723C166.01 35.7874 165.734 35.1426 165.734 34.3381C165.734 33.4784 166.07 32.8282 166.743 32.3873C167.426 31.9465 168.418 31.726 169.719 31.726C169.972 31.726 170.22 31.7315 170.462 31.7426C170.705 31.7536 171.002 31.7811 171.355 31.8252V31.1805C171.355 30.5633 171.195 30.0839 170.876 29.7422C170.556 29.3895 170.104 29.2132 169.52 29.2132C168.914 29.2132 168.429 29.3895 168.065 29.7422C167.713 30.0839 167.525 30.5578 167.503 31.1639H165.982C166.004 30.5027 166.164 29.9296 166.462 29.4446C166.77 28.9487 167.184 28.5684 167.702 28.3039C168.231 28.0284 168.837 27.8906 169.52 27.8906C170.6 27.8906 171.438 28.1827 172.033 28.7668C172.639 29.3399 172.942 30.15 172.942 31.197V36.8178H171.554ZM167.321 34.2885C167.321 34.7403 167.481 35.104 167.801 35.3796C168.12 35.6551 168.545 35.7929 169.074 35.7929C169.779 35.7929 170.336 35.5945 170.743 35.1977C171.151 34.7899 171.355 34.2499 171.355 33.5776V32.8667C171.036 32.8337 170.755 32.8116 170.512 32.8006C170.27 32.7786 170.038 32.7675 169.818 32.7675C168.98 32.7675 168.352 32.8943 167.933 33.1478C167.525 33.3902 167.321 33.7705 167.321 34.2885ZM176.861 36.8178H175.175V24.948H176.861V36.8178ZM184.651 33.2139V28.056H186.32V36.8178H184.766V35.4457C184.546 35.8865 184.193 36.2558 183.708 36.5533C183.223 36.8399 182.683 36.9832 182.088 36.9832C181.504 36.9832 180.98 36.8674 180.518 36.636C180.066 36.4045 179.713 36.0464 179.46 35.5614C179.217 35.0655 179.096 34.4428 179.096 33.6933V28.056H180.766V33.3627C180.766 34.1231 180.936 34.6742 181.278 35.0159C181.62 35.3465 182.066 35.5118 182.617 35.5118C182.992 35.5118 183.334 35.4181 183.642 35.2308C183.951 35.0324 184.193 34.7624 184.37 34.4207C184.557 34.068 184.651 33.6658 184.651 33.2139ZM192.243 36.9832C191.394 36.9832 190.65 36.7958 190.011 36.4211C189.383 36.0353 188.893 35.4953 188.54 34.801C188.187 34.1066 188.011 33.3021 188.011 32.3873C188.011 31.5166 188.193 30.7451 188.556 30.0728C188.92 29.4005 189.416 28.8715 190.044 28.4858C190.673 28.089 191.389 27.8906 192.193 27.8906C192.855 27.8906 193.444 28.0174 193.962 28.2709C194.491 28.5133 194.938 28.8605 195.301 29.3124C195.676 29.7532 195.946 30.2767 196.112 30.8829C196.277 31.478 196.321 32.1338 196.244 32.8502H188.986V31.7426H194.475C194.442 30.927 194.216 30.2933 193.797 29.8414C193.389 29.3785 192.844 29.1471 192.16 29.1471C191.664 29.1471 191.229 29.2793 190.854 29.5438C190.491 29.7973 190.204 30.1665 189.995 30.6515C189.796 31.1254 189.697 31.704 189.697 32.3873C189.697 33.0706 189.796 33.6603 189.995 34.1562C190.193 34.6411 190.48 35.0159 190.854 35.2804C191.229 35.5449 191.681 35.6771 192.21 35.6771C192.838 35.6771 193.356 35.5173 193.764 35.1977C194.183 34.8781 194.458 34.4317 194.591 33.8586H196.244C196.034 34.8285 195.571 35.5945 194.855 36.1566C194.15 36.7076 193.279 36.9832 192.243 36.9832Z" fill="#DAE6EA"/>
<rect x="434.015" y="21.2311" width="52.8499" height="22.318" rx="11.159" stroke="#DAE6EA" stroke-width="0.826593"/>
<path d="M446.75 36.4943C446.195 36.4943 445.701 36.3786 445.269 36.1471C444.845 35.9157 444.509 35.6032 444.262 35.2098C444.015 34.8163 443.892 34.3843 443.892 33.9137C443.892 33.5819 443.93 33.2849 444.008 33.0226C444.092 32.7603 444.208 32.5057 444.355 32.2588C444.509 32.012 444.698 31.7535 444.922 31.4835L447.282 28.5673H448.613L446.31 31.4372C446.426 31.3909 446.538 31.3601 446.646 31.3446C446.762 31.3215 446.874 31.3099 446.982 31.3099C447.491 31.3099 447.942 31.4179 448.336 31.6339C448.737 31.85 449.049 32.1508 449.273 32.5366C449.504 32.9146 449.62 33.3544 449.62 33.8558C449.62 34.3496 449.497 34.797 449.25 35.1982C449.011 35.5994 448.675 35.9157 448.243 36.1471C447.811 36.3786 447.313 36.4943 446.75 36.4943ZM446.762 35.5107C447.07 35.5107 447.348 35.4451 447.595 35.3139C447.842 35.1751 448.039 34.986 448.185 34.7469C448.332 34.5 448.405 34.2146 448.405 33.8905C448.405 33.5434 448.332 33.2463 448.185 32.9995C448.039 32.7526 447.842 32.5636 447.595 32.4324C447.348 32.3013 447.07 32.2357 446.762 32.2357C446.307 32.2357 445.917 32.3746 445.593 32.6523C445.277 32.9223 445.118 33.3312 445.118 33.879C445.118 34.203 445.192 34.4884 445.338 34.7353C445.485 34.9822 445.682 35.1751 445.929 35.3139C446.175 35.4451 446.453 35.5107 446.762 35.5107ZM451.965 32.93V36.3902H450.796V28.0812H451.965V31.2405C452.165 30.9087 452.42 30.6426 452.728 30.442C453.045 30.2414 453.415 30.1411 453.839 30.1411C454.472 30.1411 454.977 30.3378 455.355 30.7313C455.741 31.1248 455.934 31.6879 455.934 32.4209V36.3902H454.765V32.8143C454.765 32.2897 454.653 31.8847 454.429 31.5992C454.206 31.3138 453.874 31.171 453.434 31.171C453.164 31.171 452.917 31.2443 452.694 31.3909C452.47 31.5298 452.292 31.7304 452.161 31.9927C452.03 32.255 451.965 32.5674 451.965 32.93Z" fill="#DAE6EA"/>
<mask id="mask0_1092_985" style="mask-type:alpha" maskUnits="userSpaceOnUse" x="460" y="24" width="18" height="17">
<rect x="460.826" y="24.1242" width="16.5319" height="16.5319" fill="#D9D9D9"/>
</mask>
<g mask="url(#mask0_1092_985)">
<path d="M469.092 34.7149L464.959 30.582L465.923 29.6176L469.092 32.7862L472.261 29.6176L473.225 30.582L469.092 34.7149Z" fill="#DAE6EA"/>
</g>
<path d="M25.3796 72.3678V73.4093H20.3225V72.7381L22.7642 70.0996C23.0728 69.7602 23.3197 69.467 23.5048 69.2201C23.6977 68.9655 23.8366 68.7302 23.9215 68.5142C24.0063 68.2982 24.0487 68.0745 24.0487 67.843C24.0487 67.5807 23.9909 67.3493 23.8752 67.1487C23.7672 66.9481 23.6129 66.7938 23.4123 66.6858C23.2117 66.5778 22.9764 66.5238 22.7064 66.5238C22.4132 66.5238 22.1586 66.5816 21.9426 66.6973C21.7343 66.8131 21.5684 66.9789 21.445 67.195C21.3215 67.411 21.2598 67.6656 21.2598 67.9587H20.1142C20.1142 67.4727 20.226 67.0445 20.4498 66.6742C20.6812 66.2962 20.9937 66.003 21.3871 65.7947C21.7806 65.5787 22.2358 65.4707 22.7526 65.4707C23.2387 65.4707 23.6707 65.5671 24.0487 65.76C24.4345 65.9529 24.7354 66.219 24.9514 66.5585C25.1674 66.8902 25.2754 67.2721 25.2754 67.7041C25.2754 67.9973 25.2291 68.2789 25.1365 68.5489C25.044 68.8112 24.882 69.1005 24.6505 69.4168C24.4191 69.7332 24.0873 70.1228 23.6553 70.5856L22.0815 72.3678H25.3796ZM26.4581 69.5094C26.4581 68.2133 26.705 67.2181 27.1988 66.5238C27.7002 65.8217 28.4139 65.4707 29.3396 65.4707C30.2654 65.4707 30.979 65.8217 31.4805 66.5238C31.982 67.2181 32.2327 68.2133 32.2327 69.5094C32.2327 70.8055 31.982 71.8007 31.4805 72.4951C30.9868 73.1817 30.2731 73.525 29.3396 73.525C28.4061 73.525 27.6925 73.1817 27.1988 72.4951C26.705 71.8007 26.4581 70.8055 26.4581 69.5094ZM27.6617 69.5094C27.6617 70.4738 27.8044 71.2105 28.0898 71.7197C28.3753 72.2212 28.7919 72.4719 29.3396 72.4719C29.8874 72.4719 30.304 72.2212 30.5894 71.7197C30.8826 71.2183 31.0292 70.4815 31.0292 69.5094C31.0292 68.5296 30.8826 67.789 30.5894 67.2875C30.304 66.7784 29.8874 66.5238 29.3396 66.5238C28.7996 66.5238 28.383 66.7784 28.0898 67.2875C27.8044 67.789 27.6617 68.5296 27.6617 69.5094ZM34.9716 73.4093H33.6987V65.1004H34.9716V68.9424L38.4896 65.1004H39.9593L36.2562 69.1738L40.0519 73.4093H38.4549L34.9716 69.5557V73.4093Z" fill="#DAE6EA"/>
<line opacity="0.2" x1="50.6406" y1="69.2026" x2="494.924" y2="69.2026" stroke="#DAE6EA" stroke-width="0.413297"/>
<path d="M22.9691 165.269H21.7887V158.464H20.2728V157.446H22.9691V165.269ZM27.0782 165.384C26.569 165.384 26.11 165.284 25.7011 165.083C25.2922 164.875 24.9643 164.594 24.7174 164.239C24.4783 163.876 24.3471 163.463 24.324 163H25.4928C25.5391 163.417 25.7049 163.745 25.9904 163.984C26.2758 164.216 26.6384 164.331 27.0782 164.331C27.4331 164.331 27.7301 164.266 27.9692 164.135C28.2084 163.996 28.3858 163.811 28.5016 163.579C28.625 163.34 28.6867 163.07 28.6867 162.769C28.6867 162.499 28.6211 162.248 28.49 162.017C28.3666 161.785 28.1853 161.6 27.9461 161.461C27.7069 161.322 27.4138 161.253 27.0666 161.253C26.7194 161.253 26.4147 161.326 26.1524 161.473C25.8978 161.612 25.6895 161.824 25.5275 162.109L24.5786 161.809L25.2729 157.446H29.4505V158.487H26.1177L25.7705 160.744C25.9942 160.574 26.2295 160.447 26.4764 160.362C26.7233 160.277 26.9779 160.235 27.2402 160.235C27.8188 160.235 28.3048 160.354 28.6983 160.593C29.0918 160.825 29.3888 161.133 29.5894 161.519C29.7977 161.905 29.9018 162.322 29.9018 162.769C29.9018 163.116 29.8401 163.448 29.7167 163.764C29.5932 164.081 29.4081 164.362 29.1612 164.609C28.922 164.848 28.6289 165.037 28.2817 165.176C27.9345 165.315 27.5334 165.384 27.0782 165.384ZM32.4788 165.269H31.2059V156.96H32.4788V160.802L35.9968 156.96H37.4665L33.7634 161.033L37.5591 165.269H35.9621L32.4788 161.415V165.269Z" fill="#DAE6EA"/>
<line opacity="0.2" x1="47.9844" y1="161.062" x2="495.134" y2="161.062" stroke="#DAE6EA" stroke-width="0.413297"/>
<path d="M22.9691 258.425H21.7887V251.62H20.2728V250.602H22.9691V258.425ZM24.4513 254.525C24.4513 253.229 24.6981 252.234 25.1919 251.539C25.6934 250.837 26.407 250.486 27.3328 250.486C28.2585 250.486 28.9722 250.837 29.4736 251.539C29.9751 252.234 30.2258 253.229 30.2258 254.525C30.2258 255.821 29.9751 256.816 29.4736 257.511C28.9799 258.197 28.2663 258.541 27.3328 258.541C26.3993 258.541 25.6856 258.197 25.1919 257.511C24.6981 256.816 24.4513 255.821 24.4513 254.525ZM25.6548 254.525C25.6548 255.489 25.7975 256.226 26.083 256.735C26.3684 257.237 26.785 257.487 27.3328 257.487C27.8805 257.487 28.2971 257.237 28.5826 256.735C28.8757 256.234 29.0223 255.497 29.0223 254.525C29.0223 253.545 28.8757 252.805 28.5826 252.303C28.2971 251.794 27.8805 251.539 27.3328 251.539C26.7927 251.539 26.3761 251.794 26.083 252.303C25.7975 252.805 25.6548 253.545 25.6548 254.525ZM32.9648 258.425H31.6918V250.116H32.9648V253.958L36.4828 250.116H37.9524L34.2493 254.189L38.045 258.425H36.448L32.9648 254.571V258.425Z" fill="#DAE6EA"/>
<line opacity="0.2" x1="48.9844" y1="254.218" x2="496.134" y2="254.218" stroke="#DAE6EA" stroke-width="0.413297"/>
<path d="M37.2617 242.459C37.2617 242.459 228.176 222.784 349.388 251.04C403.527 263.66 487.278 295.987 487.278 295.987" stroke="#5350BE" stroke-width="1.65319"/>
<path d="M37.2617 127.224C37.2617 127.224 135.003 233.223 195.948 196.55C231.246 175.31 240.319 89.4223 276.883 92.5603C306.88 95.1346 314.692 165.509 344.517 173.029C380.811 182.18 396.234 115.373 432.197 101.226C453.426 92.8748 487.278 92.5603 487.278 92.5603" stroke="#56ACF7" stroke-width="1.65319"/>
<g filter="url(#filter0_d_1092_985)">
<rect x="332.496" y="85.9767" width="119.029" height="134.735" rx="6.61275" fill="#07153B" shape-rendering="crispEdges"/>
<rect x="332.703" y="86.1834" width="118.616" height="134.321" rx="6.4061" stroke="#DAE6EA" stroke-opacity="0.2" stroke-width="0.413297" shape-rendering="crispEdges"/>
<path d="M348.075 106.854V107.896H343.018V107.225L345.46 104.586C345.768 104.247 346.015 103.954 346.2 103.707C346.393 103.452 346.532 103.217 346.617 103.001C346.702 102.785 346.744 102.561 346.744 102.33C346.744 102.067 346.686 101.836 346.57 101.635C346.462 101.435 346.308 101.28 346.108 101.172C345.907 101.064 345.672 101.01 345.402 101.01C345.109 101.01 344.854 101.068 344.638 101.184C344.43 101.3 344.264 101.466 344.14 101.682C344.017 101.898 343.955 102.152 343.955 102.445H342.809C342.809 101.959 342.921 101.531 343.145 101.161C343.377 100.783 343.689 100.49 344.082 100.281C344.476 100.065 344.931 99.9573 345.448 99.9573C345.934 99.9573 346.366 100.054 346.744 100.247C347.13 100.439 347.431 100.706 347.647 101.045C347.863 101.377 347.971 101.759 347.971 102.191C347.971 102.484 347.924 102.765 347.832 103.035C347.739 103.298 347.577 103.587 347.346 103.903C347.114 104.22 346.783 104.609 346.351 105.072L344.777 106.854H348.075ZM349.153 103.996C349.153 102.7 349.4 101.705 349.894 101.01C350.396 100.308 351.109 99.9573 352.035 99.9573C352.961 99.9573 353.674 100.308 354.176 101.01C354.677 101.705 354.928 102.7 354.928 103.996C354.928 105.292 354.677 106.287 354.176 106.982C353.682 107.668 352.968 108.012 352.035 108.012C351.101 108.012 350.388 107.668 349.894 106.982C349.4 106.287 349.153 105.292 349.153 103.996ZM350.357 103.996C350.357 104.96 350.5 105.697 350.785 106.206C351.071 106.708 351.487 106.959 352.035 106.959C352.583 106.959 352.999 106.708 353.285 106.206C353.578 105.705 353.725 104.968 353.725 103.996C353.725 103.016 353.578 102.276 353.285 101.774C352.999 101.265 352.583 101.01 352.035 101.01C351.495 101.01 351.078 101.265 350.785 101.774C350.5 102.276 350.357 103.016 350.357 103.996ZM358.34 107.896H357.159V101.091H355.643V100.073H358.34V107.896ZM362.483 108C361.928 108 361.434 107.884 361.002 107.653C360.578 107.421 360.242 107.109 359.995 106.715C359.748 106.322 359.625 105.89 359.625 105.419C359.625 105.088 359.664 104.791 359.741 104.528C359.826 104.266 359.941 104.011 360.088 103.765C360.242 103.518 360.431 103.259 360.655 102.989L363.016 100.073H364.346L362.044 102.943C362.159 102.897 362.271 102.866 362.379 102.85C362.495 102.827 362.607 102.816 362.715 102.816C363.224 102.816 363.675 102.924 364.069 103.14C364.47 103.356 364.782 103.657 365.006 104.042C365.238 104.42 365.353 104.86 365.353 105.362C365.353 105.855 365.23 106.303 364.983 106.704C364.744 107.105 364.408 107.421 363.976 107.653C363.544 107.884 363.046 108 362.483 108ZM362.495 107.016C362.803 107.016 363.081 106.951 363.328 106.82C363.575 106.681 363.772 106.492 363.918 106.253C364.065 106.006 364.138 105.72 364.138 105.396C364.138 105.049 364.065 104.752 363.918 104.505C363.772 104.258 363.575 104.069 363.328 103.938C363.081 103.807 362.803 103.741 362.495 103.741C362.04 103.741 361.65 103.88 361.326 104.158C361.01 104.428 360.852 104.837 360.852 105.385C360.852 105.709 360.925 105.994 361.071 106.241C361.218 106.488 361.415 106.681 361.662 106.82C361.909 106.951 362.186 107.016 362.495 107.016Z" fill="#DAE6EA"/>
<mask id="mask1_1092_985" style="mask-type:alpha" maskUnits="userSpaceOnUse" x="342" y="115" width="17" height="17">
<rect x="342.416" y="115.202" width="16.5319" height="16.5319" fill="#56ACF7"/>
</mask>
<g mask="url(#mask1_1092_985)">
<path d="M350.682 128.428C349.996 128.428 349.351 128.297 348.748 128.037C348.145 127.777 347.62 127.423 347.173 126.977C346.727 126.531 346.374 126.006 346.113 125.402C345.853 124.799 345.723 124.154 345.723 123.468C345.723 122.782 345.853 122.137 346.113 121.534C346.374 120.93 346.727 120.406 347.173 119.959C347.62 119.513 348.145 119.159 348.748 118.899C349.351 118.639 349.996 118.508 350.682 118.508C351.368 118.508 352.013 118.639 352.616 118.899C353.22 119.159 353.745 119.513 354.191 119.959C354.637 120.406 354.991 120.93 355.251 121.534C355.512 122.137 355.642 122.782 355.642 123.468C355.642 124.154 355.512 124.799 355.251 125.402C354.991 126.006 354.637 126.531 354.191 126.977C353.745 127.423 353.22 127.777 352.616 128.037C352.013 128.297 351.368 128.428 350.682 128.428ZM350.682 127.436C351.79 127.436 352.728 127.051 353.497 126.283C354.265 125.514 354.65 124.576 354.65 123.468C354.65 122.36 354.265 121.422 353.497 120.654C352.728 119.885 351.79 119.5 350.682 119.5C349.575 119.5 348.636 119.885 347.868 120.654C347.099 121.422 346.715 122.36 346.715 123.468C346.715 124.576 347.099 125.514 347.868 126.283C348.636 127.051 349.575 127.436 350.682 127.436ZM350.682 127.436C349.575 127.436 348.636 127.051 347.868 126.283C347.099 125.514 346.715 124.576 346.715 123.468C346.715 122.36 347.099 121.422 347.868 120.654C348.636 119.885 349.575 119.5 350.682 119.5C351.79 119.5 352.728 119.885 353.497 120.654C354.265 121.422 354.65 122.36 354.65 123.468C354.65 124.576 354.265 125.514 353.497 126.283C352.728 127.051 351.79 127.436 350.682 127.436Z" fill="#56ACF7"/>
</g>
<path d="M368.781 125.142C368.781 125.883 368.53 126.458 368.028 126.866C367.535 127.268 366.879 127.468 366.061 127.468H363.191V119.159H365.888C366.69 119.159 367.315 119.344 367.762 119.715C368.218 120.085 368.445 120.614 368.445 121.3C368.445 121.709 368.322 122.079 368.075 122.411C367.836 122.743 367.504 122.986 367.08 123.14C367.643 123.279 368.067 123.522 368.353 123.869C368.638 124.216 368.781 124.641 368.781 125.142ZM365.841 119.865H364.001V122.828H365.841C366.405 122.828 366.837 122.697 367.137 122.434C367.446 122.172 367.6 121.809 367.6 121.346C367.6 120.884 367.446 120.521 367.137 120.259C366.837 119.996 366.405 119.865 365.841 119.865ZM366.015 123.534H364.001V126.762H366.015C366.624 126.762 367.099 126.62 367.438 126.334C367.778 126.041 367.947 125.636 367.947 125.119C367.947 124.618 367.778 124.228 367.438 123.95C367.099 123.672 366.624 123.534 366.015 123.534ZM372.843 127.468H371.987V119.935H369.198V119.159H375.632V119.935H372.843V127.468ZM379.922 127.642C379.343 127.642 378.807 127.534 378.313 127.318C377.82 127.094 377.387 126.785 377.017 126.392C376.655 125.998 376.369 125.539 376.161 125.015C375.96 124.483 375.86 123.912 375.86 123.302C375.86 122.693 375.96 122.126 376.161 121.601C376.369 121.076 376.655 120.621 377.017 120.235C377.387 119.842 377.82 119.537 378.313 119.321C378.807 119.098 379.343 118.986 379.922 118.986C380.578 118.986 381.183 119.125 381.739 119.402C382.294 119.672 382.757 120.058 383.127 120.56C383.505 121.053 383.748 121.632 383.856 122.295H382.942C382.857 121.802 382.672 121.366 382.387 120.988C382.101 120.602 381.746 120.301 381.322 120.085C380.905 119.869 380.439 119.761 379.922 119.761C379.459 119.761 379.035 119.85 378.649 120.027C378.263 120.205 377.928 120.451 377.642 120.768C377.357 121.084 377.137 121.458 376.982 121.89C376.828 122.322 376.751 122.793 376.751 123.302C376.751 123.819 376.828 124.294 376.982 124.726C377.137 125.158 377.357 125.536 377.642 125.86C377.928 126.176 378.263 126.423 378.649 126.6C379.035 126.778 379.459 126.866 379.922 126.866C380.439 126.866 380.909 126.758 381.334 126.542C381.758 126.319 382.109 126.014 382.387 125.628C382.672 125.242 382.857 124.807 382.942 124.321H383.856C383.748 124.976 383.509 125.555 383.139 126.056C382.769 126.558 382.302 126.947 381.739 127.225C381.183 127.503 380.578 127.642 379.922 127.642ZM386.547 126.797C386.547 127.005 386.477 127.179 386.338 127.318C386.207 127.457 386.034 127.526 385.818 127.526C385.609 127.526 385.436 127.457 385.297 127.318C385.158 127.179 385.089 127.005 385.089 126.797C385.089 126.581 385.158 126.404 385.297 126.265C385.436 126.126 385.609 126.056 385.818 126.056C386.034 126.056 386.207 126.126 386.338 126.265C386.477 126.404 386.547 126.581 386.547 126.797ZM386.547 122.087C386.547 122.295 386.477 122.469 386.338 122.608C386.207 122.747 386.034 122.816 385.818 122.816C385.609 122.816 385.436 122.747 385.297 122.608C385.158 122.469 385.089 122.295 385.089 122.087C385.089 121.871 385.158 121.694 385.297 121.555C385.436 121.416 385.609 121.346 385.818 121.346C386.034 121.346 386.207 121.416 386.338 121.555C386.477 121.694 386.547 121.871 386.547 122.087Z" fill="#DAE6EA"/>
<path d="M394.465 127.202H393.285V120.398H391.769V119.379H394.465V127.202ZM395.947 123.302C395.947 122.006 396.194 121.011 396.688 120.317C397.189 119.615 397.903 119.264 398.829 119.264C399.755 119.264 400.468 119.615 400.97 120.317C401.471 121.011 401.722 122.006 401.722 123.302C401.722 124.598 401.471 125.594 400.97 126.288C400.476 126.975 399.762 127.318 398.829 127.318C397.895 127.318 397.182 126.975 396.688 126.288C396.194 125.594 395.947 124.598 395.947 123.302ZM397.151 123.302C397.151 124.267 397.294 125.004 397.579 125.513C397.865 126.014 398.281 126.265 398.829 126.265C399.377 126.265 399.793 126.014 400.079 125.513C400.372 125.011 400.518 124.274 400.518 123.302C400.518 122.323 400.372 121.582 400.079 121.08C399.793 120.571 399.377 120.317 398.829 120.317C398.289 120.317 397.872 120.571 397.579 121.08C397.294 121.582 397.151 122.323 397.151 123.302ZM407.99 127.306C407.45 127.306 406.972 127.21 406.555 127.017C406.139 126.816 405.815 126.543 405.583 126.195C405.352 125.841 405.232 125.436 405.224 124.98H406.37C406.393 125.405 406.551 125.744 406.845 125.999C407.138 126.246 407.52 126.369 407.99 126.369C408.484 126.369 408.87 126.246 409.147 125.999C409.433 125.752 409.576 125.416 409.576 124.992C409.576 124.583 409.417 124.259 409.101 124.02C408.785 123.773 408.357 123.65 407.817 123.65H407.007V122.712H407.759C408.052 122.712 408.307 122.658 408.523 122.55C408.746 122.442 408.916 122.292 409.032 122.099C409.155 121.906 409.217 121.686 409.217 121.439C409.217 121.069 409.097 120.772 408.858 120.548C408.619 120.317 408.303 120.201 407.909 120.201C407.508 120.201 407.184 120.321 406.937 120.56C406.698 120.791 406.567 121.107 406.544 121.509H405.41C405.425 121.077 405.541 120.691 405.757 120.351C405.981 120.012 406.285 119.746 406.671 119.553C407.057 119.36 407.485 119.264 407.956 119.264C408.457 119.264 408.893 119.352 409.263 119.53C409.634 119.707 409.919 119.954 410.12 120.27C410.328 120.579 410.432 120.942 410.432 121.358C410.432 121.736 410.32 122.076 410.096 122.377C409.88 122.677 409.572 122.924 409.171 123.117C409.688 123.256 410.085 123.488 410.363 123.812C410.648 124.128 410.791 124.514 410.791 124.969C410.791 125.432 410.671 125.841 410.432 126.195C410.201 126.543 409.873 126.816 409.448 127.017C409.032 127.21 408.546 127.306 407.99 127.306ZM414.476 119.275C415.031 119.275 415.525 119.391 415.957 119.622C416.389 119.854 416.725 120.166 416.964 120.56C417.211 120.945 417.334 121.378 417.334 121.856C417.334 122.172 417.296 122.461 417.219 122.724C417.149 122.978 417.037 123.233 416.883 123.488C416.736 123.734 416.544 124.001 416.304 124.286L413.955 127.202H412.613L414.916 124.332C414.8 124.371 414.684 124.402 414.569 124.425C414.461 124.44 414.349 124.448 414.233 124.448C413.731 124.448 413.28 124.344 412.879 124.136C412.486 123.92 412.173 123.623 411.942 123.245C411.718 122.859 411.606 122.415 411.606 121.914C411.606 121.42 411.729 120.972 411.976 120.571C412.223 120.17 412.563 119.854 412.995 119.622C413.427 119.391 413.921 119.275 414.476 119.275ZM414.464 120.259C414.156 120.259 413.878 120.328 413.631 120.467C413.384 120.598 413.188 120.787 413.041 121.034C412.894 121.273 412.821 121.555 412.821 121.879C412.821 122.218 412.894 122.515 413.041 122.77C413.188 123.017 413.384 123.206 413.631 123.337C413.878 123.468 414.156 123.534 414.464 123.534C414.927 123.534 415.317 123.399 415.633 123.129C415.957 122.851 416.119 122.438 416.119 121.891C416.119 121.559 416.042 121.273 415.888 121.034C415.741 120.787 415.544 120.598 415.298 120.467C415.051 120.328 414.773 120.259 414.464 120.259ZM423.939 125.004C423.939 125.459 423.819 125.86 423.58 126.207C423.341 126.554 423.005 126.824 422.573 127.017C422.149 127.21 421.651 127.306 421.08 127.306C420.51 127.306 420.008 127.21 419.576 127.017C419.144 126.824 418.805 126.554 418.558 126.207C418.318 125.86 418.199 125.459 418.199 125.004C418.199 124.533 418.342 124.139 418.627 123.823C418.913 123.507 419.26 123.275 419.669 123.129C419.337 122.982 419.059 122.762 418.835 122.469C418.619 122.176 418.511 121.829 418.511 121.428C418.511 121.003 418.619 120.629 418.835 120.305C419.059 119.981 419.364 119.727 419.75 119.541C420.135 119.356 420.579 119.264 421.08 119.264C421.574 119.264 422.014 119.356 422.4 119.541C422.785 119.727 423.086 119.981 423.302 120.305C423.526 120.629 423.638 121.003 423.638 121.428C423.638 121.829 423.526 122.176 423.302 122.469C423.079 122.762 422.805 122.982 422.481 123.129C422.89 123.275 423.233 123.507 423.511 123.823C423.796 124.139 423.939 124.533 423.939 125.004ZM419.715 121.462C419.715 121.848 419.838 122.149 420.085 122.365C420.34 122.581 420.672 122.689 421.08 122.689C421.482 122.689 421.806 122.581 422.052 122.365C422.307 122.149 422.434 121.848 422.434 121.462C422.434 121.069 422.307 120.76 422.052 120.537C421.806 120.313 421.482 120.201 421.08 120.201C420.672 120.201 420.34 120.313 420.085 120.537C419.838 120.76 419.715 121.069 419.715 121.462ZM419.426 124.98C419.426 125.266 419.495 125.513 419.634 125.721C419.773 125.929 419.966 126.091 420.212 126.207C420.459 126.315 420.749 126.369 421.08 126.369C421.404 126.369 421.69 126.315 421.937 126.207C422.191 126.091 422.388 125.929 422.527 125.721C422.666 125.513 422.735 125.266 422.735 124.98C422.735 124.695 422.666 124.452 422.527 124.251C422.388 124.051 422.191 123.896 421.937 123.788C421.69 123.68 421.404 123.626 421.08 123.626C420.749 123.626 420.459 123.68 420.212 123.788C419.966 123.896 419.773 124.051 419.634 124.251C419.495 124.452 419.426 124.695 419.426 124.98Z" fill="#DAE6EA"/>
<mask id="mask2_1092_985" style="mask-type:alpha" maskUnits="userSpaceOnUse" x="342" y="135" width="17" height="17">
<rect x="342.416" y="135.04" width="16.5319" height="16.5319" fill="#5350BE"/>
</mask>
<g mask="url(#mask2_1092_985)">
<path d="M350.682 148.266C349.996 148.266 349.351 148.136 348.748 147.876C348.145 147.615 347.62 147.262 347.173 146.815C346.727 146.369 346.374 145.844 346.113 145.241C345.853 144.637 345.723 143.993 345.723 143.307C345.723 142.62 345.853 141.976 346.113 141.372C346.374 140.769 346.727 140.244 347.173 139.798C347.62 139.351 348.145 138.998 348.748 138.738C349.351 138.477 349.996 138.347 350.682 138.347C351.368 138.347 352.013 138.477 352.616 138.738C353.22 138.998 353.745 139.351 354.191 139.798C354.637 140.244 354.991 140.769 355.251 141.372C355.512 141.976 355.642 142.62 355.642 143.307C355.642 143.993 355.512 144.637 355.251 145.241C354.991 145.844 354.637 146.369 354.191 146.815C353.745 147.262 353.22 147.615 352.616 147.876C352.013 148.136 351.368 148.266 350.682 148.266ZM350.682 147.274C351.79 147.274 352.728 146.89 353.497 146.121C354.265 145.352 354.65 144.414 354.65 143.307C354.65 142.199 354.265 141.261 353.497 140.492C352.728 139.723 351.79 139.339 350.682 139.339C349.575 139.339 348.636 139.723 347.868 140.492C347.099 141.261 346.715 142.199 346.715 143.307C346.715 144.414 347.099 145.352 347.868 146.121C348.636 146.89 349.575 147.274 350.682 147.274ZM350.682 147.274C349.575 147.274 348.636 146.89 347.868 146.121C347.099 145.352 346.715 144.414 346.715 143.307C346.715 142.199 347.099 141.261 347.868 140.492C348.636 139.723 349.575 139.339 350.682 139.339C351.79 139.339 352.728 139.723 353.497 140.492C354.265 141.261 354.65 142.199 354.65 143.307C354.65 144.414 354.265 145.352 353.497 146.121C352.728 146.89 351.79 147.274 350.682 147.274Z" fill="#5350BE"/>
</g>
<path d="M368.179 146.554V147.306H363.191V138.997H368.098V139.75H364.059V142.643H367.751V143.395H364.059V146.554H368.179ZM372.73 147.306H371.874V139.773H369.085V138.997H375.519V139.773H372.73V147.306ZM377.553 147.306H376.685V138.997H377.553V142.643H382.274V138.997H383.142V147.306H382.274V143.395H377.553V147.306ZM386.298 146.635C386.298 146.844 386.229 147.017 386.09 147.156C385.959 147.295 385.785 147.364 385.569 147.364C385.361 147.364 385.187 147.295 385.048 147.156C384.909 147.017 384.84 146.844 384.84 146.635C384.84 146.419 384.909 146.242 385.048 146.103C385.187 145.964 385.361 145.895 385.569 145.895C385.785 145.895 385.959 145.964 386.09 146.103C386.229 146.242 386.298 146.419 386.298 146.635ZM386.298 141.925C386.298 142.134 386.229 142.307 386.09 142.446C385.959 142.585 385.785 142.654 385.569 142.654C385.361 142.654 385.187 142.585 385.048 142.446C384.909 142.307 384.84 142.134 384.84 141.925C384.84 141.709 384.909 141.532 385.048 141.393C385.187 141.254 385.361 141.185 385.569 141.185C385.785 141.185 385.959 141.254 386.09 141.393C386.229 141.532 386.298 141.709 386.298 141.925Z" fill="#DAE6EA"/>
<path d="M393.789 147.145C393.234 147.145 392.74 147.029 392.308 146.797C391.884 146.566 391.548 146.254 391.301 145.86C391.054 145.467 390.931 145.035 390.931 144.564C390.931 144.232 390.969 143.935 391.047 143.673C391.131 143.411 391.247 143.156 391.394 142.909C391.548 142.662 391.737 142.404 391.961 142.134L394.322 139.218H395.652L393.349 142.088C393.465 142.041 393.577 142.01 393.685 141.995C393.801 141.972 393.913 141.96 394.021 141.96C394.53 141.96 394.981 142.068 395.375 142.284C395.776 142.5 396.088 142.801 396.312 143.187C396.543 143.565 396.659 144.005 396.659 144.506C396.659 145 396.536 145.447 396.289 145.849C396.05 146.25 395.714 146.566 395.282 146.797C394.85 147.029 394.352 147.145 393.789 147.145ZM393.801 146.161C394.109 146.161 394.387 146.095 394.634 145.964C394.881 145.825 395.078 145.636 395.224 145.397C395.371 145.15 395.444 144.865 395.444 144.541C395.444 144.194 395.371 143.897 395.224 143.65C395.078 143.403 394.881 143.214 394.634 143.083C394.387 142.952 394.109 142.886 393.801 142.886C393.346 142.886 392.956 143.025 392.632 143.303C392.316 143.573 392.158 143.982 392.158 144.529C392.158 144.853 392.231 145.139 392.377 145.386C392.524 145.633 392.721 145.825 392.968 145.964C393.214 146.095 393.492 146.161 393.801 146.161ZM405.102 145.999V147.04H400.045V146.369L402.487 143.731C402.795 143.391 403.042 143.098 403.227 142.851C403.42 142.597 403.559 142.361 403.644 142.145C403.729 141.929 403.771 141.706 403.771 141.474C403.771 141.212 403.713 140.98 403.598 140.78C403.49 140.579 403.335 140.425 403.135 140.317C402.934 140.209 402.699 140.155 402.429 140.155C402.136 140.155 401.881 140.213 401.665 140.329C401.457 140.444 401.291 140.61 401.167 140.826C401.044 141.042 400.982 141.297 400.982 141.59H399.837C399.837 141.104 399.949 140.676 400.172 140.305C400.404 139.927 400.716 139.634 401.11 139.426C401.503 139.21 401.958 139.102 402.475 139.102C402.961 139.102 403.393 139.198 403.771 139.391C404.157 139.584 404.458 139.85 404.674 140.19C404.89 140.521 404.998 140.903 404.998 141.335C404.998 141.628 404.952 141.91 404.859 142.18C404.766 142.442 404.604 142.732 404.373 143.048C404.142 143.364 403.81 143.754 403.378 144.217L401.804 145.999H405.102ZM408.808 147.156C408.298 147.156 407.839 147.056 407.43 146.855C407.022 146.647 406.694 146.365 406.447 146.011C406.208 145.648 406.076 145.235 406.053 144.772H407.222C407.268 145.189 407.434 145.517 407.72 145.756C408.005 145.987 408.368 146.103 408.808 146.103C409.162 146.103 409.459 146.038 409.699 145.906C409.938 145.768 410.115 145.582 410.231 145.351C410.354 145.112 410.416 144.842 410.416 144.541C410.416 144.271 410.351 144.02 410.219 143.789C410.096 143.557 409.915 143.372 409.675 143.233C409.436 143.094 409.143 143.025 408.796 143.025C408.449 143.025 408.144 143.098 407.882 143.245C407.627 143.384 407.419 143.596 407.257 143.881L406.308 143.58L407.002 139.218H411.18V140.259H407.847L407.5 142.516C407.724 142.346 407.959 142.219 408.206 142.134C408.453 142.049 408.707 142.007 408.97 142.007C409.548 142.007 410.034 142.126 410.428 142.365C410.821 142.597 411.118 142.905 411.319 143.291C411.527 143.677 411.631 144.093 411.631 144.541C411.631 144.888 411.569 145.22 411.446 145.536C411.323 145.852 411.137 146.134 410.891 146.381C410.651 146.62 410.358 146.809 410.011 146.948C409.664 147.087 409.263 147.156 408.808 147.156ZM414.937 147.04H413.757V140.236H412.241V139.218H414.937V147.04Z" fill="#DAE6EA"/>
<mask id="mask3_1092_985" style="mask-type:alpha" maskUnits="userSpaceOnUse" x="342" y="154" width="17" height="18">
<rect x="342.416" y="154.879" width="16.5319" height="16.5319" fill="#D9D9D9"/>
</mask>
<g mask="url(#mask3_1092_985)">
<path d="M350.682 168.104C349.996 168.104 349.351 167.974 348.748 167.714C348.145 167.453 347.62 167.1 347.173 166.654C346.727 166.207 346.374 165.682 346.113 165.079C345.853 164.476 345.723 163.831 345.723 163.145C345.723 162.459 345.853 161.814 346.113 161.211C346.374 160.607 346.727 160.082 347.173 159.636C347.62 159.189 348.145 158.836 348.748 158.576C349.351 158.315 349.996 158.185 350.682 158.185C351.368 158.185 352.013 158.315 352.616 158.576C353.22 158.836 353.745 159.189 354.191 159.636C354.637 160.082 354.991 160.607 355.251 161.211C355.512 161.814 355.642 162.459 355.642 163.145C355.642 163.831 355.512 164.476 355.251 165.079C354.991 165.682 354.637 166.207 354.191 166.654C353.745 167.1 353.22 167.453 352.616 167.714C352.013 167.974 351.368 168.104 350.682 168.104ZM350.682 167.112C351.79 167.112 352.728 166.728 353.497 165.959C354.265 165.191 354.65 164.252 354.65 163.145C354.65 162.037 354.265 161.099 353.497 160.33C352.728 159.561 351.79 159.177 350.682 159.177C349.575 159.177 348.636 159.561 347.868 160.33C347.099 161.099 346.715 162.037 346.715 163.145C346.715 164.252 347.099 165.191 347.868 165.959C348.636 166.728 349.575 167.112 350.682 167.112ZM350.682 167.112C349.575 167.112 348.636 166.728 347.868 165.959C347.099 165.191 346.715 164.252 346.715 163.145C346.715 162.037 347.099 161.099 347.868 160.33C348.636 159.561 349.575 159.177 350.682 159.177C351.79 159.177 352.728 159.561 353.497 160.33C354.265 161.099 354.65 162.037 354.65 163.145C354.65 164.252 354.265 165.191 353.497 165.959C352.728 166.728 351.79 167.112 350.682 167.112Z" fill="#0EA766"/>
</g>
<path d="M368.781 164.819C368.781 165.559 368.53 166.134 368.028 166.543C367.535 166.944 366.879 167.145 366.061 167.145H363.191V158.836H365.888C366.69 158.836 367.315 159.021 367.762 159.391C368.218 159.761 368.445 160.29 368.445 160.977C368.445 161.385 368.322 161.756 368.075 162.088C367.836 162.419 367.504 162.662 367.08 162.817C367.643 162.955 368.067 163.198 368.353 163.546C368.638 163.893 368.781 164.317 368.781 164.819ZM365.841 159.542H364.001V162.504H365.841C366.405 162.504 366.837 162.373 367.137 162.111C367.446 161.848 367.6 161.486 367.6 161.023C367.6 160.56 367.446 160.197 367.137 159.935C366.837 159.673 366.405 159.542 365.841 159.542ZM366.015 163.21H364.001V166.439H366.015C366.624 166.439 367.099 166.296 367.438 166.011C367.778 165.717 367.947 165.312 367.947 164.795C367.947 164.294 367.778 163.904 367.438 163.627C367.099 163.349 366.624 163.21 366.015 163.21ZM376.072 167.145L371.223 160.062V167.145H370.413V158.836H371.373L376.176 165.825V158.836H376.997V167.145H376.072ZM384.467 164.819C384.467 165.559 384.216 166.134 383.714 166.543C383.221 166.944 382.565 167.145 381.747 167.145H378.877V158.836H381.574C382.376 158.836 383.001 159.021 383.448 159.391C383.903 159.761 384.131 160.29 384.131 160.977C384.131 161.385 384.008 161.756 383.761 162.088C383.522 162.419 383.19 162.662 382.765 162.817C383.329 162.955 383.753 163.198 384.038 163.546C384.324 163.893 384.467 164.317 384.467 164.819ZM381.527 159.542H379.687V162.504H381.527C382.09 162.504 382.522 162.373 382.823 162.111C383.132 161.848 383.286 161.486 383.286 161.023C383.286 160.56 383.132 160.197 382.823 159.935C382.522 159.673 382.09 159.542 381.527 159.542ZM381.701 163.21H379.687V166.439H381.701C382.31 166.439 382.785 166.296 383.124 166.011C383.464 165.717 383.633 165.312 383.633 164.795C383.633 164.294 383.464 163.904 383.124 163.627C382.785 163.349 382.31 163.21 381.701 163.21ZM387.383 166.473C387.383 166.682 387.314 166.855 387.175 166.994C387.044 167.133 386.87 167.202 386.654 167.202C386.446 167.202 386.272 167.133 386.133 166.994C385.994 166.855 385.925 166.682 385.925 166.473C385.925 166.257 385.994 166.08 386.133 165.941C386.272 165.802 386.446 165.733 386.654 165.733C386.87 165.733 387.044 165.802 387.175 165.941C387.314 166.08 387.383 166.257 387.383 166.473ZM387.383 161.764C387.383 161.972 387.314 162.145 387.175 162.284C387.044 162.423 386.87 162.493 386.654 162.493C386.446 162.493 386.272 162.423 386.133 162.284C385.994 162.145 385.925 161.972 385.925 161.764C385.925 161.547 385.994 161.37 386.133 161.231C386.272 161.092 386.446 161.023 386.654 161.023C386.87 161.023 387.044 161.092 387.175 161.231C387.314 161.37 387.383 161.547 387.383 161.764Z" fill="#DAE6EA"/>
<path d="M394.755 166.994C394.245 166.994 393.786 166.894 393.377 166.694C392.969 166.485 392.641 166.204 392.394 165.849C392.155 165.486 392.023 165.073 392 164.611H393.169C393.215 165.027 393.381 165.355 393.667 165.594C393.952 165.826 394.315 165.941 394.755 165.941C395.109 165.941 395.406 165.876 395.646 165.745C395.885 165.606 396.062 165.421 396.178 165.189C396.301 164.95 396.363 164.68 396.363 164.379C396.363 164.109 396.297 163.858 396.166 163.627C396.043 163.395 395.862 163.21 395.622 163.071C395.383 162.933 395.09 162.863 394.743 162.863C394.396 162.863 394.091 162.936 393.829 163.083C393.574 163.222 393.366 163.434 393.204 163.719L392.255 163.419L392.949 159.056H397.127V160.097H393.794L393.447 162.354C393.671 162.184 393.906 162.057 394.153 161.972C394.4 161.887 394.654 161.845 394.917 161.845C395.495 161.845 395.981 161.964 396.375 162.203C396.768 162.435 397.065 162.744 397.266 163.129C397.474 163.515 397.578 163.932 397.578 164.379C397.578 164.726 397.516 165.058 397.393 165.374C397.27 165.691 397.084 165.972 396.838 166.219C396.598 166.458 396.305 166.647 395.958 166.786C395.611 166.925 395.21 166.994 394.755 166.994ZM400.965 162.979C400.965 161.683 401.212 160.688 401.706 159.993C402.207 159.291 402.921 158.94 403.847 158.94C404.772 158.94 405.486 159.291 405.987 159.993C406.489 160.688 406.74 161.683 406.74 162.979C406.74 164.275 406.489 165.27 405.987 165.964C405.494 166.651 404.78 166.994 403.847 166.994C402.913 166.994 402.199 166.651 401.706 165.964C401.212 165.27 400.965 164.275 400.965 162.979ZM402.169 162.979C402.169 163.943 402.311 164.68 402.597 165.189C402.882 165.691 403.299 165.941 403.847 165.941C404.394 165.941 404.811 165.691 405.096 165.189C405.39 164.688 405.536 163.951 405.536 162.979C405.536 161.999 405.39 161.258 405.096 160.757C404.811 160.248 404.394 159.993 403.847 159.993C403.306 159.993 402.89 160.248 402.597 160.757C402.311 161.258 402.169 161.999 402.169 162.979ZM407.87 162.979C407.87 161.683 408.117 160.688 408.611 159.993C409.112 159.291 409.826 158.94 410.751 158.94C411.677 158.94 412.391 159.291 412.892 159.993C413.394 160.688 413.645 161.683 413.645 162.979C413.645 164.275 413.394 165.27 412.892 165.964C412.399 166.651 411.685 166.994 410.751 166.994C409.818 166.994 409.104 166.651 408.611 165.964C408.117 165.27 407.87 164.275 407.87 162.979ZM409.074 162.979C409.074 163.943 409.216 164.68 409.502 165.189C409.787 165.691 410.204 165.941 410.751 165.941C411.299 165.941 411.716 165.691 412.001 165.189C412.294 164.688 412.441 163.951 412.441 162.979C412.441 161.999 412.294 161.258 412.001 160.757C411.716 160.248 411.299 159.993 410.751 159.993C410.211 159.993 409.795 160.248 409.502 160.757C409.216 161.258 409.074 161.999 409.074 162.979ZM417.437 166.983C416.881 166.983 416.387 166.867 415.955 166.636C415.531 166.404 415.195 166.092 414.949 165.698C414.702 165.305 414.578 164.873 414.578 164.402C414.578 164.07 414.617 163.773 414.694 163.511C414.779 163.249 414.895 162.994 415.041 162.747C415.195 162.501 415.384 162.242 415.608 161.972L417.969 159.056H419.3L416.997 161.926C417.113 161.879 417.224 161.849 417.332 161.833C417.448 161.81 417.56 161.798 417.668 161.798C418.177 161.798 418.629 161.906 419.022 162.122C419.423 162.338 419.736 162.639 419.959 163.025C420.191 163.403 420.307 163.843 420.307 164.344C420.307 164.838 420.183 165.286 419.936 165.687C419.697 166.088 419.361 166.404 418.929 166.636C418.497 166.867 418 166.983 417.437 166.983ZM417.448 165.999C417.757 165.999 418.034 165.934 418.281 165.802C418.528 165.664 418.725 165.475 418.872 165.235C419.018 164.989 419.091 164.703 419.091 164.379C419.091 164.032 419.018 163.735 418.872 163.488C418.725 163.241 418.528 163.052 418.281 162.921C418.034 162.79 417.757 162.724 417.448 162.724C416.993 162.724 416.603 162.863 416.279 163.141C415.963 163.411 415.805 163.82 415.805 164.368C415.805 164.692 415.878 164.977 416.025 165.224C416.171 165.471 416.368 165.664 416.615 165.802C416.862 165.934 417.14 165.999 417.448 165.999Z" fill="#DAE6EA"/>
<mask id="mask4_1092_985" style="mask-type:alpha" maskUnits="userSpaceOnUse" x="342" y="174" width="17" height="18">
<rect x="342.416" y="174.717" width="16.5319" height="16.5319" fill="#D9D9D9"/>
</mask>
<g mask="url(#mask4_1092_985)">
<path d="M350.682 187.942C349.996 187.942 349.351 187.812 348.748 187.552C348.145 187.291 347.62 186.938 347.173 186.492C346.727 186.045 346.374 185.52 346.113 184.917C345.853 184.314 345.723 183.669 345.723 182.983C345.723 182.297 345.853 181.652 346.113 181.049C346.374 180.445 346.727 179.92 347.173 179.474C347.62 179.028 348.145 178.674 348.748 178.414C349.351 178.153 349.996 178.023 350.682 178.023C351.368 178.023 352.013 178.153 352.616 178.414C353.22 178.674 353.745 179.028 354.191 179.474C354.637 179.92 354.991 180.445 355.251 181.049C355.512 181.652 355.642 182.297 355.642 182.983C355.642 183.669 355.512 184.314 355.251 184.917C354.991 185.52 354.637 186.045 354.191 186.492C353.745 186.938 353.22 187.291 352.616 187.552C352.013 187.812 351.368 187.942 350.682 187.942ZM350.682 186.95C351.79 186.95 352.728 186.566 353.497 185.797C354.265 185.029 354.65 184.09 354.65 182.983C354.65 181.875 354.265 180.937 353.497 180.168C352.728 179.4 351.79 179.015 350.682 179.015C349.575 179.015 348.636 179.4 347.868 180.168C347.099 180.937 346.715 181.875 346.715 182.983C346.715 184.09 347.099 185.029 347.868 185.797C348.636 186.566 349.575 186.95 350.682 186.95ZM350.682 186.95C349.575 186.95 348.636 186.566 347.868 185.797C347.099 185.029 346.715 184.09 346.715 182.983C346.715 181.875 347.099 180.937 347.868 180.168C348.636 179.4 349.575 179.015 350.682 179.015C351.79 179.015 352.728 179.4 353.497 180.168C354.265 180.937 354.65 181.875 354.65 182.983C354.65 184.09 354.265 185.029 353.497 185.797C352.728 186.566 351.79 186.95 350.682 186.95Z" fill="#EC3B3B"/>
</g>
<path d="M366.131 186.983H365.274V179.449H362.485V178.674H368.92V179.449H366.131V186.983ZM375.073 186.231V186.983H370.085V178.674H374.992V179.426H370.953V182.319H374.644V183.071H370.953V186.231H375.073ZM379.624 186.983H378.768V179.449H375.979V178.674H382.413V179.449H379.624V186.983ZM384.446 186.983H383.578V178.674H384.446V182.319H389.168V178.674H390.036V186.983H389.168V183.071H384.446V186.983ZM396.895 186.231V186.983H391.907V178.674H396.814V179.426H392.775V182.319H396.467V183.071H392.775V186.231H396.895ZM399.375 186.983H398.507V178.674H401.47C402.357 178.674 403.055 178.894 403.564 179.334C404.073 179.766 404.328 180.383 404.328 181.185C404.328 181.81 404.135 182.342 403.749 182.782C403.371 183.214 402.854 183.484 402.199 183.592L404.548 186.983H403.506L401.273 183.696H399.375V186.983ZM399.375 179.403V182.967H401.4C402.033 182.967 402.534 182.817 402.905 182.516C403.275 182.207 403.46 181.764 403.46 181.185C403.46 180.607 403.275 180.167 402.905 179.866C402.534 179.557 402.033 179.403 401.4 179.403H399.375ZM407.16 186.312C407.16 186.52 407.091 186.694 406.952 186.832C406.821 186.971 406.647 187.041 406.431 187.041C406.223 187.041 406.049 186.971 405.91 186.832C405.771 186.694 405.702 186.52 405.702 186.312C405.702 186.096 405.771 185.918 405.91 185.779C406.049 185.64 406.223 185.571 406.431 185.571C406.647 185.571 406.821 185.64 406.952 185.779C407.091 185.918 407.16 186.096 407.16 186.312ZM407.16 181.602C407.16 181.81 407.091 181.984 406.952 182.122C406.821 182.261 406.647 182.331 406.431 182.331C406.223 182.331 406.049 182.261 405.91 182.122C405.771 181.984 405.702 181.81 405.702 181.602C405.702 181.386 405.771 181.208 405.91 181.069C406.049 180.931 406.223 180.861 406.431 180.861C406.647 180.861 406.821 180.931 406.952 181.069C407.091 181.208 407.16 181.386 407.16 181.602Z" fill="#DAE6EA"/>
<path d="M414.847 186.821C414.307 186.821 413.829 186.725 413.412 186.532C412.996 186.331 412.671 186.057 412.44 185.71C412.209 185.355 412.089 184.95 412.081 184.495H413.227C413.25 184.919 413.408 185.259 413.701 185.513C413.995 185.76 414.376 185.884 414.847 185.884C415.341 185.884 415.727 185.76 416.004 185.513C416.29 185.267 416.432 184.931 416.432 184.507C416.432 184.098 416.274 183.774 415.958 183.535C415.642 183.288 415.214 183.164 414.673 183.164H413.863V182.227H414.616C414.909 182.227 415.163 182.173 415.379 182.065C415.603 181.957 415.773 181.806 415.889 181.614C416.012 181.421 416.074 181.201 416.074 180.954C416.074 180.584 415.954 180.287 415.715 180.063C415.476 179.831 415.16 179.716 414.766 179.716C414.365 179.716 414.041 179.835 413.794 180.074C413.555 180.306 413.424 180.622 413.401 181.023H412.266C412.282 180.591 412.398 180.206 412.614 179.866C412.837 179.527 413.142 179.26 413.528 179.068C413.914 178.875 414.342 178.778 414.812 178.778C415.314 178.778 415.75 178.867 416.12 179.044C416.49 179.222 416.776 179.469 416.976 179.785C417.185 180.094 417.289 180.456 417.289 180.873C417.289 181.251 417.177 181.59 416.953 181.891C416.737 182.192 416.429 182.439 416.027 182.632C416.544 182.771 416.942 183.002 417.219 183.326C417.505 183.643 417.648 184.028 417.648 184.483C417.648 184.946 417.528 185.355 417.289 185.71C417.057 186.057 416.73 186.331 416.305 186.532C415.889 186.725 415.403 186.821 414.847 186.821ZM423.911 186.821C423.371 186.821 422.892 186.725 422.476 186.532C422.059 186.331 421.735 186.057 421.504 185.71C421.272 185.355 421.152 184.95 421.145 184.495H422.29C422.314 184.919 422.472 185.259 422.765 185.513C423.058 185.76 423.44 185.884 423.911 185.884C424.404 185.884 424.79 185.76 425.068 185.513C425.353 185.267 425.496 184.931 425.496 184.507C425.496 184.098 425.338 183.774 425.021 183.535C424.705 183.288 424.277 183.164 423.737 183.164H422.927V182.227H423.679C423.972 182.227 424.227 182.173 424.443 182.065C424.667 181.957 424.836 181.806 424.952 181.614C425.075 181.421 425.137 181.201 425.137 180.954C425.137 180.584 425.018 180.287 424.778 180.063C424.539 179.831 424.223 179.716 423.83 179.716C423.428 179.716 423.104 179.835 422.857 180.074C422.618 180.306 422.487 180.622 422.464 181.023H421.33C421.345 180.591 421.461 180.206 421.677 179.866C421.901 179.527 422.206 179.26 422.591 179.068C422.977 178.875 423.405 178.778 423.876 178.778C424.377 178.778 424.813 178.867 425.184 179.044C425.554 179.222 425.839 179.469 426.04 179.785C426.248 180.094 426.352 180.456 426.352 180.873C426.352 181.251 426.24 181.59 426.017 181.891C425.801 182.192 425.492 182.439 425.091 182.632C425.608 182.771 426.005 183.002 426.283 183.326C426.568 183.643 426.711 184.028 426.711 184.483C426.711 184.946 426.591 185.355 426.352 185.71C426.121 186.057 425.793 186.331 425.369 186.532C424.952 186.725 424.466 186.821 423.911 186.821ZM433.497 184.518C433.497 184.973 433.377 185.375 433.138 185.722C432.899 186.069 432.563 186.339 432.131 186.532C431.707 186.725 431.209 186.821 430.638 186.821C430.067 186.821 429.566 186.725 429.134 186.532C428.702 186.339 428.362 186.069 428.115 185.722C427.876 185.375 427.757 184.973 427.757 184.518C427.757 184.048 427.899 183.654 428.185 183.338C428.47 183.021 428.818 182.79 429.226 182.643C428.895 182.497 428.617 182.277 428.393 181.984C428.177 181.691 428.069 181.344 428.069 180.942C428.069 180.518 428.177 180.144 428.393 179.82C428.617 179.496 428.922 179.241 429.307 179.056C429.693 178.871 430.137 178.778 430.638 178.778C431.132 178.778 431.572 178.871 431.957 179.056C432.343 179.241 432.644 179.496 432.86 179.82C433.084 180.144 433.196 180.518 433.196 180.942C433.196 181.344 433.084 181.691 432.86 181.984C432.636 182.277 432.362 182.497 432.038 182.643C432.447 182.79 432.791 183.021 433.068 183.338C433.354 183.654 433.497 184.048 433.497 184.518ZM429.273 180.977C429.273 181.363 429.396 181.664 429.643 181.88C429.898 182.096 430.229 182.204 430.638 182.204C431.039 182.204 431.363 182.096 431.61 181.88C431.865 181.664 431.992 181.363 431.992 180.977C431.992 180.584 431.865 180.275 431.61 180.051C431.363 179.828 431.039 179.716 430.638 179.716C430.229 179.716 429.898 179.828 429.643 180.051C429.396 180.275 429.273 180.584 429.273 180.977ZM428.983 184.495C428.983 184.78 429.053 185.027 429.192 185.236C429.331 185.444 429.523 185.606 429.77 185.722C430.017 185.83 430.306 185.884 430.638 185.884C430.962 185.884 431.248 185.83 431.495 185.722C431.749 185.606 431.946 185.444 432.085 185.236C432.224 185.027 432.293 184.78 432.293 184.495C432.293 184.21 432.224 183.967 432.085 183.766C431.946 183.565 431.749 183.411 431.495 183.303C431.248 183.195 430.962 183.141 430.638 183.141C430.306 183.141 430.017 183.195 429.77 183.303C429.523 183.411 429.331 183.565 429.192 183.766C429.053 183.967 428.983 184.21 428.983 184.495ZM440.209 184.518C440.209 184.973 440.09 185.375 439.851 185.722C439.612 186.069 439.276 186.339 438.844 186.532C438.42 186.725 437.922 186.821 437.351 186.821C436.78 186.821 436.279 186.725 435.847 186.532C435.415 186.339 435.075 186.069 434.828 185.722C434.589 185.375 434.47 184.973 434.47 184.518C434.47 184.048 434.612 183.654 434.898 183.338C435.183 183.021 435.53 182.79 435.939 182.643C435.607 182.497 435.33 182.277 435.106 181.984C434.89 181.691 434.782 181.344 434.782 180.942C434.782 180.518 434.89 180.144 435.106 179.82C435.33 179.496 435.634 179.241 436.02 179.056C436.406 178.871 436.85 178.778 437.351 178.778C437.845 178.778 438.285 178.871 438.67 179.056C439.056 179.241 439.357 179.496 439.573 179.82C439.797 180.144 439.909 180.518 439.909 180.942C439.909 181.344 439.797 181.691 439.573 181.984C439.349 182.277 439.075 182.497 438.751 182.643C439.16 182.79 439.504 183.021 439.781 183.338C440.067 183.654 440.209 184.048 440.209 184.518ZM435.986 180.977C435.986 181.363 436.109 181.664 436.356 181.88C436.61 182.096 436.942 182.204 437.351 182.204C437.752 182.204 438.076 182.096 438.323 181.88C438.578 181.664 438.705 181.363 438.705 180.977C438.705 180.584 438.578 180.275 438.323 180.051C438.076 179.828 437.752 179.716 437.351 179.716C436.942 179.716 436.61 179.828 436.356 180.051C436.109 180.275 435.986 180.584 435.986 180.977ZM435.696 184.495C435.696 184.78 435.766 185.027 435.905 185.236C436.043 185.444 436.236 185.606 436.483 185.722C436.73 185.83 437.019 185.884 437.351 185.884C437.675 185.884 437.961 185.83 438.207 185.722C438.462 185.606 438.659 185.444 438.798 185.236C438.936 185.027 439.006 184.78 439.006 184.495C439.006 184.21 438.936 183.967 438.798 183.766C438.659 183.565 438.462 183.411 438.207 183.303C437.961 183.195 437.675 183.141 437.351 183.141C437.019 183.141 436.73 183.195 436.483 183.303C436.236 183.411 436.043 183.565 435.905 183.766C435.766 183.967 435.696 184.21 435.696 184.495Z" fill="#DAE6EA"/>
<mask id="mask5_1092_985" style="mask-type:alpha" maskUnits="userSpaceOnUse" x="342" y="194" width="17" height="18">
<rect x="342.416" y="194.555" width="16.5319" height="16.5319" fill="#7189B8"/>
</mask>
<g mask="url(#mask5_1092_985)">
<path d="M350.682 207.781C349.996 207.781 349.351 207.65 348.748 207.39C348.145 207.13 347.62 206.776 347.173 206.33C346.727 205.884 346.374 205.359 346.113 204.755C345.853 204.152 345.723 203.507 345.723 202.821C345.723 202.135 345.853 201.49 346.113 200.887C346.374 200.283 346.727 199.759 347.173 199.312C347.62 198.866 348.145 198.512 348.748 198.252C349.351 197.992 349.996 197.862 350.682 197.862C351.368 197.862 352.013 197.992 352.616 198.252C353.22 198.512 353.745 198.866 354.191 199.312C354.637 199.759 354.991 200.283 355.251 200.887C355.512 201.49 355.642 202.135 355.642 202.821C355.642 203.507 355.512 204.152 355.251 204.755C354.991 205.359 354.637 205.884 354.191 206.33C353.745 206.776 353.22 207.13 352.616 207.39C352.013 207.65 351.368 207.781 350.682 207.781ZM350.682 206.789C351.79 206.789 352.728 206.404 353.497 205.636C354.265 204.867 354.65 203.929 354.65 202.821C354.65 201.713 354.265 200.775 353.497 200.007C352.728 199.238 351.79 198.853 350.682 198.853C349.575 198.853 348.636 199.238 347.868 200.007C347.099 200.775 346.715 201.713 346.715 202.821C346.715 203.929 347.099 204.867 347.868 205.636C348.636 206.404 349.575 206.789 350.682 206.789ZM350.682 206.789C349.575 206.789 348.636 206.404 347.868 205.636C347.099 204.867 346.715 203.929 346.715 202.821C346.715 201.713 347.099 200.775 347.868 200.007C348.636 199.238 349.575 198.853 350.682 198.853C351.79 198.853 352.728 199.238 353.497 200.007C354.265 200.775 354.65 201.713 354.65 202.821C354.65 203.929 354.265 204.867 353.497 205.636C352.728 206.404 351.79 206.789 350.682 206.789Z" fill="#7189B8"/>
</g>
<path d="M369.012 204.518C369.012 204.958 368.896 205.363 368.665 205.733C368.434 206.096 368.094 206.389 367.647 206.613C367.199 206.829 366.651 206.937 366.003 206.937C365.355 206.937 364.8 206.825 364.337 206.601C363.882 206.378 363.527 206.069 363.272 205.675C363.025 205.274 362.887 204.811 362.856 204.287H363.735C363.781 204.873 363.99 205.344 364.36 205.699C364.73 206.053 365.274 206.231 365.992 206.231C366.385 206.231 366.74 206.169 367.056 206.046C367.38 205.915 367.635 205.729 367.82 205.49C368.005 205.243 368.098 204.958 368.098 204.634C368.098 204.202 367.967 203.878 367.704 203.662C367.442 203.438 367.018 203.265 366.432 203.141L365.378 202.933C365.101 202.879 364.827 202.802 364.557 202.701C364.294 202.601 364.055 202.47 363.839 202.308C363.623 202.138 363.45 201.93 363.319 201.683C363.187 201.428 363.122 201.12 363.122 200.757C363.122 200.31 363.241 199.909 363.481 199.554C363.72 199.199 364.051 198.917 364.476 198.709C364.9 198.501 365.39 198.396 365.945 198.396C366.493 198.396 366.983 198.504 367.415 198.72C367.847 198.937 368.198 199.237 368.468 199.623C368.738 200.009 368.885 200.468 368.908 201H368.017C368.001 200.63 367.901 200.302 367.716 200.017C367.539 199.731 367.299 199.507 366.999 199.345C366.705 199.183 366.358 199.102 365.957 199.102C365.533 199.102 365.174 199.18 364.881 199.334C364.595 199.488 364.375 199.685 364.221 199.924C364.075 200.163 364.001 200.425 364.001 200.711C364.001 201.035 364.082 201.293 364.244 201.486C364.414 201.679 364.63 201.83 364.892 201.938C365.162 202.038 365.452 202.119 365.76 202.181L366.813 202.4C367.515 202.547 368.055 202.782 368.434 203.106C368.819 203.423 369.012 203.893 369.012 204.518ZM374.116 206.995C373.514 206.995 372.959 206.883 372.45 206.659C371.94 206.435 371.497 206.127 371.119 205.733C370.741 205.34 370.448 204.881 370.239 204.356C370.031 203.824 369.927 203.257 369.927 202.655C369.927 202.053 370.031 201.49 370.239 200.966C370.448 200.441 370.741 199.982 371.119 199.588C371.497 199.195 371.94 198.89 372.45 198.674C372.959 198.45 373.514 198.339 374.116 198.339C374.718 198.339 375.273 198.45 375.782 198.674C376.292 198.89 376.735 199.195 377.113 199.588C377.499 199.982 377.796 200.441 378.004 200.966C378.213 201.49 378.317 202.053 378.317 202.655C378.317 203.257 378.213 203.824 378.004 204.356C377.796 204.881 377.499 205.34 377.113 205.733C376.735 206.127 376.292 206.435 375.782 206.659C375.273 206.883 374.718 206.995 374.116 206.995ZM374.116 206.219C374.61 206.219 375.057 206.131 375.458 205.953C375.86 205.768 376.207 205.513 376.5 205.189C376.793 204.858 377.017 204.476 377.171 204.044C377.333 203.612 377.414 203.149 377.414 202.655C377.414 202.161 377.333 201.698 377.171 201.266C377.017 200.834 376.793 200.46 376.5 200.144C376.207 199.82 375.86 199.569 375.458 199.392C375.057 199.207 374.61 199.114 374.116 199.114C373.63 199.114 373.183 199.207 372.774 199.392C372.373 199.569 372.025 199.82 371.732 200.144C371.439 200.46 371.211 200.834 371.049 201.266C370.895 201.698 370.818 202.161 370.818 202.655C370.818 203.149 370.895 203.612 371.049 204.044C371.211 204.476 371.439 204.858 371.732 205.189C372.025 205.513 372.373 205.768 372.774 205.953C373.183 206.131 373.63 206.219 374.116 206.219ZM384.447 206.821H379.702V198.512H380.57V206.046H384.447V206.821ZM386.825 203.812H390.84L391.083 204.518H386.478L386.825 203.812ZM391.593 206.821L388.792 199.438L385.968 206.821H385.112L388.341 198.512H389.29L392.507 206.821H391.593ZM399.408 206.821L394.559 199.739V206.821H393.749V198.512H394.71L399.512 205.502V198.512H400.334V206.821H399.408ZM403.302 203.812H407.317L407.56 204.518H402.955L403.302 203.812ZM408.069 206.821L405.269 199.438L402.445 206.821H401.589L404.818 198.512H405.767L408.984 206.821H408.069ZM411.511 206.15C411.511 206.358 411.441 206.532 411.303 206.671C411.171 206.81 410.998 206.879 410.782 206.879C410.574 206.879 410.4 206.81 410.261 206.671C410.122 206.532 410.053 206.358 410.053 206.15C410.053 205.934 410.122 205.756 410.261 205.618C410.4 205.479 410.574 205.409 410.782 205.409C410.998 205.409 411.171 205.479 411.303 205.618C411.441 205.756 411.511 205.934 411.511 206.15ZM411.511 201.44C411.511 201.648 411.441 201.822 411.303 201.961C411.171 202.1 410.998 202.169 410.782 202.169C410.574 202.169 410.4 202.1 410.261 201.961C410.122 201.822 410.053 201.648 410.053 201.44C410.053 201.224 410.122 201.047 410.261 200.908C410.4 200.769 410.574 200.699 410.782 200.699C410.998 200.699 411.171 200.769 411.303 200.908C411.441 201.047 411.511 201.224 411.511 201.44Z" fill="#DAE6EA"/>
<path d="M422.219 205.514V206.555H417.162V205.884L419.604 203.245C419.913 202.906 420.16 202.613 420.345 202.366C420.538 202.111 420.676 201.876 420.761 201.66C420.846 201.444 420.889 201.22 420.889 200.989C420.889 200.727 420.831 200.495 420.715 200.295C420.607 200.094 420.453 199.94 420.252 199.832C420.052 199.724 419.816 199.67 419.546 199.67C419.253 199.67 418.998 199.728 418.782 199.843C418.574 199.959 418.408 200.125 418.285 200.341C418.161 200.557 418.1 200.811 418.1 201.105H416.954C416.954 200.619 417.066 200.19 417.29 199.82C417.521 199.442 417.834 199.149 418.227 198.941C418.62 198.725 419.076 198.617 419.592 198.617C420.079 198.617 420.511 198.713 420.889 198.906C421.274 199.099 421.575 199.365 421.791 199.704C422.007 200.036 422.115 200.418 422.115 200.85C422.115 201.143 422.069 201.425 421.976 201.695C421.884 201.957 421.722 202.246 421.49 202.563C421.259 202.879 420.927 203.269 420.495 203.732L418.921 205.514H422.219ZM428.054 206.555H426.874V199.751H425.358V198.732H428.054V206.555ZM434.409 199.415L431.389 206.555H430.128L433.102 199.785H429.133V198.732H434.409V199.415ZM437.768 206.671C437.259 206.671 436.8 206.571 436.391 206.37C435.982 206.162 435.655 205.88 435.408 205.525C435.169 205.163 435.037 204.75 435.014 204.287H436.183C436.229 204.704 436.395 205.031 436.681 205.271C436.966 205.502 437.329 205.618 437.768 205.618C438.123 205.618 438.42 205.552 438.659 205.421C438.899 205.282 439.076 205.097 439.192 204.866C439.315 204.626 439.377 204.356 439.377 204.056C439.377 203.786 439.311 203.535 439.18 203.303C439.057 203.072 438.876 202.887 438.636 202.748C438.397 202.609 438.104 202.54 437.757 202.54C437.41 202.54 437.105 202.613 436.843 202.759C436.588 202.898 436.38 203.11 436.218 203.396L435.269 203.095L435.963 198.732H440.141V199.774H436.808L436.461 202.03C436.684 201.861 436.92 201.733 437.167 201.649C437.414 201.564 437.668 201.521 437.93 201.521C438.509 201.521 438.995 201.641 439.389 201.88C439.782 202.111 440.079 202.42 440.28 202.806C440.488 203.191 440.592 203.608 440.592 204.056C440.592 204.403 440.53 204.734 440.407 205.051C440.283 205.367 440.098 205.649 439.851 205.896C439.612 206.135 439.319 206.324 438.972 206.463C438.625 206.601 438.224 206.671 437.768 206.671Z" fill="#DAE6EA"/>
</g>
<defs>
<filter id="filter0_d_1092_985" x="324.23" y="77.7108" width="135.561" height="151.267" filterUnits="userSpaceOnUse" color-interpolation-filters="sRGB">
<feFlood flood-opacity="0" result="BackgroundImageFix"/>
<feColorMatrix in="SourceAlpha" type="matrix" values="0 0 0 0 0 0 0 0 0 0 0 0 0 0 0 0 0 0 127 0" result="hardAlpha"/>
<feOffset/>
<feGaussianBlur stdDeviation="4.13297"/>
<feComposite in2="hardAlpha" operator="out"/>
<feColorMatrix type="matrix" values="0 0 0 0 0 0 0 0 0 0 0 0 0 0 0 0 0 0 0.5 0"/>
<feBlend mode="normal" in2="BackgroundImageFix" result="effect1_dropShadow_1092_985"/>
<feBlend mode="normal" in="SourceGraphic" in2="effect1_dropShadow_1092_985" result="shape"/>
</filter>
</defs>
</svg>
