<svg width="59" height="64" viewBox="0 0 59 64" fill="none" xmlns="http://www.w3.org/2000/svg">
<path d="M54.9999 17.8331L29.4999 31.9998M29.4999 31.9998L3.9999 17.8331M29.4999 31.9998L29.5 60.4999M56.5 44.1755V19.8242C56.5 18.7963 56.5 18.2823 56.3485 17.8239C56.2146 17.4184 55.9955 17.0462 55.7061 16.7321C55.3789 16.3771 54.9297 16.1275 54.0311 15.6283L31.8311 3.29493C30.9803 2.82226 30.5549 2.58592 30.1044 2.49327C29.7056 2.41126 29.2944 2.41126 28.8957 2.49327C28.4451 2.58592 28.0197 2.82226 27.1689 3.29494L4.96891 15.6283C4.07034 16.1275 3.62106 16.3771 3.2939 16.7321C3.00447 17.0462 2.78544 17.4184 2.65145 17.8239C2.5 18.2823 2.5 18.7963 2.5 19.8242V44.1755C2.5 45.2035 2.5 45.7174 2.65145 46.1758C2.78544 46.5814 3.00447 46.9536 3.2939 47.2677C3.62106 47.6227 4.07034 47.8723 4.96892 48.3715L27.1689 60.7048C28.0197 61.1775 28.4451 61.4138 28.8957 61.5065C29.2944 61.5885 29.7056 61.5885 30.1044 61.5065C30.5549 61.4138 30.9803 61.1775 31.8311 60.7048L54.0311 48.3715C54.9297 47.8723 55.3789 47.6227 55.7061 47.2677C55.9955 46.9536 56.2146 46.5814 56.3485 46.1758C56.5 45.7174 56.5 45.2035 56.5 44.1755Z" stroke="#EC3B3B" stroke-width="4" stroke-linecap="round" stroke-linejoin="round"/>
</svg>
