<?xml version="1.0" encoding="UTF-8"?>
<svg id="Layer_2" data-name="Layer 2" xmlns="http://www.w3.org/2000/svg" viewBox="0 0 135.63 156.62">
  <defs>
    <style>
      .cls-1 {
        fill: #dae6ea;
      }

      .cls-1, .cls-2 {
        stroke-width: 0px;
      }

      .cls-2 {
        fill: #ec3b3b;
      }
    </style>
  </defs>
  <g id="Layer_1-2" data-name="Layer 1">
    <g>
      <path class="cls-2" d="m25.67,0h20.73v135.91h-20.73V0Z"/>
      <path class="cls-2" d="m69.5,156.62h-22.31v-20.7h22.31c13.95,0,25.62-4.87,33.77-14.08,7.51-8.49,11.63-20.12,11.63-32.74h20.73c0,17.67-5.97,34.16-16.82,46.44-12.19,13.79-29.24,21.08-49.31,21.08Z"/>
      <path class="cls-1" d="m0,94.31v-20.7c31.62,0,55.1-6.82,69.22-12.54,15.31-6.2,23.26-12.49,23.34-12.56l13.08,16.06c-1.49,1.21-37.24,29.74-105.64,29.74h0Z"/>
      <path class="cls-1" d="m0,61.78v-20.7c31.11,0,53.33-8.37,66.51-15.38,14.29-7.62,21.34-15.35,21.41-15.43l15.53,13.71c-1.36,1.54-34.08,37.81-103.45,37.81h0Z"/>
    </g>
  </g>
</svg>