<svg xmlns="http://www.w3.org/2000/svg" xmlns:xlink="http://www.w3.org/1999/xlink" fill="none" version="1.1" width="1440" height="186" viewBox="0 0 1440 186"><defs><clipPath id="master_svg0_0_13452"><rect x="0" y="0" width="1440" height="186" rx="0"/></clipPath></defs><g clip-path="url(#master_svg0_0_13452)"><g><g><path d="M1243.155029296875,46.5C1243.155029296875,46.5,1440.000029296875,46.5,1440.000029296875,46.5C1440.000029296875,46.5,1440.000029296875,93,1440.000029296875,93C1440.000029296875,93,1243.155029296875,93,1243.155029296875,93C1243.155029296875,93,1243.155029296875,46.5,1243.155029296875,46.5Z" fill="#EC3B3B" fill-opacity="1"/></g><g><path d="M1263.6224670410156,46.5C1263.6224670410156,46.5,1310.0624670410157,46.5,1310.0624670410157,46.5C1310.0624670410157,46.5,1310.0624670410157,93,1310.0624670410157,93C1310.0624670410157,93,1263.6224670410156,93,1263.6224670410156,93C1263.6224670410156,93,1263.6224670410156,46.5,1263.6224670410156,46.5Z" fill="#EC3B3B" fill-opacity="1"/></g></g><g><g><path d="M1114.387451171875,0C1114.387451171875,0,1243.155451171875,0,1243.155451171875,0C1243.155451171875,0,1243.155451171875,46.5,1243.155451171875,46.5C1243.155451171875,46.5,1114.387451171875,46.5,1114.387451171875,46.5C1114.387451171875,46.5,1114.387451171875,0,1114.387451171875,0Z" fill="#EC3B3B" fill-opacity="1"/></g><g><path d="M1134.8550109863281,0C1134.8550109863281,0,1181.2950109863282,0,1181.2950109863282,0C1181.2950109863282,0,1181.2950109863282,46.5,1181.2950109863282,46.5C1181.2950109863282,46.5,1134.8550109863281,46.5,1134.8550109863281,46.5C1134.8550109863281,46.5,1134.8550109863281,0,1134.8550109863281,0Z" fill="#EC3B3B" fill-opacity="1"/></g></g><g><path d="M151.875,46.5C151.875,46.5,384.03700000000003,46.5,384.03700000000003,46.5C384.03700000000003,46.5,384.03700000000003,93,384.03700000000003,93C384.03700000000003,93,151.875,93,151.875,93C151.875,93,151.875,46.5,151.875,46.5Z" fill="#EC3B3B" fill-opacity="1"/></g><g><path d="M180.1800079345703,46.5C180.1800079345703,46.5,226.6200079345703,46.5,226.6200079345703,46.5C226.6200079345703,46.5,226.6200079345703,93,226.6200079345703,93C226.6200079345703,93,180.1800079345703,93,180.1800079345703,93C180.1800079345703,93,180.1800079345703,46.5,180.1800079345703,46.5Z" fill="#EC3B3B" fill-opacity="1"/></g><g><g><path d="M0,0C0,0,151.875,0,151.875,0C151.875,0,151.875,46.5,151.875,46.5C151.875,46.5,0,46.5,0,46.5C0,46.5,0,0,0,0Z" fill="#EC3B3B" fill-opacity="1"/></g><g><path d="M28.30500030517578,0C28.30500030517578,0,74.74500030517578,0,74.74500030517578,0C74.74500030517578,0,74.74500030517578,46.5,74.74500030517578,46.5C74.74500030517578,46.5,28.30500030517578,46.5,28.30500030517578,46.5C28.30500030517578,46.5,28.30500030517578,0,28.30500030517578,0Z" fill="#EC3B3B" fill-opacity="1"/></g></g><g><g><path d="M928.5674438476562,46.5C928.5674438476562,46.5,1087.0504438476562,46.5,1087.0504438476562,46.5C1087.0504438476562,46.5,1087.0504438476562,93,1087.0504438476562,93C1087.0504438476562,93,928.5674438476562,93,928.5674438476562,93C928.5674438476562,93,928.5674438476562,46.5,928.5674438476562,46.5Z" fill="#EC3B3B" fill-opacity="1"/></g><g><path d="M949.0350036621094,46.5C949.0350036621094,46.5,995.4750036621094,46.5,995.4750036621094,46.5C995.4750036621094,46.5,995.4750036621094,93,995.4750036621094,93C995.4750036621094,93,949.0350036621094,93,949.0350036621094,93C949.0350036621094,93,949.0350036621094,46.5,949.0350036621094,46.5Z" fill="#EC3B3B" fill-opacity="1"/></g></g><g><path d="M869.91748046875,0C869.91748046875,0,928.56748046875,0,928.56748046875,0C928.56748046875,0,928.56748046875,46.5,928.56748046875,46.5C928.56748046875,46.5,869.91748046875,46.5,869.91748046875,46.5C869.91748046875,46.5,869.91748046875,0,869.91748046875,0Z" fill="#EC3B3B" fill-opacity="1"/></g><g><path d="M586.7550048828125,46.5C586.7550048828125,46.5,827.7370048828125,46.5,827.7370048828125,46.5C827.7370048828125,46.5,827.7370048828125,93,827.7370048828125,93C827.7370048828125,93,586.7550048828125,93,586.7550048828125,93C586.7550048828125,93,586.7550048828125,46.5,586.7550048828125,46.5Z" fill="#FFFFFF" fill-opacity="1"/></g><g><path d="M451.1850280761719,0C451.1850280761719,0,586.7550280761718,0,586.7550280761718,0C586.7550280761718,0,586.7550280761718,46.5,586.7550280761718,46.5C586.7550280761718,46.5,451.1850280761719,46.5,451.1850280761719,46.5C451.1850280761719,46.5,451.1850280761719,0,451.1850280761719,0Z" fill="#EC3B3B" fill-opacity="1"/></g><g><g><path d="M0,139.5C0,139.5,196.845,139.5,196.845,139.5C196.845,139.5,196.845,186,196.845,186C196.845,186,0,186,0,186C0,186,0,139.5,0,139.5Z" fill="#EC3B3B" fill-opacity="1"/></g><g><path d="M129.9375,139.5C129.9375,139.5,176.3775,139.5,176.3775,139.5C176.3775,139.5,176.3775,186,176.3775,186C176.3775,186,129.9375,186,129.9375,186C129.9375,186,129.9375,139.5,129.9375,139.5Z" fill="#EC3B3B" fill-opacity="1"/></g></g><g><g><path d="M196.84500122070312,93C196.84500122070312,93,325.61300122070315,93,325.61300122070315,93C325.61300122070315,93,325.61300122070315,139.5,325.61300122070315,139.5C325.61300122070315,139.5,196.84500122070312,139.5,196.84500122070312,139.5C196.84500122070312,139.5,196.84500122070312,93,196.84500122070312,93Z" fill="#FFFFFF" fill-opacity="1"/></g><g><path d="M258.7050018310547,93C258.7050018310547,93,305.1450018310547,93,305.1450018310547,93C305.1450018310547,93,305.1450018310547,139.5,305.1450018310547,139.5C305.1450018310547,139.5,258.7050018310547,139.5,258.7050018310547,139.5C258.7050018310547,139.5,258.7050018310547,93,258.7050018310547,93Z" fill="#FFFFFF" fill-opacity="1"/></g></g><g><g><path d="M1055.96240234375,139.5C1055.96240234375,139.5,1288.12440234375,139.5,1288.12440234375,139.5C1288.12440234375,139.5,1288.12440234375,186,1288.12440234375,186C1288.12440234375,186,1055.96240234375,186,1055.96240234375,186C1055.96240234375,186,1055.96240234375,139.5,1055.96240234375,139.5Z" fill="#EC3B3B" fill-opacity="1"/></g><g><path d="M1213.3799743652344,139.5C1213.3799743652344,139.5,1259.8199743652344,139.5,1259.8199743652344,139.5C1259.8199743652344,139.5,1259.8199743652344,186,1259.8199743652344,186C1259.8199743652344,186,1213.3799743652344,186,1213.3799743652344,186C1213.3799743652344,186,1213.3799743652344,139.5,1213.3799743652344,139.5Z" fill="#EC3B3B" fill-opacity="1"/></g></g><g><g><path d="M1288.125,93C1288.125,93,1401.555,93,1401.555,93C1401.555,93,1401.555,139.5,1401.555,139.5C1401.555,139.5,1288.125,139.5,1288.125,139.5C1288.125,139.5,1288.125,93,1288.125,93Z" fill="#FFFFFF" fill-opacity="1"/></g><g><path d="M1333.2300109863281,93C1333.2300109863281,93,1379.6700109863282,93,1379.6700109863282,93C1379.6700109863282,93,1379.6700109863282,139.5,1379.6700109863282,139.5C1379.6700109863282,139.5,1333.2300109863281,139.5,1333.2300109863281,139.5C1333.2300109863281,139.5,1333.2300109863281,93,1333.2300109863281,93Z" fill="#FFFFFF" fill-opacity="1"/></g></g><g><g><path d="M326.6025085449219,139.5C326.6025085449219,139.5,617.1755085449219,139.5,617.1755085449219,139.5C617.1755085449219,139.5,617.1755085449219,186,617.1755085449219,186C617.1755085449219,186,326.6025085449219,186,326.6025085449219,186C326.6025085449219,186,326.6025085449219,139.5,326.6025085449219,139.5Z" fill="#EC3B3B" fill-opacity="1"/></g><g><path d="M494.5124816894531,139.5C494.5124816894531,139.5,579.6599816894532,139.5,579.6599816894532,139.5C579.6599816894532,139.5,579.6599816894532,186,579.6599816894532,186C579.6599816894532,186,494.5124816894531,186,494.5124816894531,186C494.5124816894531,186,494.5124816894531,139.5,494.5124816894531,139.5Z" fill="#EC3B3B" fill-opacity="1"/></g></g><g><path d="M384.0374755859375,93C384.0374755859375,93,451.1849755859375,93,451.1849755859375,93C451.1849755859375,93,451.1849755859375,139.5,451.1849755859375,139.5C451.1849755859375,139.5,384.0374755859375,139.5,384.0374755859375,139.5C384.0374755859375,139.5,384.0374755859375,93,384.0374755859375,93Z" fill="#EC3B3B" fill-opacity="1"/></g><g><g><path d="M585.9224853515625,139.5C585.9224853515625,139.5,789.8324853515625,139.5,789.8324853515625,139.5C789.8324853515625,139.5,789.8324853515625,186,789.8324853515625,186C789.8324853515625,186,585.9224853515625,186,585.9224853515625,186C585.9224853515625,186,585.9224853515625,139.5,585.9224853515625,139.5Z" fill="#EC3B3B" fill-opacity="1"/></g><g><path d="M707.3324890136719,139.5C707.3324890136719,139.5,746.6249890136719,139.5,746.6249890136719,139.5C746.6249890136719,139.5,746.6249890136719,186,746.6249890136719,186C746.6249890136719,186,707.3324890136719,186,707.3324890136719,186C707.3324890136719,186,707.3324890136719,139.5,707.3324890136719,139.5Z" fill="#EC3B3B" fill-opacity="1"/></g></g><g><path d="M789.824951171875,93C789.824951171875,93,988.807951171875,93,988.807951171875,93C988.807951171875,93,988.807951171875,139.5,988.807951171875,139.5C988.807951171875,139.5,789.824951171875,139.5,789.824951171875,139.5C789.824951171875,139.5,789.824951171875,93,789.824951171875,93Z" fill="#EC3B3B" fill-opacity="1"/></g></g></svg>