<svg width="522" height="189" viewBox="0 0 522 189" fill="none" xmlns="http://www.w3.org/2000/svg">
<rect width="522" height="189" fill="#1E1E1E"/>
<g clip-path="url(#clip0_0_1)">
<rect width="1440" height="6443" transform="translate(-839 -129)" fill="#07153B"/>
<g opacity="0.2" filter="url(#filter0_f_0_1)">
<circle cx="434" cy="155" r="384" fill="#EC3B3B"/>
</g>
<g clip-path="url(#clip1_0_1)">
<rect x="0.09375" width="520.997" height="188.551" rx="13.2317" fill="url(#paint0_linear_0_1)"/>
<rect x="0.300495" y="0.206745" width="520.583" height="188.138" rx="13.0249" stroke="#DAE6EA" stroke-opacity="0.2" stroke-width="0.413489"/>
<path d="M28.0293 34.3589V35.8474H20.8015V34.8881L24.2913 31.1171C24.7324 30.632 25.0852 30.213 25.3498 29.8601C25.6255 29.4962 25.824 29.1599 25.9453 28.8512C26.0666 28.5425 26.1272 28.2227 26.1272 27.8919C26.1272 27.517 26.0445 27.1862 25.8791 26.8995C25.7247 26.6128 25.5042 26.3923 25.2175 26.2379C24.9308 26.0836 24.5945 26.0064 24.2086 26.0064C23.7896 26.0064 23.4257 26.0891 23.117 26.2545C22.8193 26.4199 22.5822 26.6569 22.4058 26.9657C22.2294 27.2744 22.1412 27.6383 22.1412 28.0573H20.5038C20.5038 27.3626 20.6636 26.7507 20.9834 26.2214C21.3142 25.6811 21.7608 25.2621 22.3231 24.9644C22.8855 24.6557 23.536 24.5013 24.2748 24.5013C24.9694 24.5013 25.5869 24.6391 26.1272 24.9148C26.6785 25.1904 27.1086 25.5708 27.4173 26.056C27.726 26.5301 27.8804 27.076 27.8804 27.6934C27.8804 28.1124 27.8142 28.5149 27.6819 28.9008C27.5496 29.2757 27.3181 29.6892 26.9873 30.1413C26.6565 30.5934 26.1823 31.1502 25.5649 31.8118L23.3155 34.3589H28.0293ZM37.4175 33.383H35.8959V35.8474H34.2254V33.383H28.85V32.2087L34.6058 24.6667H35.8959V31.9276H37.4175V33.383ZM30.719 31.9276H34.2254V27.1972L30.719 31.9276ZM41.1249 35.8474H39.3055V23.972H41.1249V28.9339H47.1453V23.972H48.9646V35.8474H47.1453V30.5217H41.1249V35.8474ZM59.1235 31.7125H56.8245V35.8474H55.0052V23.972H59.1235C60.0057 23.972 60.772 24.1209 61.4225 24.4186C62.0841 24.7053 62.5969 25.1353 62.9607 25.7087C63.3246 26.271 63.5065 26.9712 63.5065 27.8092C63.5065 28.6362 63.3246 29.3419 62.9607 29.9263C62.5969 30.4996 62.0841 30.9407 61.4225 31.2494C60.772 31.5582 60.0057 31.7125 59.1235 31.7125ZM59.107 25.5102H56.8245V30.1744H59.107C59.9119 30.1744 60.5404 29.9649 60.9925 29.5459C61.4556 29.1269 61.6872 28.5535 61.6872 27.8257C61.6872 27.087 61.4556 26.5191 60.9925 26.1222C60.5404 25.7142 59.9119 25.5102 59.107 25.5102ZM66.8645 31.3652V35.8474H65.194V27.0815H66.7487V28.9339C67.0574 28.3274 67.515 27.8478 68.1215 27.495C68.7389 27.1421 69.406 26.9657 70.1228 26.9657V28.7023C69.4942 28.6693 68.9319 28.7409 68.4357 28.9174C67.9506 29.0938 67.5646 29.386 67.2779 29.794C67.0023 30.1909 66.8645 30.7147 66.8645 31.3652ZM73.1153 35.8474H71.4448V27.0815H73.1153V35.8474ZM73.4791 25.0471C73.4791 25.3558 73.3633 25.6205 73.1318 25.841C72.9113 26.0505 72.6246 26.1552 72.2717 26.1552C71.9079 26.1552 71.6102 26.0505 71.3786 25.841C71.1581 25.6205 71.0478 25.3558 71.0478 25.0471C71.0478 24.7163 71.1581 24.4517 71.3786 24.2532C71.6102 24.0437 71.9079 23.9389 72.2717 23.9389C72.6246 23.9389 72.9113 24.0437 73.1318 24.2532C73.3633 24.4517 73.4791 24.7163 73.4791 25.0471ZM78.8911 36.0294C78.0861 36.0294 77.3749 35.8364 76.7575 35.4505C76.151 35.0646 75.6714 34.5298 75.3185 33.8462C74.9767 33.1515 74.8058 32.3576 74.8058 31.4645C74.8058 30.5823 74.9822 29.7995 75.335 29.1158C75.6879 28.4322 76.1731 27.8974 76.7905 27.5115C77.408 27.1145 78.1082 26.9161 78.8911 26.9161C79.6188 26.9161 80.2638 27.0704 80.8262 27.3792C81.3996 27.6769 81.8682 28.1069 82.2321 28.6693C82.607 29.2206 82.844 29.8767 82.9433 30.6375H81.1901C81.1019 29.9318 80.8538 29.3805 80.4458 28.9835C80.0378 28.5866 79.5251 28.3881 78.9076 28.3881C78.4224 28.3881 78.0034 28.5204 77.6506 28.785C77.2977 29.0386 77.0221 29.3915 76.8236 29.8436C76.6251 30.2957 76.5259 30.8359 76.5259 31.4645C76.5259 32.0819 76.6251 32.6222 76.8236 33.0853C77.0221 33.5484 77.2977 33.9068 77.6506 34.1604C78.0034 34.414 78.4224 34.5408 78.9076 34.5408C79.5361 34.5408 80.0488 34.3423 80.4458 33.9454C80.8538 33.5484 81.1074 32.9971 81.2066 32.2914H82.9433C82.855 33.0633 82.629 33.7304 82.2651 34.2927C81.9013 34.844 81.4326 35.2741 80.8593 35.5828C80.2859 35.8805 79.6298 36.0294 78.8911 36.0294ZM88.1496 36.0128C87.3006 36.0128 86.5563 35.8254 85.9168 35.4505C85.2883 35.0646 84.7976 34.5243 84.4447 33.8296C84.0919 33.135 83.9155 32.33 83.9155 31.4148C83.9155 30.5438 84.0974 29.7719 84.4613 29.0993C84.8252 28.4267 85.3213 27.8974 85.9498 27.5115C86.5783 27.1145 87.2951 26.9161 88.1 26.9161C88.7616 26.9161 89.3515 27.0429 89.8697 27.2965C90.399 27.5391 90.8456 27.8864 91.2094 28.3385C91.5843 28.7795 91.8545 29.3033 92.0199 29.9097C92.1853 30.5052 92.2294 31.1612 92.1522 31.8779H84.8913V30.7698H90.3825C90.3494 29.9538 90.1233 29.3198 89.7043 28.8677C89.2964 28.4046 88.7505 28.1731 88.0669 28.1731C87.5707 28.1731 87.1352 28.3054 86.7603 28.57C86.3964 28.8236 86.1097 29.193 85.9002 29.6782C85.7017 30.1523 85.6025 30.7312 85.6025 31.4148C85.6025 32.0985 85.7017 32.6884 85.9002 33.1846C86.0987 33.6697 86.3854 34.0446 86.7603 34.3093C87.1352 34.5739 87.5873 34.7062 88.1165 34.7062C88.745 34.7062 89.2633 34.5463 89.6712 34.2266C90.0903 33.9068 90.3659 33.4602 90.4982 32.8869H92.1522C91.9427 33.8572 91.4796 34.6235 90.7629 35.1859C90.0572 35.7372 89.1861 36.0128 88.1496 36.0128ZM102.694 36.0955C101.867 36.0955 101.095 35.9412 100.378 35.6324C99.6727 35.3127 99.0498 34.8716 98.5095 34.3093C97.9802 33.7469 97.5667 33.0908 97.269 32.3411C96.9713 31.5802 96.8224 30.7643 96.8224 29.8932C96.8224 29.0221 96.9713 28.2117 97.269 27.4619C97.5667 26.7121 97.9802 26.0615 98.5095 25.5102C99.0498 24.9479 99.6727 24.5123 100.378 24.2036C101.095 23.8838 101.867 23.7239 102.694 23.7239C103.686 23.7239 104.591 23.9279 105.406 24.3359C106.233 24.7439 106.917 25.3172 107.457 26.056C108.009 26.7948 108.356 27.6548 108.499 28.6362H106.564C106.454 27.9967 106.217 27.4288 105.853 26.9326C105.489 26.4364 105.037 26.0505 104.497 25.7748C103.968 25.4992 103.372 25.3613 102.711 25.3613C102.126 25.3613 101.586 25.4716 101.09 25.6921C100.604 25.9127 100.18 26.2269 99.8161 26.6349C99.4632 27.0429 99.1876 27.5225 98.9891 28.0738C98.8017 28.6252 98.7079 29.2316 98.7079 29.8932C98.7079 30.5548 98.8017 31.1667 98.9891 31.7291C99.1876 32.2804 99.4632 32.7601 99.8161 33.168C100.18 33.576 100.604 33.8958 101.09 34.1273C101.586 34.3479 102.126 34.4581 102.711 34.4581C103.372 34.4581 103.973 34.3203 104.513 34.0446C105.054 33.7579 105.5 33.3665 105.853 32.8703C106.217 32.3741 106.454 31.8063 106.564 31.1667H108.499C108.356 32.1481 108.009 33.0081 107.457 33.7469C106.917 34.4857 106.233 35.0646 105.406 35.4836C104.591 35.8915 103.686 36.0955 102.694 36.0955ZM111.928 30.9021V35.8474H110.258V23.972H111.928V28.4873C112.215 28.0132 112.579 27.6328 113.02 27.3461C113.472 27.0594 114.001 26.9161 114.608 26.9161C115.512 26.9161 116.234 27.1972 116.774 27.7596C117.326 28.3219 117.601 29.1269 117.601 30.1744V35.8474H115.931V30.7367C115.931 29.9869 115.771 29.408 115.451 29.0001C115.132 28.5921 114.657 28.3881 114.029 28.3881C113.643 28.3881 113.29 28.4928 112.97 28.7023C112.651 28.9008 112.397 29.1875 112.21 29.5624C112.022 29.9373 111.928 30.3839 111.928 30.9021ZM125.129 35.8474V34.4912C124.853 34.9764 124.478 35.3513 124.004 35.6159C123.53 35.8805 122.968 36.0128 122.317 36.0128C121.413 36.0128 120.685 35.7758 120.134 35.3016C119.583 34.8165 119.307 34.1714 119.307 33.3665C119.307 32.5064 119.643 31.8559 120.316 31.4148C121 30.9738 121.992 30.7533 123.293 30.7533C123.547 30.7533 123.795 30.7588 124.037 30.7698C124.28 30.7808 124.578 30.8084 124.931 30.8525V30.2074C124.931 29.59 124.771 29.1103 124.451 28.7685C124.131 28.4157 123.679 28.2392 123.095 28.2392C122.488 28.2392 122.003 28.4157 121.639 28.7685C121.286 29.1103 121.099 29.5845 121.077 30.1909H119.555C119.577 29.5293 119.737 28.956 120.035 28.4708C120.344 27.9746 120.757 27.5942 121.275 27.3296C121.805 27.0539 122.411 26.9161 123.095 26.9161C124.175 26.9161 125.013 27.2083 125.609 27.7927C126.215 28.366 126.518 29.1765 126.518 30.224V35.8474H125.129ZM120.895 33.3169C120.895 33.769 121.055 34.1328 121.375 34.4085C121.694 34.6842 122.119 34.822 122.648 34.822C123.354 34.822 123.911 34.6235 124.319 34.2266C124.727 33.8186 124.931 33.2783 124.931 32.6057V31.8945C124.611 31.8614 124.33 31.8394 124.087 31.8283C123.844 31.8063 123.613 31.7952 123.392 31.7952C122.554 31.7952 121.926 31.922 121.507 32.1757C121.099 32.4182 120.895 32.7986 120.895 33.3169ZM130.422 30.9021V35.8474H128.752V27.0815H130.307V28.5369C130.604 28.0518 130.99 27.6603 131.464 27.3626C131.949 27.0649 132.495 26.9161 133.102 26.9161C134.006 26.9161 134.728 27.1972 135.268 27.7596C135.82 28.3219 136.095 29.1269 136.095 30.1744V35.8474H134.425V30.7367C134.425 29.9869 134.265 29.408 133.945 29.0001C133.625 28.5921 133.151 28.3881 132.523 28.3881C132.137 28.3881 131.784 28.4928 131.464 28.7023C131.145 28.9008 130.891 29.1875 130.703 29.5624C130.516 29.9373 130.422 30.3839 130.422 30.9021ZM141.82 39.2215C141.059 39.2215 140.392 39.0892 139.819 38.8246C139.245 38.571 138.793 38.2016 138.463 37.7164C138.143 37.2313 137.966 36.6634 137.933 36.0128H139.554C139.609 36.6193 139.824 37.0824 140.199 37.4022C140.585 37.733 141.12 37.8984 141.804 37.8984C142.564 37.8984 143.138 37.6999 143.524 37.3029C143.91 36.917 144.103 36.3436 144.103 35.5828V33.995C143.849 34.5132 143.485 34.9212 143.011 35.2189C142.548 35.5167 142.019 35.6655 141.423 35.6655C140.695 35.6655 140.05 35.4781 139.488 35.1032C138.926 34.7283 138.485 34.21 138.165 33.5484C137.845 32.8869 137.685 32.1315 137.685 31.2825C137.685 30.4114 137.84 29.6506 138.148 29.0001C138.457 28.3385 138.887 27.8257 139.438 27.4619C140.001 27.098 140.646 26.9161 141.374 26.9161C142.002 26.9161 142.559 27.0649 143.044 27.3626C143.529 27.6603 143.921 28.0849 144.218 28.6362V27.0815H145.773V35.5497C145.773 36.7075 145.426 37.6062 144.731 38.2457C144.036 38.8962 143.066 39.2215 141.82 39.2215ZM139.372 31.2825C139.372 32.1867 139.582 32.9034 140.001 33.4327C140.42 33.9509 140.993 34.21 141.721 34.21C142.195 34.21 142.609 34.0942 142.961 33.8627C143.325 33.6201 143.606 33.2838 143.805 32.8538C144.003 32.4127 144.103 31.9055 144.103 31.3321C144.103 30.428 143.888 29.7057 143.458 29.1655C143.028 28.6252 142.449 28.355 141.721 28.355C141.004 28.355 140.431 28.6196 140.001 29.1489C139.582 29.6672 139.372 30.3784 139.372 31.2825ZM151.691 36.0128C150.842 36.0128 150.098 35.8254 149.458 35.4505C148.83 35.0646 148.339 34.5243 147.986 33.8296C147.634 33.135 147.457 32.33 147.457 31.4148C147.457 30.5438 147.639 29.7719 148.003 29.0993C148.367 28.4267 148.863 27.8974 149.492 27.5115C150.12 27.1145 150.837 26.9161 151.642 26.9161C152.303 26.9161 152.893 27.0429 153.411 27.2965C153.941 27.5391 154.387 27.8864 154.751 28.3385C155.126 28.7795 155.396 29.3033 155.562 29.9097C155.727 30.5052 155.771 31.1612 155.694 31.8779H148.433V30.7698H153.924C153.891 29.9538 153.665 29.3198 153.246 28.8677C152.838 28.4046 152.292 28.1731 151.609 28.1731C151.112 28.1731 150.677 28.3054 150.302 28.57C149.938 28.8236 149.651 29.193 149.442 29.6782C149.243 30.1523 149.144 30.7312 149.144 31.4148C149.144 32.0985 149.243 32.6884 149.442 33.1846C149.64 33.6697 149.927 34.0446 150.302 34.3093C150.677 34.5739 151.129 34.7062 151.658 34.7062C152.287 34.7062 152.805 34.5463 153.213 34.2266C153.632 33.9068 153.908 33.4602 154.04 32.8869H155.694C155.484 33.8572 155.021 34.6235 154.305 35.1859C153.599 35.7372 152.728 36.0128 151.691 36.0128Z" fill="#DAE6EA"/>
<g clip-path="url(#clip2_0_1)">
<path d="M35.4588 133.942H31.6113V121.79H35.4588V133.942Z" fill="#0EA766"/>
<path d="M35.4549 117.942H31.6074V114.095H35.4549V117.942Z" fill="#0EA766"/>
<path d="M35.4549 117.942H31.6074V114.095H35.4549V117.942Z" fill="#0EA766"/>
<path d="M31.6072 121.79H27.7598V117.942H31.6072V121.79Z" fill="#0EA766"/>
<path d="M31.6072 121.79H27.7598V117.942H31.6072V121.79Z" fill="#0EA766"/>
<path d="M27.7576 125.637H23.9102V121.79H27.7576V125.637Z" fill="#0EA766"/>
<path d="M27.7576 125.637H23.9102V121.79H27.7576V125.637Z" fill="#0EA766"/>
<path d="M39.3064 121.79H35.459V117.942H39.3064V121.79Z" fill="#0EA766"/>
<path d="M39.3064 121.79H35.459V117.942H39.3064V121.79Z" fill="#0EA766"/>
<path d="M43.1541 125.637H39.3066V121.79H43.1541V125.637Z" fill="#0EA766"/>
<path d="M43.1541 125.637H39.3066V121.79H43.1541V125.637Z" fill="#0EA766"/>
</g>
<path d="M70.0891 131.399V134.68H57.5984V132.59L63.0233 127.032C63.729 126.327 64.2936 125.709 64.717 125.18C65.1404 124.651 65.4492 124.166 65.6432 123.724C65.8549 123.266 65.9608 122.772 65.9608 122.243C65.9608 121.749 65.8549 121.325 65.6432 120.972C65.4492 120.602 65.1581 120.32 64.7699 120.125C64.3994 119.914 63.9496 119.808 63.4203 119.808C62.8557 119.808 62.3618 119.923 61.9384 120.152C61.5326 120.381 61.215 120.708 60.9857 121.131C60.7563 121.537 60.6416 122.04 60.6416 122.639H57.0691C57.0691 121.44 57.3426 120.381 57.8895 119.464C58.454 118.547 59.2303 117.832 60.2182 117.32C61.2062 116.791 62.3353 116.526 63.6055 116.526C64.7876 116.526 65.8461 116.756 66.7811 117.215C67.7162 117.673 68.4483 118.3 68.9776 119.093C69.5245 119.887 69.798 120.787 69.798 121.793C69.798 122.516 69.6833 123.186 69.4539 123.804C69.2422 124.421 68.8541 125.092 68.2895 125.815C67.725 126.538 66.9223 127.429 65.8814 128.488L63.1821 131.399H70.0891ZM78.6795 134.945C77.4093 134.945 76.2625 134.698 75.2393 134.204C74.2337 133.71 73.4309 133.04 72.8311 132.193C72.2313 131.328 71.9137 130.34 71.8784 129.229H75.5568C75.6627 130.005 75.9891 130.605 76.536 131.028C77.1005 131.452 77.8062 131.663 78.653 131.663C79.3764 131.663 79.9586 131.531 80.3996 131.267C80.8407 130.984 81.1582 130.631 81.3523 130.208C81.5464 129.767 81.6434 129.308 81.6434 128.832C81.6434 128.356 81.5375 127.906 81.3258 127.482C81.1141 127.059 80.7789 126.706 80.3202 126.424C79.8615 126.141 79.2705 126 78.5472 126C77.8415 126 77.224 126.15 76.6948 126.45C76.1655 126.75 75.7685 127.2 75.5039 127.8L72.4871 126.821L74.0484 116.791H84.3956V120.073H76.7212L76.1655 123.724C76.6065 123.425 77.0829 123.213 77.5945 123.089C78.1061 122.948 78.6266 122.878 79.1558 122.878C80.5849 122.878 81.7581 123.16 82.6755 123.724C83.6105 124.289 84.3074 125.03 84.7661 125.947C85.2248 126.865 85.4541 127.826 85.4541 128.832C85.4541 129.591 85.313 130.34 85.0307 131.081C84.7484 131.805 84.3162 132.457 83.734 133.04C83.1695 133.622 82.4638 134.089 81.6169 134.442C80.7878 134.777 79.8086 134.945 78.6795 134.945ZM93.8242 134.892C92.4657 134.892 91.2661 134.627 90.2252 134.098C89.1843 133.551 88.3727 132.828 87.7905 131.928C87.2083 131.011 86.9172 130.023 86.9172 128.964C86.9172 128.206 86.9966 127.526 87.1554 126.927C87.3142 126.327 87.5612 125.736 87.8964 125.154C88.2492 124.571 88.6991 123.954 89.246 123.301L94.6445 116.791H98.7993L93.6654 123.063C93.8242 123.01 93.9741 122.975 94.1153 122.957C94.2564 122.939 94.3976 122.931 94.5387 122.931C95.756 122.931 96.8322 123.178 97.7672 123.672C98.7023 124.166 99.4344 124.854 99.9637 125.736C100.493 126.6 100.758 127.597 100.758 128.726C100.758 129.873 100.458 130.914 99.8578 131.849C99.2756 132.784 98.4641 133.525 97.4232 134.072C96.3823 134.619 95.1826 134.892 93.8242 134.892ZM93.8506 131.822C94.4152 131.822 94.9268 131.708 95.3855 131.478C95.8619 131.249 96.2412 130.914 96.5234 130.473C96.8057 130.032 96.9469 129.494 96.9469 128.858C96.9469 128.17 96.8057 127.606 96.5234 127.165C96.2412 126.706 95.8619 126.371 95.3855 126.159C94.9268 125.93 94.4152 125.815 93.8506 125.815C93.0215 125.815 92.2981 126.062 91.6806 126.556C91.0632 127.032 90.7544 127.791 90.7544 128.832C90.7544 129.485 90.8956 130.032 91.1778 130.473C91.4778 130.914 91.8571 131.249 92.3158 131.478C92.7921 131.708 93.3037 131.822 93.8506 131.822Z" fill="white"/>
<path opacity="0.6" d="M24.6601 161.366H22.2636V165.296H21.1471V154.608H24.6601C25.3945 154.608 26.0396 154.742 26.5953 155.01C27.151 155.268 27.5827 155.645 27.8903 156.141C28.2079 156.638 28.3667 157.248 28.3667 157.972C28.3667 158.697 28.2079 159.312 27.8903 159.818C27.5827 160.324 27.151 160.711 26.5953 160.979C26.0396 161.237 25.3945 161.366 24.6601 161.366ZM24.6453 155.561H22.2636V160.414H24.6453C25.4392 160.414 26.0693 160.2 26.5357 159.774C27.0121 159.347 27.2502 158.746 27.2502 157.972C27.2502 157.198 27.0121 156.603 26.5357 156.186C26.0693 155.769 25.4392 155.561 24.6453 155.561ZM31.0548 161.098V165.296H30.0128V157.451H30.9804V159.238C31.2582 158.662 31.6651 158.201 32.201 157.853C32.7369 157.506 33.3273 157.332 33.9724 157.332V158.419C33.4266 158.399 32.9304 158.493 32.4838 158.702C32.0472 158.91 31.6998 159.218 31.4418 159.625C31.1838 160.032 31.0548 160.523 31.0548 161.098ZM36.288 165.296H35.246V157.451H36.288V165.296ZM36.6006 155.635C36.6006 155.864 36.5212 156.052 36.3625 156.201C36.2136 156.35 36.0102 156.424 35.7521 156.424C35.514 156.424 35.3155 156.35 35.1567 156.201C34.9979 156.052 34.9186 155.864 34.9186 155.635C34.9186 155.407 34.9979 155.224 35.1567 155.085C35.3155 154.936 35.514 154.861 35.7521 154.861C36.0102 154.861 36.2136 154.936 36.3625 155.085C36.5212 155.224 36.6006 155.407 36.6006 155.635ZM41.4783 165.46C40.7837 165.46 40.1734 165.286 39.6474 164.939C39.1215 164.592 38.7096 164.11 38.4119 163.495C38.1142 162.88 37.9653 162.17 37.9653 161.366C37.9653 160.572 38.1142 159.873 38.4119 159.267C38.7096 158.652 39.1215 158.171 39.6474 157.824C40.1833 157.476 40.7936 157.303 41.4783 157.303C42.0837 157.303 42.6295 157.432 43.1158 157.69C43.602 157.948 43.999 158.315 44.3066 158.791C44.6242 159.267 44.8326 159.833 44.9318 160.488H43.8749C43.7558 159.774 43.4829 159.218 43.0562 158.821C42.6394 158.414 42.1135 158.211 41.4783 158.211C40.9921 158.211 40.5604 158.345 40.1833 158.612C39.8161 158.88 39.5283 159.248 39.3199 159.714C39.1215 160.18 39.0222 160.731 39.0222 161.366C39.0222 162.001 39.1215 162.562 39.3199 163.048C39.5283 163.525 39.8161 163.897 40.1833 164.165C40.5604 164.423 40.9921 164.552 41.4783 164.552C42.1234 164.552 42.6543 164.353 43.0711 163.956C43.4879 163.55 43.7558 162.984 43.8749 162.259H44.9318C44.8425 162.924 44.6391 163.495 44.3215 163.971C44.0139 164.448 43.6169 164.815 43.1306 165.073C42.6444 165.331 42.0936 165.46 41.4783 165.46ZM49.5788 165.445C48.8444 165.445 48.1994 165.276 47.6437 164.939C47.0979 164.592 46.6711 164.105 46.3635 163.48C46.0658 162.855 45.9169 162.13 45.9169 161.307C45.9169 160.543 46.0708 159.863 46.3784 159.267C46.6959 158.662 47.1227 158.186 47.6586 157.838C48.2044 157.481 48.8246 157.303 49.5193 157.303C50.075 157.303 50.5761 157.412 51.0227 157.63C51.4792 157.838 51.8613 158.136 52.1689 158.523C52.4865 158.91 52.7197 159.367 52.8685 159.893C53.0273 160.409 53.0819 160.984 53.0323 161.619H46.4826V160.905H51.9456C51.9059 160.022 51.6677 159.337 51.2311 158.851C50.8044 158.354 50.2288 158.106 49.5044 158.106C48.9983 158.106 48.5517 158.24 48.1647 158.508C47.7876 158.766 47.4898 159.133 47.2715 159.61C47.0532 160.086 46.944 160.652 46.944 161.307C46.944 161.982 47.0482 162.572 47.2566 163.078C47.465 163.574 47.7628 163.956 48.1498 164.224C48.5467 164.492 49.0181 164.626 49.5639 164.626C50.2189 164.626 50.7597 164.453 51.1864 164.105C51.6231 163.748 51.9059 163.262 52.0349 162.647H53.062C52.8834 163.51 52.4815 164.195 51.8563 164.701C51.241 165.197 50.4819 165.445 49.5788 165.445ZM62.8817 162.14V157.451H63.9088V165.296H62.9412V163.882C62.7427 164.339 62.4202 164.716 61.9736 165.013C61.5271 165.301 61.016 165.445 60.4404 165.445C59.9145 165.445 59.448 165.346 59.0412 165.147C58.6442 164.939 58.3366 164.621 58.1183 164.195C57.8999 163.758 57.7908 163.212 57.7908 162.557V157.451H58.8328V162.334C58.8328 163.128 59.0114 163.698 59.3687 164.046C59.7259 164.383 60.1774 164.552 60.7232 164.552C61.14 164.552 61.5072 164.448 61.8248 164.239C62.1523 164.031 62.4103 163.743 62.5988 163.376C62.7874 163.009 62.8817 162.597 62.8817 162.14ZM73.3554 161.366C73.3554 162.17 73.2115 162.88 72.9238 163.495C72.6459 164.11 72.2489 164.592 71.7329 164.939C71.2268 165.276 70.6214 165.445 69.9169 165.445C69.3314 165.445 68.8004 165.291 68.3241 164.984C67.8478 164.676 67.4756 164.244 67.2077 163.688V168.169H66.1657V157.451H67.1333V159.148C67.4012 158.563 67.7833 158.111 68.2794 157.794C68.7756 157.466 69.3214 157.303 69.9169 157.303C70.6115 157.303 71.2169 157.476 71.7329 157.824C72.2489 158.161 72.6459 158.637 72.9238 159.253C73.2115 159.858 73.3554 160.563 73.3554 161.366ZM72.2986 161.366C72.2986 160.374 72.0604 159.6 71.5841 159.044C71.1176 158.488 70.5024 158.211 69.7382 158.211C69.2619 158.211 68.8302 158.335 68.4432 158.583C68.0562 158.831 67.7485 159.188 67.5203 159.654C67.302 160.121 67.1928 160.692 67.1928 161.366C67.1928 162.011 67.302 162.572 67.5203 163.048C67.7386 163.525 68.0413 163.892 68.4283 164.15C68.8153 164.408 69.252 164.537 69.7382 164.537C70.5024 164.537 71.1176 164.259 71.5841 163.703C72.0604 163.148 72.2986 162.369 72.2986 161.366Z" fill="#DAE6EA"/>
<g clip-path="url(#clip3_0_1)">
<path d="M150.928 115.418H147.08V127.571H150.928V115.418Z" fill="#EC3B3B"/>
<path d="M150.926 131.418H147.078V135.266H150.926V131.418Z" fill="#EC3B3B"/>
<path d="M150.926 131.418H147.078V135.266H150.926V131.418Z" fill="#EC3B3B"/>
<path d="M147.072 127.571H143.225V131.418H147.072V127.571Z" fill="#EC3B3B"/>
<path d="M147.072 127.571H143.225V131.418H147.072V127.571Z" fill="#EC3B3B"/>
<path d="M143.226 123.723H139.379V127.571H143.226V123.723Z" fill="#EC3B3B"/>
<path d="M143.226 123.723H139.379V127.571H143.226V123.723Z" fill="#EC3B3B"/>
<path d="M154.771 127.571H150.924V131.418H154.771V127.571Z" fill="#EC3B3B"/>
<path d="M154.771 127.571H150.924V131.418H154.771V127.571Z" fill="#EC3B3B"/>
<path d="M158.623 123.723H154.775V127.571H158.623V123.723Z" fill="#EC3B3B"/>
<path d="M158.623 123.723H154.775V127.571H158.623V123.723Z" fill="#EC3B3B"/>
</g>
<path d="M179.416 134.892C178.058 134.892 176.858 134.627 175.817 134.098C174.776 133.551 173.965 132.828 173.383 131.928C172.801 131.011 172.509 130.023 172.509 128.964C172.509 128.206 172.589 127.526 172.748 126.927C172.906 126.327 173.153 125.736 173.489 125.154C173.841 124.571 174.291 123.954 174.838 123.301L180.237 116.791H184.391L179.258 123.063C179.416 123.01 179.566 122.975 179.707 122.957C179.849 122.939 179.99 122.931 180.131 122.931C181.348 122.931 182.424 123.178 183.359 123.672C184.294 124.166 185.027 124.854 185.556 125.736C186.085 126.6 186.35 127.597 186.35 128.726C186.35 129.873 186.05 130.914 185.45 131.849C184.868 132.784 184.056 133.525 183.015 134.072C181.974 134.619 180.775 134.892 179.416 134.892ZM179.443 131.822C180.007 131.822 180.519 131.708 180.978 131.478C181.454 131.249 181.833 130.914 182.116 130.473C182.398 130.032 182.539 129.494 182.539 128.858C182.539 128.17 182.398 127.606 182.116 127.165C181.833 126.706 181.454 126.371 180.978 126.159C180.519 125.93 180.007 125.815 179.443 125.815C178.614 125.815 177.89 126.062 177.273 126.556C176.655 127.032 176.347 127.791 176.347 128.832C176.347 129.485 176.488 130.032 176.77 130.473C177.07 130.914 177.449 131.249 177.908 131.478C178.384 131.708 178.896 131.822 179.443 131.822ZM188.286 125.762C188.286 122.798 188.885 120.522 190.085 118.935C191.285 117.329 192.987 116.526 195.192 116.526C197.398 116.526 199.1 117.329 200.3 118.935C201.517 120.522 202.126 122.798 202.126 125.762C202.126 128.708 201.526 130.975 200.326 132.563C199.144 134.151 197.433 134.945 195.192 134.945C192.97 134.945 191.258 134.151 190.059 132.563C188.877 130.975 188.286 128.708 188.286 125.762ZM192.07 125.762C192.07 127.685 192.334 129.149 192.864 130.155C193.393 131.161 194.169 131.663 195.192 131.663C196.216 131.663 196.992 131.161 197.521 130.155C198.068 129.149 198.342 127.685 198.342 125.762C198.342 123.822 198.068 122.348 197.521 121.343C196.992 120.32 196.216 119.808 195.192 119.808C194.187 119.808 193.411 120.32 192.864 121.343C192.334 122.366 192.07 123.839 192.07 125.762Z" fill="white"/>
<path opacity="0.6" d="M140.127 161.366H137.73V165.296H136.614V154.608H140.127C140.861 154.608 141.506 154.742 142.062 155.01C142.618 155.268 143.049 155.645 143.357 156.141C143.675 156.638 143.833 157.248 143.833 157.972C143.833 158.697 143.675 159.312 143.357 159.818C143.049 160.324 142.618 160.711 142.062 160.979C141.506 161.237 140.861 161.366 140.127 161.366ZM140.112 155.561H137.73V160.414H140.112C140.906 160.414 141.536 160.2 142.003 159.774C142.479 159.347 142.717 158.746 142.717 157.972C142.717 157.198 142.479 156.603 142.003 156.186C141.536 155.769 140.906 155.561 140.112 155.561ZM146.522 161.098V165.296H145.48V157.451H146.447V159.238C146.725 158.662 147.132 158.201 147.668 157.853C148.204 157.506 148.794 157.332 149.439 157.332V158.419C148.893 158.399 148.397 158.493 147.951 158.702C147.514 158.91 147.167 159.218 146.909 159.625C146.651 160.032 146.522 160.523 146.522 161.098ZM151.755 165.296H150.713V157.451H151.755V165.296ZM152.067 155.635C152.067 155.864 151.988 156.052 151.829 156.201C151.68 156.35 151.477 156.424 151.219 156.424C150.981 156.424 150.782 156.35 150.624 156.201C150.465 156.052 150.385 155.864 150.385 155.635C150.385 155.407 150.465 155.224 150.624 155.085C150.782 154.936 150.981 154.861 151.219 154.861C151.477 154.861 151.68 154.936 151.829 155.085C151.988 155.224 152.067 155.407 152.067 155.635ZM156.945 165.46C156.25 165.46 155.64 165.286 155.114 164.939C154.588 164.592 154.176 164.11 153.879 163.495C153.581 162.88 153.432 162.17 153.432 161.366C153.432 160.572 153.581 159.873 153.879 159.267C154.176 158.652 154.588 158.171 155.114 157.824C155.65 157.476 156.26 157.303 156.945 157.303C157.55 157.303 158.096 157.432 158.583 157.69C159.069 157.948 159.466 158.315 159.773 158.791C160.091 159.267 160.299 159.833 160.399 160.488H159.342C159.223 159.774 158.95 159.218 158.523 158.821C158.106 158.414 157.58 158.211 156.945 158.211C156.459 158.211 156.027 158.345 155.65 158.612C155.283 158.88 154.995 159.248 154.787 159.714C154.588 160.18 154.489 160.731 154.489 161.366C154.489 162.001 154.588 162.562 154.787 163.048C154.995 163.525 155.283 163.897 155.65 164.165C156.027 164.423 156.459 164.552 156.945 164.552C157.59 164.552 158.121 164.353 158.538 163.956C158.955 163.55 159.223 162.984 159.342 162.259H160.399C160.309 162.924 160.106 163.495 159.788 163.971C159.481 164.448 159.084 164.815 158.597 165.073C158.111 165.331 157.56 165.46 156.945 165.46ZM165.046 165.445C164.311 165.445 163.666 165.276 163.11 164.939C162.565 164.592 162.138 164.105 161.83 163.48C161.533 162.855 161.384 162.13 161.384 161.307C161.384 160.543 161.538 159.863 161.845 159.267C162.163 158.662 162.589 158.186 163.125 157.838C163.671 157.481 164.291 157.303 164.986 157.303C165.542 157.303 166.043 157.412 166.49 157.63C166.946 157.838 167.328 158.136 167.636 158.523C167.953 158.91 168.186 159.367 168.335 159.893C168.494 160.409 168.549 160.984 168.499 161.619H161.949V160.905H167.412C167.373 160.022 167.135 159.337 166.698 158.851C166.271 158.354 165.696 158.106 164.971 158.106C164.465 158.106 164.018 158.24 163.631 158.508C163.254 158.766 162.957 159.133 162.738 159.61C162.52 160.086 162.411 160.652 162.411 161.307C162.411 161.982 162.515 162.572 162.723 163.078C162.932 163.574 163.23 163.956 163.617 164.224C164.014 164.492 164.485 164.626 165.031 164.626C165.686 164.626 166.227 164.453 166.653 164.105C167.09 163.748 167.373 163.262 167.502 162.647H168.529C168.35 163.51 167.948 164.195 167.323 164.701C166.708 165.197 165.949 165.445 165.046 165.445ZM172.751 161.366C172.751 160.563 172.89 159.858 173.168 159.253C173.456 158.637 173.858 158.161 174.374 157.824C174.89 157.476 175.5 157.303 176.205 157.303C176.79 157.303 177.321 157.461 177.798 157.779C178.274 158.087 178.641 158.523 178.899 159.089V154.608H179.941V165.296H178.974V163.644C178.696 164.209 178.314 164.651 177.827 164.969C177.351 165.286 176.81 165.445 176.205 165.445C175.5 165.445 174.89 165.276 174.374 164.939C173.858 164.592 173.456 164.11 173.168 163.495C172.89 162.88 172.751 162.17 172.751 161.366ZM173.808 161.366C173.808 162.369 174.042 163.148 174.508 163.703C174.974 164.259 175.59 164.537 176.354 164.537C176.87 164.537 177.316 164.408 177.693 164.15C178.081 163.892 178.378 163.525 178.587 163.048C178.805 162.562 178.914 161.992 178.914 161.337C178.914 160.682 178.8 160.121 178.572 159.654C178.353 159.188 178.051 158.831 177.664 158.583C177.287 158.335 176.85 158.211 176.354 158.211C175.59 158.211 174.974 158.488 174.508 159.044C174.042 159.6 173.808 160.374 173.808 161.366ZM185.34 165.445C184.804 165.445 184.308 165.346 183.852 165.147C183.395 164.949 182.998 164.666 182.661 164.299C182.333 163.932 182.075 163.5 181.887 163.004C181.708 162.508 181.619 161.962 181.619 161.366C181.619 160.781 181.708 160.24 181.887 159.744C182.075 159.248 182.333 158.821 182.661 158.464C182.998 158.096 183.395 157.814 183.852 157.615C184.308 157.417 184.804 157.317 185.34 157.317C185.886 157.317 186.387 157.417 186.844 157.615C187.3 157.814 187.692 158.096 188.02 158.464C188.357 158.821 188.615 159.248 188.794 159.744C188.982 160.24 189.077 160.781 189.077 161.366C189.077 161.962 188.982 162.508 188.794 163.004C188.615 163.5 188.357 163.932 188.02 164.299C187.692 164.666 187.3 164.949 186.844 165.147C186.387 165.346 185.886 165.445 185.34 165.445ZM185.34 164.552C185.856 164.552 186.313 164.423 186.71 164.165C187.117 163.897 187.434 163.525 187.662 163.048C187.901 162.572 188.02 162.011 188.02 161.366C188.02 160.721 187.901 160.166 187.662 159.699C187.434 159.233 187.117 158.871 186.71 158.612C186.313 158.354 185.856 158.225 185.34 158.225C184.834 158.225 184.378 158.354 183.971 158.612C183.574 158.871 183.256 159.233 183.018 159.699C182.79 160.166 182.676 160.721 182.676 161.366C182.676 162.011 182.79 162.572 183.018 163.048C183.256 163.525 183.574 163.897 183.971 164.165C184.378 164.423 184.834 164.552 185.34 164.552ZM197.136 165.296L195.082 158.836L193.043 165.296H191.986L189.694 157.451H190.721L192.537 163.822L194.576 157.451H195.603L197.628 163.837L199.444 157.451H200.486L198.178 165.296H197.136ZM202.881 160.726V165.296H201.839V157.451H202.806V158.925C203.064 158.449 203.416 158.062 203.863 157.764C204.319 157.456 204.831 157.303 205.396 157.303C206.21 157.303 206.86 157.556 207.346 158.062C207.842 158.568 208.091 159.282 208.091 160.205V165.296H207.049V160.563C207.049 159.808 206.88 159.228 206.542 158.821C206.215 158.414 205.729 158.211 205.084 158.211C204.677 158.211 204.305 158.32 203.967 158.538C203.63 158.746 203.362 159.039 203.163 159.416C202.975 159.793 202.881 160.23 202.881 160.726Z" fill="#DAE6EA"/>
<path d="M417.766 98.2729C417.766 99.0535 417.561 99.7416 417.151 100.337C416.74 100.932 416.165 101.396 415.424 101.726C414.696 102.057 413.843 102.223 412.863 102.223C411.884 102.223 411.024 102.057 410.283 101.726C409.542 101.396 408.96 100.932 408.537 100.337C408.127 99.7416 407.921 99.0535 407.921 98.2729C407.921 97.4657 408.166 96.7909 408.656 96.2484C409.145 95.7059 409.741 95.309 410.442 95.0576C409.873 94.8062 409.397 94.4291 409.013 93.9263C408.643 93.4235 408.457 92.828 408.457 92.14C408.457 91.4123 408.643 90.7705 409.013 90.2148C409.397 89.6591 409.919 89.2224 410.581 88.9049C411.243 88.5873 412.003 88.4285 412.863 88.4285C413.71 88.4285 414.464 88.5873 415.126 88.9049C415.788 89.2224 416.304 89.6591 416.674 90.2148C417.058 90.7705 417.25 91.4123 417.25 92.14C417.25 92.828 417.058 93.4235 416.674 93.9263C416.29 94.4291 415.821 94.8062 415.265 95.0576C415.966 95.309 416.555 95.7059 417.031 96.2484C417.521 96.7909 417.766 97.4657 417.766 98.2729ZM410.521 92.1995C410.521 92.8611 410.733 93.3772 411.157 93.7476C411.593 94.1181 412.162 94.3034 412.863 94.3034C413.552 94.3034 414.107 94.1181 414.531 93.7476C414.967 93.3772 415.186 92.8611 415.186 92.1995C415.186 91.5247 414.967 90.9955 414.531 90.6117C414.107 90.228 413.552 90.0362 412.863 90.0362C412.162 90.0362 411.593 90.228 411.157 90.6117C410.733 90.9955 410.521 91.5247 410.521 92.1995ZM410.025 98.2332C410.025 98.7228 410.144 99.1462 410.383 99.5034C410.621 99.8607 410.951 100.139 411.375 100.337C411.798 100.522 412.294 100.615 412.863 100.615C413.419 100.615 413.909 100.522 414.332 100.337C414.769 100.139 415.106 99.8607 415.344 99.5034C415.583 99.1462 415.702 98.7228 415.702 98.2332C415.702 97.7436 415.583 97.3268 415.344 96.9828C415.106 96.6388 414.769 96.3741 414.332 96.1889C413.909 96.0036 413.419 95.911 412.863 95.911C412.294 95.911 411.798 96.0036 411.375 96.1889C410.951 96.3741 410.621 96.6388 410.383 96.9828C410.144 97.3268 410.025 97.7436 410.025 98.2332ZM423.464 102.044H421.439V90.3736H418.839V88.627H423.464V102.044ZM429.796 96.8439C428.989 96.8439 428.268 96.6586 427.633 96.2881C427.011 95.9176 426.522 95.4148 426.164 94.7797C425.807 94.1446 425.628 93.4433 425.628 92.6759C425.628 91.9084 425.807 91.2138 426.164 90.5919C426.522 89.9568 427.011 89.454 427.633 89.0835C428.268 88.6998 428.989 88.5079 429.796 88.5079C430.617 88.5079 431.338 88.6998 431.96 89.0835C432.595 89.454 433.091 89.9568 433.448 90.5919C433.806 91.2138 433.984 91.9084 433.984 92.6759C433.984 93.4433 433.806 94.1446 433.448 94.7797C433.091 95.4148 432.595 95.9176 431.96 96.2881C431.338 96.6586 430.617 96.8439 429.796 96.8439ZM429.796 95.395C430.26 95.395 430.676 95.2891 431.047 95.0774C431.417 94.8657 431.715 94.5614 431.94 94.1644C432.178 93.7543 432.297 93.2581 432.297 92.6759C432.297 92.0805 432.178 91.5843 431.94 91.1873C431.715 90.7771 431.417 90.4728 431.047 90.2743C430.676 90.0626 430.26 89.9568 429.796 89.9568C429.36 89.9568 428.95 90.0626 428.566 90.2743C428.182 90.4728 427.878 90.7771 427.653 91.1873C427.428 91.5843 427.316 92.0805 427.316 92.6759C427.316 93.2581 427.428 93.7543 427.653 94.1644C427.878 94.5614 428.182 94.8657 428.566 95.0774C428.95 95.2891 429.36 95.395 429.796 95.395ZM432.655 102.044H431.007L438.589 88.627H440.236L432.655 102.044ZM441.665 102.203C440.858 102.203 440.137 102.017 439.502 101.647C438.88 101.276 438.39 100.774 438.033 100.139C437.676 99.5034 437.497 98.8021 437.497 98.0347C437.497 97.2673 437.676 96.5726 438.033 95.9507C438.39 95.3156 438.88 94.8128 439.502 94.4423C440.137 94.0586 440.858 93.8667 441.665 93.8667C442.472 93.8667 443.187 94.0586 443.809 94.4423C444.444 94.8128 444.94 95.3156 445.297 95.9507C445.655 96.5726 445.833 97.2673 445.833 98.0347C445.833 98.8021 445.655 99.5034 445.297 100.139C444.94 100.774 444.444 101.276 443.809 101.647C443.187 102.017 442.472 102.203 441.665 102.203ZM441.665 100.754C442.115 100.754 442.525 100.655 442.896 100.456C443.28 100.244 443.584 99.9334 443.809 99.5233C444.034 99.1131 444.146 98.6169 444.146 98.0347C444.146 97.4393 444.034 96.9431 443.809 96.5461C443.584 96.1492 443.28 95.8515 442.896 95.653C442.525 95.4413 442.115 95.3354 441.665 95.3354C441.215 95.3354 440.799 95.4413 440.415 95.653C440.044 95.8515 439.74 96.1492 439.502 96.5461C439.277 96.9431 439.164 97.4393 439.164 98.0347C439.164 98.6169 439.277 99.1131 439.502 99.5233C439.74 99.9334 440.044 100.244 440.415 100.456C440.799 100.655 441.215 100.754 441.665 100.754Z" fill="#DAE6EA"/>
<ellipse cx="426.401" cy="94.689" rx="59.956" ry="59.129" stroke="#DAE6EA" stroke-width="12.4047"/>
<path d="M476.441 62.1181C468.8 50.7009 457.382 42.2496 444.131 38.2044C430.88 34.1592 416.617 34.7702 403.772 39.9335C390.927 45.0968 380.294 54.4927 373.686 66.5205C367.078 78.5482 364.903 92.4635 367.532 105.895C370.161 119.327 377.431 131.445 388.103 140.183C398.776 148.921 412.19 153.74 426.061 153.817C439.932 153.895 453.401 149.227 464.174 140.608C474.946 131.99 482.355 119.955 485.138 106.553" stroke="#EC3B3B" stroke-width="12.4047"/>
</g>
</g>
<defs>
<filter id="filter0_f_0_1" x="-450" y="-729" width="1768" height="1768" filterUnits="userSpaceOnUse" color-interpolation-filters="sRGB">
<feFlood flood-opacity="0" result="BackgroundImageFix"/>
<feBlend mode="normal" in="SourceGraphic" in2="BackgroundImageFix" result="shape"/>
<feGaussianBlur stdDeviation="250" result="effect1_foregroundBlur_0_1"/>
</filter>
<linearGradient id="paint0_linear_0_1" x1="0.0937495" y1="197.805" x2="238.239" y2="-219.263" gradientUnits="userSpaceOnUse">
<stop stop-color="#050E27"/>
<stop offset="1" stop-color="#050E27" stop-opacity="0"/>
</linearGradient>
<clipPath id="clip0_0_1">
<rect width="1440" height="6443" fill="white" transform="translate(-839 -129)"/>
</clipPath>
<clipPath id="clip1_0_1">
<rect width="1440" height="843" fill="white" transform="translate(-839 -129)"/>
</clipPath>
<clipPath id="clip2_0_1">
<rect width="19.2413" height="19.8475" fill="white" transform="matrix(1 0 0 -1 23.9121 133.942)"/>
</clipPath>
<clipPath id="clip3_0_1">
<rect width="19.2413" height="19.8475" fill="white" transform="translate(139.379 115.418)"/>
</clipPath>
</defs>
</svg>
