<svg width="64" height="64" viewBox="0 0 64 64" fill="none" xmlns="http://www.w3.org/2000/svg">
<path opacity="0.12" d="M30.138 57.6399C30.7284 57.9843 31.0236 58.1565 31.4402 58.2459C31.7635 58.3152 32.2352 58.3152 32.5585 58.2459C32.9751 58.1565 33.2703 57.9843 33.8607 57.6399C39.0555 54.6093 53.3327 45.0894 53.3327 32.0002V19.2472C53.3327 17.1151 53.3327 16.0491 52.984 15.1328C52.676 14.3233 52.1754 13.601 51.5256 13.0283C50.79 12.3801 49.7919 12.0058 47.7956 11.2572L33.4975 5.89536C32.9431 5.68746 32.6659 5.58351 32.3807 5.5423C32.1278 5.50576 31.8709 5.50576 31.618 5.5423C31.3328 5.58351 31.0556 5.68746 30.5012 5.89536L16.2031 11.2572C14.2068 12.0058 13.2087 12.3801 12.4731 13.0283C11.8233 13.601 11.3227 14.3233 11.0147 15.1328C10.666 16.0491 10.666 17.1151 10.666 19.2472V32.0002C10.666 45.0894 24.9432 54.6093 30.138 57.6399Z" fill="#EC3B3B"/>
<path d="M23.9993 30.7252L29.3327 36.0586L41.3327 24.0586M53.3327 32.0586C53.3327 45.1478 39.0555 54.6676 33.8607 57.6982C33.2703 58.0427 32.9751 58.2149 32.5585 58.3042C32.2352 58.3736 31.7635 58.3736 31.4402 58.3042C31.0236 58.2149 30.7284 58.0427 30.138 57.6982C24.9432 54.6676 10.666 45.1478 10.666 32.0586V19.3055C10.666 17.1735 10.666 16.1075 11.0147 15.1911C11.3227 14.3816 11.8233 13.6593 12.4731 13.0867C13.2087 12.4384 14.2068 12.0641 16.2031 11.3155L30.5012 5.95371C31.0556 5.74581 31.3328 5.64186 31.618 5.60065C31.8709 5.5641 32.1278 5.5641 32.3807 5.60065C32.6659 5.64186 32.9431 5.74581 33.4975 5.9537L47.7956 11.3155C49.7919 12.0641 50.79 12.4384 51.5256 13.0867C52.1754 13.6593 52.676 14.3816 52.984 15.1911C53.3327 16.1075 53.3327 17.1735 53.3327 19.3055V32.0586Z" stroke="#EC3B3B" stroke-width="4" stroke-linecap="round" stroke-linejoin="round"/>
</svg>
