<svg width="130" height="188" viewBox="0 0 130 188" fill="none" xmlns="http://www.w3.org/2000/svg">
<path opacity="0.5" d="M64.53 187.65C51.93 187.65 40.77 185.4 31.05 180.9C21.33 176.22 13.77 169.83 8.37 161.73C2.97 153.45 0.18 144 0 133.38H26.73C27.27 143.28 30.96 151.2 37.8 157.14C44.64 162.9 53.55 165.78 64.53 165.78C76.05 165.78 85.05 162.9 91.53 157.14C98.19 151.38 101.52 143.55 101.52 133.65C101.52 124.11 97.83 116.55 90.45 110.97C83.07 105.21 73.08 102.33 60.48 102.33H41.58V80.46H59.13C65.97 80.46 71.91 79.2 76.95 76.68C82.17 74.16 86.13 70.65 88.83 66.15C91.71 61.65 93.15 56.52 93.15 50.76C93.15 42.12 90.36 35.19 84.78 29.97C79.2 24.57 71.82 21.87 62.64 21.87C53.28 21.87 45.72 24.66 39.96 30.24C34.38 35.64 31.32 43.02 30.78 52.38H4.32C4.68 42.3 7.38 33.3 12.42 25.38C17.64 17.46 24.75 11.25 33.75 6.75002C42.75 2.25001 52.74 0 63.72 0C75.42 0 85.59 2.07001 94.23 6.21001C102.87 10.35 109.53 16.11 114.21 23.49C119.07 30.69 121.5 39.15 121.5 48.87C121.5 57.69 118.89 65.61 113.67 72.63C108.63 79.65 101.43 85.41 92.07 89.91C104.13 93.15 113.4 98.55 119.88 106.11C126.54 113.49 129.87 122.49 129.87 133.11C129.87 143.91 127.08 153.45 121.5 161.73C116.1 169.83 108.45 176.22 98.55 180.9C88.83 185.4 77.49 187.65 64.53 187.65Z" fill="url(#paint0_linear_1097_2163)"/>
<defs>
<linearGradient id="paint0_linear_1097_2163" x1="105" y1="-181" x2="-33.6305" y2="238.72" gradientUnits="userSpaceOnUse">
<stop offset="0.103217" stop-color="white"/>
<stop offset="0.74939" stop-color="#07153B"/>
</linearGradient>
</defs>
</svg>
