<svg width="253" height="189" viewBox="0 0 253 189" fill="none" xmlns="http://www.w3.org/2000/svg">
<rect width="253" height="189" fill="#1E1E1E"/>
<g clip-path="url(#clip0_0_1)">
<rect width="1440" height="6443" transform="translate(-1106 -335)" fill="#07153B"/>
<g opacity="0.2" filter="url(#filter0_f_0_1)">
<circle cx="167" cy="-51" r="384" fill="#EC3B3B"/>
</g>
<g clip-path="url(#clip1_0_1)">
<rect x="0.767578" y="0.376694" width="252.229" height="188.551" rx="13.2317" fill="url(#paint0_linear_0_1)"/>
<rect x="0.974323" y="0.583438" width="251.815" height="188.138" rx="13.0249" stroke="#DAE6EA" stroke-opacity="0.2" stroke-width="0.413489"/>
<path d="M26.6191 36.2241H24.7997V25.9861H20.9295V24.3487H30.4894V25.9861H26.6191V36.2241ZM34.4899 36.3895C33.8724 36.3895 33.299 36.2793 32.7698 36.0587C32.2515 35.8272 31.7994 35.5074 31.4135 35.0994C31.0276 34.6804 30.7244 34.1953 30.5038 33.644C30.2943 33.0926 30.1896 32.4917 30.1896 31.8411C30.1896 31.1906 30.2943 30.5897 30.5038 30.0383C30.7244 29.487 31.0276 29.0074 31.4135 28.5994C31.7994 28.1804 32.2515 27.8606 32.7698 27.6401C33.299 27.4085 33.8724 27.2928 34.4899 27.2928C35.1184 27.2928 35.6918 27.4085 36.21 27.6401C36.7393 27.8606 37.1913 28.1804 37.5662 28.5994C37.9522 29.0074 38.2499 29.487 38.4594 30.0383C38.6799 30.5897 38.7902 31.1906 38.7902 31.8411C38.7902 32.4917 38.6799 33.0926 38.4594 33.644C38.2499 34.1953 37.9522 34.6804 37.5662 35.0994C37.1913 35.5074 36.7393 35.8272 36.21 36.0587C35.6918 36.2793 35.1184 36.3895 34.4899 36.3895ZM34.4899 34.9175C34.975 34.9175 35.4106 34.7962 35.7965 34.5536C36.1935 34.3 36.5022 33.9417 36.7227 33.4786C36.9543 33.0155 37.0701 32.4697 37.0701 31.8411C37.0701 31.2016 36.9543 30.6558 36.7227 30.2037C36.5022 29.7406 36.1935 29.3878 35.7965 29.1452C35.4106 28.9026 34.975 28.7813 34.4899 28.7813C34.0157 28.7813 33.5802 28.9026 33.1832 29.1452C32.7973 29.3878 32.4886 29.7406 32.257 30.2037C32.0365 30.6558 31.9262 31.2016 31.9262 31.8411C31.9262 32.4697 32.0365 33.0155 32.257 33.4786C32.4886 33.9417 32.7973 34.3 33.1832 34.5536C33.5802 34.7962 34.0157 34.9175 34.4899 34.9175ZM45.2769 34.6033V36.0753C45.0233 36.1966 44.7752 36.2793 44.5326 36.3234C44.3011 36.3675 44.053 36.3895 43.7884 36.3895C43.2481 36.3895 42.7684 36.2903 42.3494 36.0918C41.9414 35.8933 41.6217 35.5846 41.3901 35.1656C41.1586 34.7466 41.0428 34.2173 41.0428 33.5778V28.8806H39.1077V27.4582H41.0428V24.8614H42.7133V27.4582H45.3596V28.8806H42.7133V33.1974C42.7133 33.8038 42.8456 34.2284 43.1102 34.4709C43.3859 34.7135 43.7442 34.8348 44.1853 34.8348C44.3838 34.8348 44.5712 34.8183 44.7476 34.7852C44.9351 34.7411 45.1115 34.6804 45.2769 34.6033ZM52.2631 36.2241V34.8679C51.9874 35.3531 51.6125 35.7279 51.1384 35.9926C50.6643 36.2572 50.1019 36.3895 49.4513 36.3895C48.5472 36.3895 47.8194 36.1525 47.2681 35.6783C46.7168 35.1932 46.4411 34.5481 46.4411 33.7432C46.4411 32.8831 46.7774 32.2326 47.4501 31.7915C48.1337 31.3505 49.1261 31.1299 50.4272 31.1299C50.6808 31.1299 50.9289 31.1355 51.1715 31.1465C51.414 31.1575 51.7118 31.1851 52.0646 31.2292V30.5841C52.0646 29.9667 51.9047 29.487 51.585 29.1452C51.2652 28.7924 50.8131 28.6159 50.2287 28.6159C49.6223 28.6159 49.1371 28.7924 48.7732 29.1452C48.4204 29.487 48.2329 29.9611 48.2109 30.5676H46.6892C46.7113 29.906 46.8712 29.3326 47.1689 28.8475C47.4776 28.3513 47.8911 27.9709 48.4094 27.7063C48.9386 27.4306 49.5451 27.2928 50.2287 27.2928C51.3093 27.2928 52.1473 27.585 52.7427 28.1694C53.3492 28.7427 53.6524 29.5532 53.6524 30.6007V36.2241H52.2631ZM48.0289 33.6936C48.0289 34.1457 48.1888 34.5095 48.5086 34.7852C48.8284 35.0609 49.2529 35.1987 49.7821 35.1987C50.4878 35.1987 51.0447 35.0002 51.4526 34.6033C51.8606 34.1953 52.0646 33.655 52.0646 32.9824V32.2712C51.7448 32.2381 51.4637 32.216 51.2211 32.205C50.9785 32.183 50.7469 32.1719 50.5264 32.1719C49.6884 32.1719 49.0599 32.2987 48.6409 32.5523C48.2329 32.7949 48.0289 33.1753 48.0289 33.6936ZM57.5729 36.2241H55.8859V24.3487H57.5729V36.2241ZM73.1726 24.3487L68.8061 36.2241H66.8049L62.4384 24.3487H64.3901L67.8469 34.1071L71.3532 24.3487H73.1726ZM78.8169 36.2241V34.8679C78.5412 35.3531 78.1663 35.7279 77.6922 35.9926C77.218 36.2572 76.6557 36.3895 76.0051 36.3895C75.101 36.3895 74.3732 36.1525 73.8219 35.6783C73.2706 35.1932 72.9949 34.5481 72.9949 33.7432C72.9949 32.8831 73.3312 32.2326 74.0038 31.7915C74.6875 31.3505 75.6799 31.1299 76.981 31.1299C77.2346 31.1299 77.4827 31.1355 77.7252 31.1465C77.9678 31.1575 78.2655 31.1851 78.6184 31.2292V30.5841C78.6184 29.9667 78.4585 29.487 78.1387 29.1452C77.819 28.7924 77.3669 28.6159 76.7825 28.6159C76.176 28.6159 75.6909 28.7924 75.327 29.1452C74.9742 29.487 74.7867 29.9611 74.7647 30.5676H73.243C73.2651 29.906 73.425 29.3326 73.7227 28.8475C74.0314 28.3513 74.4449 27.9709 74.9631 27.7063C75.4924 27.4306 76.0989 27.2928 76.7825 27.2928C77.8631 27.2928 78.7011 27.585 79.2965 28.1694C79.903 28.7427 80.2062 29.5532 80.2062 30.6007V36.2241H78.8169ZM74.5827 33.6936C74.5827 34.1457 74.7426 34.5095 75.0624 34.7852C75.3821 35.0609 75.8067 35.1987 76.3359 35.1987C77.0416 35.1987 77.5984 35.0002 78.0064 34.6033C78.4144 34.1953 78.6184 33.655 78.6184 32.9824V32.2712C78.2986 32.2381 78.0174 32.216 77.7749 32.205C77.5323 32.183 77.3007 32.1719 77.0802 32.1719C76.2422 32.1719 75.6137 32.2987 75.1947 32.5523C74.7867 32.7949 74.5827 33.1753 74.5827 33.6936ZM84.1267 36.2241H82.4397V24.3487H84.1267V36.2241ZM91.92 32.6185V27.4582H93.5905V36.2241H92.0357V34.8514C91.8152 35.2924 91.4624 35.6618 90.9772 35.9595C90.492 36.2462 89.9517 36.3895 89.3563 36.3895C88.7719 36.3895 88.2482 36.2738 87.7851 36.0422C87.333 35.8106 86.9801 35.4523 86.7265 34.9671C86.4839 34.4709 86.3627 33.8479 86.3627 33.0982V27.4582H88.0332V32.7674C88.0332 33.5282 88.2041 34.0795 88.5459 34.4213C88.8877 34.7521 89.3343 34.9175 89.8856 34.9175C90.2605 34.9175 90.6023 34.8238 90.911 34.6363C91.2198 34.4379 91.4624 34.1677 91.6388 33.8259C91.8262 33.4731 91.92 33.0706 91.92 32.6185ZM99.516 36.3895C98.667 36.3895 97.9227 36.2021 97.2832 35.8272C96.6547 35.4413 96.164 34.901 95.8112 34.2063C95.4583 33.5116 95.2819 32.7067 95.2819 31.7915C95.2819 30.9204 95.4638 30.1486 95.8277 29.476C96.1916 28.8034 96.6877 28.2741 97.3163 27.8882C97.9448 27.4912 98.6615 27.2928 99.4664 27.2928C100.128 27.2928 100.718 27.4196 101.236 27.6732C101.765 27.9158 102.212 28.2631 102.576 28.7152C102.951 29.1562 103.221 29.68 103.386 30.2864C103.552 30.8819 103.596 31.5379 103.519 32.2546H96.2577V31.1465H101.749C101.716 30.3305 101.49 29.6965 101.071 29.2444C100.663 28.7813 100.117 28.5498 99.4333 28.5498C98.9371 28.5498 98.5016 28.6821 98.1267 28.9467C97.7628 29.2003 97.4761 29.5697 97.2666 30.0549C97.0682 30.529 96.9689 31.1079 96.9689 31.7915C96.9689 32.4752 97.0682 33.0651 97.2666 33.5613C97.4651 34.0464 97.7518 34.4213 98.1267 34.686C98.5016 34.9506 98.9537 35.0829 99.4829 35.0829C100.111 35.0829 100.63 34.923 101.038 34.6033C101.457 34.2835 101.732 33.8369 101.865 33.2636H103.519C103.309 34.2339 102.846 35.0002 102.129 35.5626C101.424 36.1139 100.552 36.3895 99.516 36.3895Z" fill="#DAE6EA"/>
<path d="M28.1837 161.52H24.5053V146.807H21.118V143.631H28.1837V161.52ZM36.0797 160.091C36.0797 161.15 35.8151 162.076 35.2858 162.87C34.7566 163.664 34.0421 164.281 33.1423 164.722C32.2602 165.163 31.2634 165.384 30.152 165.384V163.426C31.1399 163.408 31.9426 163.188 32.5601 162.764C33.1776 162.358 33.5393 161.794 33.6451 161.07C33.5216 161.106 33.4158 161.132 33.3276 161.15C33.257 161.15 33.1776 161.15 33.0894 161.15C32.4896 161.15 31.9867 160.938 31.581 160.515C31.1928 160.091 30.9988 159.58 30.9988 158.98C30.9988 158.274 31.2281 157.718 31.6868 157.313C32.1455 156.889 32.7101 156.678 33.3805 156.678C34.2273 156.678 34.8889 156.969 35.3652 157.551C35.8416 158.115 36.0797 158.962 36.0797 160.091ZM44.4372 161.759C43.1493 161.759 42.0026 161.529 40.997 161.07C40.009 160.594 39.2327 159.941 38.6682 159.112C38.1036 158.283 37.8214 157.33 37.8214 156.254H41.3939C41.4468 157.048 41.7468 157.683 42.2937 158.16C42.8406 158.618 43.5727 158.848 44.4901 158.848C45.4428 158.848 46.1838 158.627 46.713 158.186C47.2423 157.727 47.5069 157.101 47.5069 156.307C47.5069 155.531 47.1982 154.922 46.5807 154.481C45.9632 154.04 45.1076 153.82 44.0138 153.82H42.082V150.909H43.8021C44.4195 150.909 44.94 150.812 45.3634 150.617C45.7868 150.423 46.1132 150.15 46.3426 149.797C46.5719 149.444 46.6866 149.03 46.6866 148.553C46.6866 147.848 46.466 147.292 46.025 146.886C45.5839 146.48 44.9841 146.277 44.2255 146.277C43.4845 146.277 42.8847 146.507 42.426 146.966C41.9849 147.407 41.7556 148.015 41.7379 148.791H38.1654C38.183 147.751 38.4653 146.824 39.0122 146.013C39.5591 145.184 40.3001 144.54 41.2351 144.081C42.1878 143.605 43.2463 143.367 44.4107 143.367C45.6633 143.367 46.7395 143.578 47.6393 144.002C48.5567 144.425 49.2535 145.007 49.7299 145.748C50.2238 146.472 50.4708 147.318 50.4708 148.289C50.4708 149.1 50.2415 149.832 49.7828 150.485C49.3241 151.12 48.6625 151.667 47.798 152.126C48.9271 152.479 49.7916 153.008 50.3914 153.714C50.9913 154.402 51.2912 155.231 51.2912 156.201C51.2912 157.313 51.0001 158.283 50.4179 159.112C49.8357 159.941 49.033 160.594 48.0097 161.07C47.0041 161.529 45.8133 161.759 44.4372 161.759ZM59.5812 161.759C58.2934 161.759 57.1466 161.529 56.141 161.07C55.153 160.594 54.3768 159.941 53.8122 159.112C53.2477 158.283 52.9654 157.33 52.9654 156.254H56.538C56.5909 157.048 56.8908 157.683 57.4377 158.16C57.9846 158.618 58.7168 158.848 59.6342 158.848C60.5868 158.848 61.3278 158.627 61.8571 158.186C62.3864 157.727 62.651 157.101 62.651 156.307C62.651 155.531 62.3423 154.922 61.7248 154.481C61.1073 154.04 60.2516 153.82 59.1578 153.82H57.226V150.909H58.9461C59.5636 150.909 60.084 150.812 60.5075 150.617C60.9309 150.423 61.2573 150.15 61.4866 149.797C61.716 149.444 61.8306 149.03 61.8306 148.553C61.8306 147.848 61.6101 147.292 61.169 146.886C60.728 146.48 60.1282 146.277 59.3695 146.277C58.6286 146.277 58.0287 146.507 57.57 146.966C57.129 147.407 56.8996 148.015 56.882 148.791H53.3094C53.3271 147.751 53.6094 146.824 54.1563 146.013C54.7032 145.184 55.4441 144.54 56.3792 144.081C57.3319 143.605 58.3904 143.367 59.5548 143.367C60.8074 143.367 61.8836 143.578 62.7833 144.002C63.7007 144.425 64.3976 145.007 64.8739 145.748C65.3679 146.472 65.6149 147.318 65.6149 148.289C65.6149 149.1 65.3855 149.832 64.9268 150.485C64.4681 151.12 63.8066 151.667 62.9421 152.126C64.0712 152.479 64.9357 153.008 65.5355 153.714C66.1353 154.402 66.4352 155.231 66.4352 156.201C66.4352 157.313 66.1441 158.283 65.562 159.112C64.9798 159.941 64.177 160.594 63.1538 161.07C62.1482 161.529 60.9573 161.759 59.5812 161.759ZM80.9971 158.239V161.52H68.5064V159.43L73.9314 153.872C74.6371 153.167 75.2016 152.549 75.6251 152.02C76.0485 151.491 76.3572 151.006 76.5513 150.565C76.763 150.106 76.8688 149.612 76.8688 149.083C76.8688 148.589 76.763 148.165 76.5513 147.812C76.3572 147.442 76.0661 147.16 75.678 146.966C75.3075 146.754 74.8576 146.648 74.3283 146.648C73.7638 146.648 73.2698 146.763 72.8464 146.992C72.4406 147.221 72.1231 147.548 71.8937 147.971C71.6644 148.377 71.5497 148.88 71.5497 149.48H67.9771C67.9771 148.28 68.2506 147.221 68.7975 146.304C69.3621 145.387 70.1383 144.672 71.1263 144.16C72.1142 143.631 73.2434 143.367 74.5136 143.367C75.6956 143.367 76.7542 143.596 77.6892 144.055C78.6242 144.513 79.3564 145.14 79.8856 145.933C80.4326 146.727 80.706 147.627 80.706 148.633C80.706 149.356 80.5913 150.026 80.362 150.644C80.1503 151.261 79.7622 151.932 79.1976 152.655C78.633 153.378 77.8303 154.269 76.7894 155.328L74.0902 158.239H80.9971ZM88.3345 160.091C88.3345 161.15 88.0698 162.076 87.5406 162.87C87.0113 163.664 86.2968 164.281 85.397 164.722C84.5149 165.163 83.5181 165.384 82.4067 165.384V163.426C83.3947 163.408 84.1974 163.188 84.8149 162.764C85.4323 162.358 85.794 161.794 85.8998 161.07C85.7764 161.106 85.6705 161.132 85.5823 161.15C85.5117 161.15 85.4323 161.15 85.3441 161.15C84.7443 161.15 84.2415 160.938 83.8357 160.515C83.4476 160.091 83.2535 159.58 83.2535 158.98C83.2535 158.274 83.4829 157.718 83.9416 157.313C84.4003 156.889 84.9648 156.678 85.6352 156.678C86.482 156.678 87.1436 156.969 87.62 157.551C88.0963 158.115 88.3345 158.962 88.3345 160.091ZM95.8687 143.419C97.2271 143.419 98.418 143.693 99.4412 144.24C100.482 144.769 101.294 145.484 101.876 146.383C102.476 147.283 102.776 148.271 102.776 149.347C102.776 150.071 102.696 150.732 102.537 151.332C102.379 151.932 102.132 152.532 101.796 153.131C101.461 153.714 101.003 154.34 100.42 155.01L95.0483 161.52H90.8936L96.0274 155.249C95.8687 155.301 95.7187 155.337 95.5776 155.354C95.4364 155.372 95.2865 155.381 95.1277 155.381C93.9104 155.381 92.8342 155.134 91.8992 154.64C90.9818 154.146 90.2584 153.467 89.7292 152.602C89.1999 151.72 88.9353 150.714 88.9353 149.585C88.9353 148.439 89.2264 147.398 89.8086 146.463C90.3908 145.528 91.2023 144.787 92.2432 144.24C93.3017 143.693 94.5102 143.419 95.8687 143.419ZM95.8422 146.489C95.2777 146.489 94.7572 146.604 94.2809 146.833C93.8222 147.063 93.4517 147.398 93.1694 147.839C92.8871 148.28 92.746 148.818 92.746 149.453C92.746 150.123 92.8871 150.688 93.1694 151.147C93.4517 151.605 93.8222 151.949 94.2809 152.179C94.7572 152.391 95.2777 152.496 95.8422 152.496C96.6714 152.496 97.3947 152.258 98.0122 151.782C98.6297 151.288 98.9384 150.52 98.9384 149.48C98.9384 148.827 98.7885 148.28 98.4885 147.839C98.2063 147.398 97.827 147.063 97.3506 146.833C96.8919 146.604 96.3891 146.489 95.8422 146.489ZM116.489 145.775L109.873 161.52H105.93L112.413 146.913H103.919V143.631H116.489V145.775ZM131.517 156.334C131.517 157.392 131.226 158.327 130.644 159.139C130.079 159.95 129.285 160.594 128.262 161.07C127.239 161.529 126.039 161.759 124.663 161.759C123.269 161.759 122.052 161.529 121.011 161.07C119.97 160.594 119.167 159.95 118.603 159.139C118.038 158.327 117.756 157.392 117.756 156.334C117.756 155.346 118.038 154.508 118.603 153.82C119.185 153.131 119.908 152.602 120.773 152.232C120.067 151.844 119.485 151.341 119.026 150.723C118.585 150.106 118.365 149.365 118.365 148.5C118.365 147.512 118.629 146.639 119.158 145.881C119.688 145.104 120.42 144.496 121.355 144.055C122.308 143.596 123.41 143.367 124.663 143.367C125.898 143.367 126.983 143.596 127.918 144.055C128.871 144.496 129.603 145.104 130.114 145.881C130.644 146.639 130.908 147.512 130.908 148.5C130.908 149.365 130.679 150.106 130.22 150.723C129.779 151.341 129.206 151.844 128.5 152.232C129.364 152.602 130.079 153.131 130.644 153.82C131.226 154.508 131.517 155.346 131.517 156.334ZM122.149 148.633C122.149 149.303 122.369 149.841 122.81 150.247C123.269 150.635 123.887 150.829 124.663 150.829C125.421 150.829 126.021 150.635 126.462 150.247C126.921 149.841 127.15 149.303 127.15 148.633C127.15 147.892 126.921 147.318 126.462 146.913C126.021 146.489 125.421 146.277 124.663 146.277C123.887 146.277 123.269 146.489 122.81 146.913C122.369 147.318 122.149 147.892 122.149 148.633ZM121.54 156.254C121.54 156.783 121.664 157.251 121.911 157.657C122.175 158.045 122.537 158.345 122.996 158.556C123.454 158.751 124.01 158.848 124.663 158.848C125.298 158.848 125.845 158.751 126.304 158.556C126.762 158.345 127.115 158.045 127.362 157.657C127.627 157.251 127.759 156.783 127.759 156.254C127.759 155.743 127.627 155.301 127.362 154.931C127.115 154.56 126.762 154.269 126.304 154.058C125.845 153.846 125.298 153.74 124.663 153.74C124.01 153.74 123.454 153.846 122.996 154.058C122.537 154.269 122.175 154.56 121.911 154.931C121.664 155.301 121.54 155.743 121.54 156.254ZM138.418 160.091C138.418 161.15 138.154 162.076 137.624 162.87C137.095 163.664 136.381 164.281 135.481 164.722C134.599 165.163 133.602 165.384 132.491 165.384V163.426C133.479 163.408 134.281 163.188 134.899 162.764C135.516 162.358 135.878 161.794 135.984 161.07C135.86 161.106 135.754 161.132 135.666 161.15C135.596 161.15 135.516 161.15 135.428 161.15C134.828 161.15 134.325 160.938 133.92 160.515C133.531 160.091 133.337 159.58 133.337 158.98C133.337 158.274 133.567 157.718 134.025 157.313C134.484 156.889 135.049 156.678 135.719 156.678C136.566 156.678 137.228 156.969 137.704 157.551C138.18 158.115 138.418 158.962 138.418 160.091ZM154.603 158.001H152.089V161.52H148.437V158.001H139.942V155.275L149.178 143.631H152.089V154.799H154.603V158.001ZM143.965 154.799H148.437V148.897L143.965 154.799ZM170.126 156.334C170.126 157.392 169.835 158.327 169.253 159.139C168.689 159.95 167.895 160.594 166.871 161.07C165.848 161.529 164.649 161.759 163.272 161.759C161.879 161.759 160.661 161.529 159.62 161.07C158.58 160.594 157.777 159.95 157.212 159.139C156.648 158.327 156.365 157.392 156.365 156.334C156.365 155.346 156.648 154.508 157.212 153.82C157.795 153.131 158.518 152.602 159.382 152.232C158.677 151.844 158.094 151.341 157.636 150.723C157.195 150.106 156.974 149.365 156.974 148.5C156.974 147.512 157.239 146.639 157.768 145.881C158.297 145.104 159.029 144.496 159.965 144.055C160.917 143.596 162.02 143.367 163.272 143.367C164.507 143.367 165.592 143.596 166.527 144.055C167.48 144.496 168.212 145.104 168.724 145.881C169.253 146.639 169.518 147.512 169.518 148.5C169.518 149.365 169.288 150.106 168.83 150.723C168.389 151.341 167.815 151.844 167.11 152.232C167.974 152.602 168.689 153.131 169.253 153.82C169.835 154.508 170.126 155.346 170.126 156.334ZM160.758 148.633C160.758 149.303 160.979 149.841 161.42 150.247C161.879 150.635 162.496 150.829 163.272 150.829C164.031 150.829 164.631 150.635 165.072 150.247C165.531 149.841 165.76 149.303 165.76 148.633C165.76 147.892 165.531 147.318 165.072 146.913C164.631 146.489 164.031 146.277 163.272 146.277C162.496 146.277 161.879 146.489 161.42 146.913C160.979 147.318 160.758 147.892 160.758 148.633ZM160.15 156.254C160.15 156.783 160.273 157.251 160.52 157.657C160.785 158.045 161.147 158.345 161.605 158.556C162.064 158.751 162.62 158.848 163.272 158.848C163.908 158.848 164.454 158.751 164.913 158.556C165.372 158.345 165.725 158.045 165.972 157.657C166.236 157.251 166.369 156.783 166.369 156.254C166.369 155.743 166.236 155.301 165.972 154.931C165.725 154.56 165.372 154.269 164.913 154.058C164.454 153.846 163.908 153.74 163.272 153.74C162.62 153.74 162.064 153.846 161.605 154.058C161.147 154.269 160.785 154.56 160.52 154.931C160.273 155.301 160.15 155.743 160.15 156.254ZM178.563 161.759C177.275 161.759 176.128 161.529 175.123 161.07C174.135 160.594 173.358 159.941 172.794 159.112C172.229 158.283 171.947 157.33 171.947 156.254H175.52C175.572 157.048 175.872 157.683 176.419 158.16C176.966 158.618 177.698 158.848 178.616 158.848C179.568 158.848 180.309 158.627 180.839 158.186C181.368 157.727 181.633 157.101 181.633 156.307C181.633 155.531 181.324 154.922 180.706 154.481C180.089 154.04 179.233 153.82 178.139 153.82H176.208V150.909H177.928C178.545 150.909 179.066 150.812 179.489 150.617C179.912 150.423 180.239 150.15 180.468 149.797C180.698 149.444 180.812 149.03 180.812 148.553C180.812 147.848 180.592 147.292 180.151 146.886C179.71 146.48 179.11 146.277 178.351 146.277C177.61 146.277 177.01 146.507 176.552 146.966C176.111 147.407 175.881 148.015 175.864 148.791H172.291C172.309 147.751 172.591 146.824 173.138 146.013C173.685 145.184 174.426 144.54 175.361 144.081C176.313 143.605 177.372 143.367 178.536 143.367C179.789 143.367 180.865 143.578 181.765 144.002C182.682 144.425 183.379 145.007 183.856 145.748C184.349 146.472 184.596 147.318 184.596 148.289C184.596 149.1 184.367 149.832 183.908 150.485C183.45 151.12 182.788 151.667 181.924 152.126C183.053 152.479 183.917 153.008 184.517 153.714C185.117 154.402 185.417 155.231 185.417 156.201C185.417 157.313 185.126 158.283 184.544 159.112C183.961 159.941 183.159 160.594 182.135 161.07C181.13 161.529 179.939 161.759 178.563 161.759ZM192.379 159.165C192.379 159.888 192.149 160.488 191.691 160.965C191.232 161.423 190.641 161.653 189.918 161.653C189.194 161.653 188.595 161.423 188.118 160.965C187.659 160.488 187.43 159.888 187.43 159.165C187.43 158.424 187.659 157.824 188.118 157.366C188.595 156.889 189.194 156.651 189.918 156.651C190.641 156.651 191.232 156.889 191.691 157.366C192.149 157.824 192.379 158.424 192.379 159.165ZM208.692 158.001H206.178V161.52H202.526V158.001H194.032V155.275L203.267 143.631H206.178V154.799H208.692V158.001ZM198.054 154.799H202.526V148.897L198.054 154.799ZM222.85 158.239V161.52H210.359V159.43L215.784 153.872C216.49 153.167 217.054 152.549 217.478 152.02C217.901 151.491 218.21 151.006 218.404 150.565C218.616 150.106 218.722 149.612 218.722 149.083C218.722 148.589 218.616 148.165 218.404 147.812C218.21 147.442 217.919 147.16 217.531 146.966C217.16 146.754 216.71 146.648 216.181 146.648C215.617 146.648 215.123 146.763 214.699 146.992C214.293 147.221 213.976 147.548 213.746 147.971C213.517 148.377 213.402 148.88 213.402 149.48H209.83C209.83 148.28 210.103 147.221 210.65 146.304C211.215 145.387 211.991 144.672 212.979 144.16C213.967 143.631 215.096 143.367 216.366 143.367C217.548 143.367 218.607 143.596 219.542 144.055C220.477 144.513 221.209 145.14 221.738 145.933C222.285 146.727 222.559 147.627 222.559 148.633C222.559 149.356 222.444 150.026 222.215 150.644C222.003 151.261 221.615 151.932 221.05 152.655C220.486 153.378 219.683 154.269 218.642 155.328L215.943 158.239H222.85ZM231.414 161.52H227.735V146.807H224.348V143.631H231.414V161.52Z" fill="white"/>
<rect x="-296" y="181" width="618" height="344" fill="url(#paint1_linear_0_1)"/>
</g>
</g>
<defs>
<filter id="filter0_f_0_1" x="-717" y="-935" width="1768" height="1768" filterUnits="userSpaceOnUse" color-interpolation-filters="sRGB">
<feFlood flood-opacity="0" result="BackgroundImageFix"/>
<feBlend mode="normal" in="SourceGraphic" in2="BackgroundImageFix" result="shape"/>
<feGaussianBlur stdDeviation="250" result="effect1_foregroundBlur_0_1"/>
</filter>
<linearGradient id="paint0_linear_0_1" x1="0.767578" y1="198.182" x2="273.569" y2="-33.1154" gradientUnits="userSpaceOnUse">
<stop stop-color="#050E27"/>
<stop offset="1" stop-color="#050E27" stop-opacity="0"/>
</linearGradient>
<linearGradient id="paint1_linear_0_1" x1="13" y1="186.46" x2="13" y2="423.736" gradientUnits="userSpaceOnUse">
<stop stop-color="#07153B" stop-opacity="0"/>
<stop offset="1" stop-color="#0B163B"/>
</linearGradient>
<clipPath id="clip0_0_1">
<rect width="1440" height="6443" fill="white" transform="translate(-1106 -335)"/>
</clipPath>
<clipPath id="clip1_0_1">
<rect width="1440" height="843" fill="white" transform="translate(-1106 -335)"/>
</clipPath>
</defs>
</svg>
