<svg width="253" height="189" viewBox="0 0 253 189" fill="none" xmlns="http://www.w3.org/2000/svg">
<rect width="253" height="189" fill="#1E1E1E"/>
<g clip-path="url(#clip0_0_1)">
<rect width="1440" height="6443" transform="translate(-838 -335)" fill="#07153B"/>
<g opacity="0.2" filter="url(#filter0_f_0_1)">
<circle cx="435" cy="-51" r="384" fill="#EC3B3B"/>
</g>
<g clip-path="url(#clip1_0_1)">
<rect y="0.376694" width="252.229" height="188.551" rx="13.2317" fill="url(#paint0_linear_0_1)"/>
<rect x="0.206745" y="0.583438" width="251.815" height="188.138" rx="13.0249" stroke="#DAE6EA" stroke-opacity="0.2" stroke-width="0.413489"/>
<path d="M25.8515 36.2241H24.0322V25.9861H20.1619V24.3487H29.7218V25.9861H25.8515V36.2241ZM33.7223 36.3895C33.1048 36.3895 32.5314 36.2793 32.0022 36.0587C31.4839 35.8272 31.0319 35.5074 30.6459 35.0994C30.26 34.6804 29.9568 34.1953 29.7363 33.644C29.5268 33.0926 29.422 32.4917 29.422 31.8411C29.422 31.1906 29.5268 30.5897 29.7363 30.0383C29.9568 29.487 30.26 29.0074 30.6459 28.5994C31.0319 28.1804 31.4839 27.8606 32.0022 27.6401C32.5314 27.4085 33.1048 27.2928 33.7223 27.2928C34.3508 27.2928 34.9242 27.4085 35.4424 27.6401C35.9717 27.8606 36.4238 28.1804 36.7987 28.5994C37.1846 29.0074 37.4823 29.487 37.6918 30.0383C37.9123 30.5897 38.0226 31.1906 38.0226 31.8411C38.0226 32.4917 37.9123 33.0926 37.6918 33.644C37.4823 34.1953 37.1846 34.6804 36.7987 35.0994C36.4238 35.5074 35.9717 35.8272 35.4424 36.0587C34.9242 36.2793 34.3508 36.3895 33.7223 36.3895ZM33.7223 34.9175C34.2075 34.9175 34.643 34.7962 35.0289 34.5536C35.4259 34.3 35.7346 33.9417 35.9551 33.4786C36.1867 33.0155 36.3025 32.4697 36.3025 31.8411C36.3025 31.2016 36.1867 30.6558 35.9551 30.2037C35.7346 29.7406 35.4259 29.3878 35.0289 29.1452C34.643 28.9026 34.2075 28.7813 33.7223 28.7813C33.2482 28.7813 32.8126 28.9026 32.4157 29.1452C32.0297 29.3878 31.721 29.7406 31.4895 30.2037C31.2689 30.6558 31.1587 31.2016 31.1587 31.8411C31.1587 32.4697 31.2689 33.0155 31.4895 33.4786C31.721 33.9417 32.0297 34.3 32.4157 34.5536C32.8126 34.7962 33.2482 34.9175 33.7223 34.9175ZM44.5093 34.6033V36.0753C44.2557 36.1966 44.0076 36.2793 43.7651 36.3234C43.5335 36.3675 43.2854 36.3895 43.0208 36.3895C42.4805 36.3895 42.0008 36.2903 41.5818 36.0918C41.1739 35.8933 40.8541 35.5846 40.6225 35.1656C40.391 34.7466 40.2752 34.2173 40.2752 33.5778V28.8806H38.3401V27.4582H40.2752V24.8614H41.9457V27.4582H44.592V28.8806H41.9457V33.1974C41.9457 33.8038 42.078 34.2284 42.3427 34.4709C42.6183 34.7135 42.9767 34.8348 43.4177 34.8348C43.6162 34.8348 43.8036 34.8183 43.9801 34.7852C44.1675 34.7411 44.3439 34.6804 44.5093 34.6033ZM51.4955 36.2241V34.8679C51.2198 35.3531 50.8449 35.7279 50.3708 35.9926C49.8967 36.2572 49.3343 36.3895 48.6838 36.3895C47.7796 36.3895 47.0519 36.1525 46.5005 35.6783C45.9492 35.1932 45.6736 34.5481 45.6736 33.7432C45.6736 32.8831 46.0099 32.2326 46.6825 31.7915C47.3661 31.3505 48.3585 31.1299 49.6596 31.1299C49.9132 31.1299 50.1613 31.1355 50.4039 31.1465C50.6465 31.1575 50.9442 31.1851 51.297 31.2292V30.5841C51.297 29.9667 51.1371 29.487 50.8174 29.1452C50.4976 28.7924 50.0455 28.6159 49.4611 28.6159C48.8547 28.6159 48.3695 28.7924 48.0056 29.1452C47.6528 29.487 47.4654 29.9611 47.4433 30.5676H45.9217C45.9437 29.906 46.1036 29.3326 46.4013 28.8475C46.71 28.3513 47.1235 27.9709 47.6418 27.7063C48.171 27.4306 48.7775 27.2928 49.4611 27.2928C50.5417 27.2928 51.3797 27.585 51.9751 28.1694C52.5816 28.7427 52.8848 29.5532 52.8848 30.6007V36.2241H51.4955ZM47.2614 33.6936C47.2614 34.1457 47.4212 34.5095 47.741 34.7852C48.0608 35.0609 48.4853 35.1987 49.0146 35.1987C49.7203 35.1987 50.2771 35.0002 50.6851 34.6033C51.093 34.1953 51.297 33.655 51.297 32.9824V32.2712C50.9773 32.2381 50.6961 32.216 50.4535 32.205C50.2109 32.183 49.9794 32.1719 49.7588 32.1719C48.9208 32.1719 48.2923 32.2987 47.8733 32.5523C47.4654 32.7949 47.2614 33.1753 47.2614 33.6936ZM56.8054 36.2241H55.1183V24.3487H56.8054V36.2241ZM68.1378 36.2241L64.3833 27.1439V36.2241H62.7128V24.3487H64.9457L68.9317 33.9913L72.9012 24.3487H75.1506V36.2241H73.4636V27.1274L69.6925 36.2241H68.1378ZM82.8949 36.2241V34.8679C82.6192 35.3531 82.2443 35.7279 81.7702 35.9926C81.296 36.2572 80.7337 36.3895 80.0831 36.3895C79.179 36.3895 78.4512 36.1525 77.8999 35.6783C77.3486 35.1932 77.0729 34.5481 77.0729 33.7432C77.0729 32.8831 77.4092 32.2326 78.0818 31.7915C78.7655 31.3505 79.7579 31.1299 81.059 31.1299C81.3126 31.1299 81.5607 31.1355 81.8033 31.1465C82.0458 31.1575 82.3435 31.1851 82.6964 31.2292V30.5841C82.6964 29.9667 82.5365 29.487 82.2167 29.1452C81.897 28.7924 81.4449 28.6159 80.8605 28.6159C80.254 28.6159 79.7689 28.7924 79.405 29.1452C79.0522 29.487 78.8647 29.9611 78.8427 30.5676H77.321C77.3431 29.906 77.503 29.3326 77.8007 28.8475C78.1094 28.3513 78.5229 27.9709 79.0411 27.7063C79.5704 27.4306 80.1769 27.2928 80.8605 27.2928C81.9411 27.2928 82.7791 27.585 83.3745 28.1694C83.981 28.7427 84.2842 29.5532 84.2842 30.6007V36.2241H82.8949ZM78.6607 33.6936C78.6607 34.1457 78.8206 34.5095 79.1404 34.7852C79.4601 35.0609 79.8847 35.1987 80.4139 35.1987C81.1196 35.1987 81.6764 35.0002 82.0844 34.6033C82.4924 34.1953 82.6964 33.655 82.6964 32.9824V32.2712C82.3766 32.2381 82.0955 32.216 81.8529 32.205C81.6103 32.183 81.3787 32.1719 81.1582 32.1719C80.3202 32.1719 79.6917 32.2987 79.2727 32.5523C78.8647 32.7949 78.6607 33.1753 78.6607 33.6936ZM88.1882 31.7419V36.2241H86.5177V27.4582H88.0724V29.3106C88.3811 28.7041 88.8387 28.2245 89.4452 27.8716C90.0627 27.5188 90.7298 27.3424 91.4465 27.3424V29.079C90.818 29.046 90.2556 29.1176 89.7594 29.2941C89.2743 29.4705 88.8884 29.7627 88.6017 30.1706C88.326 30.5676 88.1882 31.0914 88.1882 31.7419ZM94.439 36.2241H92.7685V24.3487H94.439V31.378L98.1935 27.4582H100.162L96.1095 31.7088L100.542 36.2241H98.3919L94.439 32.0727V36.2241ZM104.918 36.3895C104.069 36.3895 103.325 36.2021 102.686 35.8272C102.057 35.4413 101.566 34.901 101.214 34.2063C100.861 33.5116 100.684 32.7067 100.684 31.7915C100.684 30.9204 100.866 30.1486 101.23 29.476C101.594 28.8034 102.09 28.2741 102.719 27.8882C103.347 27.4912 104.064 27.2928 104.869 27.2928C105.53 27.2928 106.12 27.4196 106.639 27.6732C107.168 27.9158 107.614 28.2631 107.978 28.7152C108.353 29.1562 108.623 29.68 108.789 30.2864C108.954 30.8819 108.998 31.5379 108.921 32.2546H101.66V31.1465H107.151C107.118 30.3305 106.892 29.6965 106.473 29.2444C106.065 28.7813 105.519 28.5498 104.836 28.5498C104.34 28.5498 103.904 28.6821 103.529 28.9467C103.165 29.2003 102.879 29.5697 102.669 30.0549C102.471 30.529 102.371 31.1079 102.371 31.7915C102.371 32.4752 102.471 33.0651 102.669 33.5613C102.868 34.0464 103.154 34.4213 103.529 34.686C103.904 34.9506 104.356 35.0829 104.885 35.0829C105.514 35.0829 106.032 34.923 106.44 34.6033C106.859 34.2835 107.135 33.8369 107.267 33.2636H108.921C108.712 34.2339 108.248 35.0002 107.532 35.5626C106.826 36.1139 105.955 36.3895 104.918 36.3895ZM115.61 34.6033V36.0753C115.357 36.1966 115.108 36.2793 114.866 36.3234C114.634 36.3675 114.386 36.3895 114.122 36.3895C113.581 36.3895 113.102 36.2903 112.683 36.0918C112.275 35.8933 111.955 35.5846 111.723 35.1656C111.492 34.7466 111.376 34.2173 111.376 33.5778V28.8806H109.441V27.4582H111.376V24.8614H113.047V27.4582H115.693V28.8806H113.047V33.1974C113.047 33.8038 113.179 34.2284 113.443 34.4709C113.719 34.7135 114.077 34.8348 114.519 34.8348C114.717 34.8348 114.904 34.8183 115.081 34.7852C115.268 34.7411 115.445 34.6804 115.61 34.6033ZM126.053 36.4722C125.226 36.4722 124.454 36.3179 123.737 36.0091C123.032 35.6894 122.409 35.2483 121.868 34.686C121.339 34.1236 120.926 33.4675 120.628 32.7177C120.33 31.9569 120.181 31.141 120.181 30.2699C120.181 29.3988 120.33 28.5884 120.628 27.8386C120.926 27.0888 121.339 26.4382 121.868 25.8869C122.409 25.3246 123.032 24.889 123.737 24.5803C124.454 24.2605 125.226 24.1006 126.053 24.1006C127.045 24.1006 127.949 24.3046 128.765 24.7126C129.592 25.1206 130.276 25.6939 130.816 26.4327C131.368 27.1715 131.715 28.0315 131.858 29.0129H129.923C129.813 28.3733 129.576 27.8055 129.212 27.3093C128.848 26.8131 128.396 26.4272 127.856 26.1515C127.326 25.8759 126.731 25.738 126.069 25.738C125.485 25.738 124.945 25.8483 124.448 26.0688C123.963 26.2894 123.539 26.6036 123.175 27.0116C122.822 27.4196 122.546 27.8992 122.348 28.4505C122.161 29.0019 122.067 29.6083 122.067 30.2699C122.067 30.9315 122.161 31.5434 122.348 32.1058C122.546 32.6571 122.822 33.1367 123.175 33.5447C123.539 33.9527 123.963 34.2725 124.448 34.504C124.945 34.7245 125.485 34.8348 126.069 34.8348C126.731 34.8348 127.332 34.697 127.872 34.4213C128.412 34.1346 128.859 33.7432 129.212 33.247C129.576 32.7508 129.813 32.183 129.923 31.5434H131.858C131.715 32.5248 131.368 33.3848 130.816 34.1236C130.276 34.8624 129.592 35.4413 128.765 35.8603C127.949 36.2682 127.045 36.4722 126.053 36.4722ZM138.926 36.2241V34.8679C138.65 35.3531 138.275 35.7279 137.801 35.9926C137.327 36.2572 136.765 36.3895 136.114 36.3895C135.21 36.3895 134.482 36.1525 133.931 35.6783C133.38 35.1932 133.104 34.5481 133.104 33.7432C133.104 32.8831 133.44 32.2326 134.113 31.7915C134.797 31.3505 135.789 31.1299 137.09 31.1299C137.344 31.1299 137.592 31.1355 137.834 31.1465C138.077 31.1575 138.375 31.1851 138.727 31.2292V30.5841C138.727 29.9667 138.568 29.487 138.248 29.1452C137.928 28.7924 137.476 28.6159 136.892 28.6159C136.285 28.6159 135.8 28.7924 135.436 29.1452C135.083 29.487 134.896 29.9611 134.874 30.5676H133.352C133.374 29.906 133.534 29.3326 133.832 28.8475C134.14 28.3513 134.554 27.9709 135.072 27.7063C135.601 27.4306 136.208 27.2928 136.892 27.2928C137.972 27.2928 138.81 27.585 139.406 28.1694C140.012 28.7427 140.315 29.5532 140.315 30.6007V36.2241H138.926ZM134.692 33.6936C134.692 34.1457 134.852 34.5095 135.171 34.7852C135.491 35.0609 135.916 35.1987 136.445 35.1987C137.151 35.1987 137.708 35.0002 138.115 34.6033C138.523 34.1953 138.727 33.655 138.727 32.9824V32.2712C138.408 32.2381 138.127 32.216 137.884 32.205C137.641 32.183 137.41 32.1719 137.189 32.1719C136.351 32.1719 135.723 32.2987 135.304 32.5523C134.896 32.7949 134.692 33.1753 134.692 33.6936ZM150.918 31.8411C150.918 32.7233 150.758 33.5061 150.438 34.1898C150.118 34.8734 149.666 35.4137 149.082 35.8106C148.509 36.1966 147.83 36.3895 147.048 36.3895C146.452 36.3895 145.912 36.2462 145.427 35.9595C144.941 35.6728 144.539 35.2648 144.219 34.7356V39.4163H142.549V27.4582H144.103V29.0625C144.412 28.5002 144.826 28.0646 145.344 27.7559C145.862 27.4471 146.43 27.2928 147.048 27.2928C147.83 27.2928 148.509 27.4912 149.082 27.8882C149.666 28.2741 150.118 28.8089 150.438 29.4925C150.758 30.1762 150.918 30.959 150.918 31.8411ZM149.181 31.8411C149.181 30.8598 148.944 30.1045 148.47 29.5752C148.007 29.0349 147.417 28.7648 146.7 28.7648C146.237 28.7648 145.818 28.8861 145.443 29.1287C145.068 29.3712 144.771 29.7186 144.55 30.1706C144.33 30.6227 144.219 31.1796 144.219 31.8411C144.219 32.4807 144.33 33.032 144.55 33.4951C144.771 33.9472 145.068 34.2945 145.443 34.5371C145.818 34.7797 146.237 34.901 146.7 34.901C147.417 34.901 148.007 34.6363 148.47 34.1071C148.944 33.5778 149.181 32.8225 149.181 31.8411ZM159.806 39.4163H158.152C157.479 38.3798 156.961 37.2055 156.597 35.8933C156.233 34.5812 156.051 33.2415 156.051 31.8742C156.051 30.507 156.233 29.1728 156.597 27.8716C156.961 26.5595 157.479 25.3852 158.152 24.3487H159.806C159.122 25.3852 158.609 26.5595 158.268 27.8716C157.937 29.1728 157.771 30.507 157.771 31.8742C157.771 33.2415 157.937 34.5812 158.268 35.8933C158.609 37.2055 159.122 38.3798 159.806 39.4163ZM170.467 24.3487V31.9569C170.467 32.8611 170.279 33.655 169.904 34.3386C169.541 35.0112 169.017 35.535 168.333 35.9099C167.65 36.2848 166.828 36.4722 165.869 36.4722C164.921 36.4722 164.105 36.2848 163.421 35.9099C162.737 35.535 162.208 35.0112 161.833 34.3386C161.469 33.655 161.287 32.8611 161.287 31.9569V24.3487H163.107V32.0065C163.107 32.5799 163.217 33.0816 163.437 33.5116C163.658 33.9306 163.972 34.2559 164.38 34.4875C164.788 34.719 165.284 34.8348 165.869 34.8348C166.464 34.8348 166.966 34.719 167.374 34.4875C167.793 34.2559 168.107 33.9306 168.317 33.5116C168.537 33.0816 168.647 32.5799 168.647 32.0065V24.3487H170.467ZM181.682 32.7508C181.682 33.4345 181.5 34.0519 181.136 34.6033C180.783 35.1546 180.27 35.5901 179.598 35.9099C178.925 36.2296 178.109 36.3895 177.15 36.3895C176.19 36.3895 175.363 36.2296 174.669 35.9099C173.985 35.5791 173.45 35.116 173.064 34.5206C172.678 33.9251 172.458 33.236 172.403 32.4531H174.255C174.299 33.2029 174.558 33.8038 175.033 34.2559C175.518 34.708 176.212 34.934 177.117 34.934C177.624 34.934 178.076 34.8569 178.473 34.7025C178.87 34.5481 179.179 34.3276 179.399 34.0409C179.631 33.7542 179.746 33.4069 179.746 32.9989C179.746 32.5027 179.581 32.1168 179.25 31.8411C178.919 31.5655 178.412 31.356 177.729 31.2126L176.008 30.8819C175.589 30.7936 175.187 30.6723 174.801 30.518C174.426 30.3636 174.084 30.1651 173.776 29.9226C173.478 29.6689 173.241 29.3602 173.064 28.9963C172.899 28.6214 172.816 28.1859 172.816 27.6897C172.816 27.0171 172.993 26.4162 173.346 25.8869C173.709 25.3576 174.206 24.9441 174.834 24.6464C175.474 24.3377 176.207 24.1833 177.034 24.1833C177.861 24.1833 178.6 24.3432 179.25 24.663C179.912 24.9827 180.441 25.4293 180.838 26.0027C181.246 26.576 181.472 27.2597 181.516 28.0536H179.664C179.631 27.5794 179.498 27.1604 179.267 26.7966C179.046 26.4327 178.748 26.1515 178.374 25.9531C177.999 25.7436 177.558 25.6388 177.05 25.6388C176.543 25.6388 176.113 25.7325 175.76 25.92C175.407 26.0964 175.137 26.3335 174.95 26.6312C174.762 26.9179 174.669 27.2321 174.669 27.5739C174.669 27.9488 174.762 28.2521 174.95 28.4836C175.148 28.7041 175.407 28.8806 175.727 29.0129C176.047 29.1452 176.389 29.2499 176.753 29.3271L178.506 29.6745C179.531 29.884 180.314 30.2258 180.855 30.6999C181.406 31.1741 181.682 31.8577 181.682 32.7508ZM187.542 36.2241H183.788V24.3487H187.542C188.81 24.3487 189.891 24.6023 190.784 25.1095C191.677 25.6057 192.355 26.2949 192.818 27.177C193.281 28.0591 193.513 29.079 193.513 30.2368C193.513 31.3836 193.276 32.409 192.802 33.3132C192.328 34.2063 191.639 34.9175 190.734 35.4468C189.841 35.965 188.777 36.2241 187.542 36.2241ZM185.607 25.92V34.6529H187.46C188.375 34.6529 189.141 34.4765 189.759 34.1236C190.387 33.7597 190.861 33.247 191.181 32.5854C191.501 31.9238 191.661 31.141 191.661 30.2368C191.661 29.3437 191.501 28.5773 191.181 27.9378C190.861 27.2872 190.387 26.7911 189.759 26.4492C189.141 26.0964 188.375 25.92 187.46 25.92H185.607ZM196.013 39.4163H194.359C195.042 38.3798 195.549 37.2055 195.88 35.8933C196.222 34.5812 196.393 33.2415 196.393 31.8742C196.393 30.507 196.222 29.1728 195.88 27.8716C195.549 26.5595 195.042 25.3852 194.359 24.3487H196.013C196.696 25.3852 197.214 26.5595 197.567 27.8716C197.931 29.1728 198.113 30.507 198.113 31.8742C198.113 33.2415 197.931 34.5812 197.567 35.8933C197.214 37.2055 196.696 38.3798 196.013 39.4163Z" fill="#DAE6EA"/>
<path d="M27.4162 135.057H23.7378V120.343H20.3505V117.168H27.4162V135.057ZM30.5752 126.139C30.5752 123.175 31.1751 120.899 32.3747 119.311C33.5744 117.706 35.2769 116.903 37.4822 116.903C39.6874 116.903 41.3899 117.706 42.5896 119.311C43.8069 120.899 44.4155 123.175 44.4155 126.139C44.4155 129.085 43.8157 131.352 42.616 132.94C41.434 134.528 39.7227 135.322 37.4822 135.322C35.2592 135.322 33.5479 134.528 32.3483 132.94C31.1662 131.352 30.5752 129.085 30.5752 126.139ZM34.3595 126.139C34.3595 128.062 34.6241 129.526 35.1534 130.532C35.6827 131.537 36.4589 132.04 37.4822 132.04C38.5054 132.04 39.2817 131.537 39.8109 130.532C40.3578 129.526 40.6313 128.062 40.6313 126.139C40.6313 124.198 40.3578 122.725 39.8109 121.72C39.2817 120.696 38.5054 120.185 37.4822 120.185C36.4766 120.185 35.7003 120.696 35.1534 121.72C34.6241 122.743 34.3595 124.216 34.3595 126.139ZM60.6709 131.537H58.1568V135.057H54.5049V131.537H46.0102V128.812L55.2459 117.168H58.1568V128.335H60.6709V131.537ZM50.0326 128.335H54.5049V122.434L50.0326 128.335ZM68.5085 116.956C69.867 116.956 71.0578 117.23 72.0811 117.777C73.122 118.306 73.9335 119.02 74.5157 119.92C75.1156 120.82 75.4155 121.808 75.4155 122.884C75.4155 123.607 75.3361 124.269 75.1773 124.869C75.0185 125.469 74.7715 126.068 74.4363 126.668C74.1011 127.25 73.6424 127.877 73.0602 128.547L67.6882 135.057H63.5334L68.6673 128.785C68.5085 128.838 68.3586 128.874 68.2175 128.891C68.0763 128.909 67.9264 128.918 67.7676 128.918C66.5503 128.918 65.4741 128.671 64.539 128.177C63.6217 127.683 62.8983 127.003 62.3691 126.139C61.8398 125.257 61.5752 124.251 61.5752 123.122C61.5752 121.975 61.8663 120.935 62.4484 119.999C63.0306 119.064 63.8422 118.323 64.8831 117.777C65.9416 117.23 67.1501 116.956 68.5085 116.956ZM68.4821 120.026C67.9175 120.026 67.3971 120.141 66.9207 120.37C66.462 120.599 66.0916 120.935 65.8093 121.376C65.527 121.817 65.3859 122.355 65.3859 122.99C65.3859 123.66 65.527 124.225 65.8093 124.683C66.0916 125.142 66.462 125.486 66.9207 125.716C67.3971 125.927 67.9175 126.033 68.4821 126.033C69.3113 126.033 70.0346 125.795 70.6521 125.319C71.2696 124.825 71.5783 124.057 71.5783 123.016C71.5783 122.364 71.4283 121.817 71.1284 121.376C70.8461 120.935 70.4668 120.599 69.9905 120.37C69.5318 120.141 69.029 120.026 68.4821 120.026ZM80.5634 132.702C80.5634 133.425 80.3341 134.025 79.8754 134.501C79.4167 134.96 78.8257 135.189 78.1023 135.189C77.379 135.189 76.7792 134.96 76.3028 134.501C75.8441 134.025 75.6148 133.425 75.6148 132.702C75.6148 131.961 75.8441 131.361 76.3028 130.902C76.7792 130.426 77.379 130.188 78.1023 130.188C78.8257 130.188 79.4167 130.426 79.8754 130.902C80.3341 131.361 80.5634 131.961 80.5634 132.702ZM93.2377 119.311L86.6219 135.057H82.6788L89.1623 120.449H80.6676V117.168H93.2377V119.311ZM107.752 131.776V135.057H95.2617V132.966L100.687 127.409C101.392 126.704 101.957 126.086 102.38 125.557C102.804 125.027 103.113 124.542 103.307 124.101C103.518 123.643 103.624 123.149 103.624 122.619C103.624 122.125 103.518 121.702 103.307 121.349C103.113 120.979 102.821 120.696 102.433 120.502C102.063 120.291 101.613 120.185 101.084 120.185C100.519 120.185 100.025 120.299 99.6017 120.529C99.1959 120.758 98.8784 121.084 98.649 121.508C98.4197 121.914 98.305 122.416 98.305 123.016H94.7325C94.7325 121.817 95.0059 120.758 95.5528 119.841C96.1174 118.923 96.8936 118.209 97.8816 117.697C98.8696 117.168 99.9987 116.903 101.269 116.903C102.451 116.903 103.509 117.133 104.445 117.591C105.38 118.05 106.112 118.676 106.641 119.47C107.188 120.264 107.461 121.164 107.461 122.169C107.461 122.893 107.347 123.563 107.117 124.181C106.906 124.798 106.517 125.469 105.953 126.192C105.388 126.915 104.586 127.806 103.545 128.865L100.845 131.776H107.752ZM130.447 129.473C130.447 131.22 129.839 132.587 128.621 133.575C127.422 134.563 125.772 135.057 123.673 135.057H116.237V116.056H123.382C125.375 116.056 126.945 116.497 128.092 117.38C129.257 118.244 129.839 119.488 129.839 121.111C129.839 121.975 129.601 122.752 129.124 123.44C128.666 124.128 128.013 124.692 127.166 125.133C128.224 125.504 129.036 126.06 129.601 126.801C130.165 127.524 130.447 128.415 130.447 129.473ZM123.064 119.232H119.889V123.651H123.064C124.052 123.651 124.793 123.457 125.287 123.069C125.781 122.663 126.028 122.117 126.028 121.428C126.028 120.758 125.781 120.229 125.287 119.841C124.793 119.435 124.052 119.232 123.064 119.232ZM123.355 126.853H119.889V131.881H123.355C124.449 131.881 125.269 131.652 125.816 131.193C126.381 130.735 126.663 130.108 126.663 129.315C126.663 128.556 126.381 127.956 125.816 127.515C125.269 127.074 124.449 126.853 123.355 126.853Z" fill="white"/>
<path d="M24.8492 162.249H20.2198V160.895H24.8492V162.249ZM26.2464 160.656C26.2464 158.989 26.5639 157.709 27.1991 156.816C27.8441 155.913 28.7621 155.461 29.9529 155.461C31.1438 155.461 32.0617 155.913 32.7067 156.816C33.3518 157.709 33.6743 158.989 33.6743 160.656C33.6743 162.324 33.3518 163.604 32.7067 164.497C32.0716 165.38 31.1537 165.822 29.9529 165.822C28.7521 165.822 27.8342 165.38 27.1991 164.497C26.5639 163.604 26.2464 162.324 26.2464 160.656ZM27.7945 160.656C27.7945 161.897 27.9781 162.845 28.3453 163.5C28.7124 164.145 29.2483 164.467 29.9529 164.467C30.6575 164.467 31.1934 164.145 31.5605 163.5C31.9377 162.855 32.1262 161.907 32.1262 160.656C32.1262 159.396 31.9377 158.443 31.5605 157.798C31.1934 157.143 30.6575 156.816 29.9529 156.816C29.2582 156.816 28.7224 157.143 28.3453 157.798C27.9781 158.443 27.7945 159.396 27.7945 160.656ZM37.1895 164.601C37.1895 164.929 37.0804 165.202 36.862 165.42C36.6536 165.638 36.3807 165.747 36.0433 165.747C35.7158 165.747 35.4429 165.638 35.2246 165.42C35.0063 165.202 34.8971 164.929 34.8971 164.601C34.8971 164.254 35.0063 163.971 35.2246 163.753C35.4429 163.534 35.7158 163.425 36.0433 163.425C36.3807 163.425 36.6536 163.534 36.862 163.753C37.0804 163.971 37.1895 164.254 37.1895 164.601ZM42.0571 165.807C41.3625 165.807 40.7472 165.683 40.2113 165.435C39.6754 165.177 39.2586 164.824 38.9609 164.378C38.6632 163.921 38.5094 163.4 38.4995 162.815H39.9731C40.0029 163.361 40.2063 163.797 40.5834 164.125C40.9605 164.442 41.4518 164.601 42.0571 164.601C42.6922 164.601 43.1884 164.442 43.5457 164.125C43.9129 163.807 44.0965 163.376 44.0965 162.83C44.0965 162.304 43.893 161.887 43.4861 161.579C43.0793 161.262 42.5285 161.103 41.8338 161.103H40.7918V159.897H41.7594C42.1365 159.897 42.464 159.828 42.7419 159.689C43.0296 159.55 43.248 159.356 43.3968 159.108C43.5556 158.86 43.635 158.577 43.635 158.26C43.635 157.784 43.4812 157.401 43.1735 157.114C42.8659 156.816 42.459 156.667 41.9529 156.667C41.4369 156.667 41.0201 156.821 40.7025 157.129C40.3949 157.426 40.2262 157.833 40.1964 158.349H38.7376C38.7575 157.793 38.9063 157.297 39.1842 156.861C39.472 156.424 39.864 156.082 40.3602 155.834C40.8563 155.585 41.4071 155.461 42.0125 155.461C42.6575 155.461 43.2182 155.576 43.6945 155.804C44.1709 156.032 44.5381 156.35 44.7961 156.756C45.064 157.153 45.198 157.62 45.198 158.156C45.198 158.642 45.0541 159.079 44.7663 159.466C44.4884 159.853 44.0915 160.17 43.5755 160.418C44.2403 160.597 44.7514 160.895 45.1087 161.311C45.4759 161.718 45.6594 162.215 45.6594 162.8C45.6594 163.395 45.5056 163.921 45.198 164.378C44.9003 164.824 44.4785 165.177 43.9327 165.435C43.3968 165.683 42.7716 165.807 42.0571 165.807ZM53.5109 164.333V165.673H47.0059V164.81L50.1468 161.416C50.5437 160.979 50.8613 160.602 51.0994 160.284C51.3475 159.957 51.5262 159.654 51.6353 159.376C51.7445 159.098 51.7991 158.811 51.7991 158.513C51.7991 158.176 51.7246 157.878 51.5758 157.62C51.4368 157.362 51.2384 157.163 50.9804 157.024C50.7223 156.885 50.4197 156.816 50.0723 156.816C49.6952 156.816 49.3677 156.89 49.0899 157.039C48.8219 157.188 48.6086 157.401 48.4498 157.679C48.291 157.957 48.2116 158.285 48.2116 158.662H46.738C46.738 158.037 46.8818 157.486 47.1696 157.009C47.4673 156.523 47.8693 156.146 48.3754 155.878C48.8815 155.6 49.467 155.461 50.1319 155.461C50.7571 155.461 51.3128 155.585 51.7991 155.834C52.2953 156.082 52.6823 156.424 52.9601 156.861C53.238 157.287 53.3769 157.779 53.3769 158.334C53.3769 158.711 53.3174 159.074 53.1983 159.421C53.0792 159.758 52.8708 160.131 52.5731 160.537C52.2754 160.944 51.8487 161.445 51.293 162.041L49.2685 164.333H53.5109ZM57.7415 161.773C57.1361 161.773 56.5953 161.634 56.1189 161.356C55.6525 161.078 55.2853 160.701 55.0174 160.225C54.7494 159.748 54.6155 159.222 54.6155 158.647C54.6155 158.071 54.7494 157.55 55.0174 157.084C55.2853 156.608 55.6525 156.23 56.1189 155.953C56.5953 155.665 57.1361 155.521 57.7415 155.521C58.3567 155.521 58.8976 155.665 59.364 155.953C59.8403 156.23 60.2125 156.608 60.4804 157.084C60.7483 157.55 60.8823 158.071 60.8823 158.647C60.8823 159.222 60.7483 159.748 60.4804 160.225C60.2125 160.701 59.8403 161.078 59.364 161.356C58.8976 161.634 58.3567 161.773 57.7415 161.773ZM57.7415 160.686C58.0888 160.686 58.4014 160.607 58.6792 160.448C58.9571 160.289 59.1804 160.061 59.3491 159.763C59.5277 159.456 59.617 159.084 59.617 158.647C59.617 158.2 59.5277 157.828 59.3491 157.53C59.1804 157.223 58.9571 156.995 58.6792 156.846C58.4014 156.687 58.0888 156.608 57.7415 156.608C57.414 156.608 57.1063 156.687 56.8185 156.846C56.5308 156.995 56.3025 157.223 56.1338 157.53C55.9651 157.828 55.8808 158.2 55.8808 158.647C55.8808 159.084 55.9651 159.456 56.1338 159.763C56.3025 160.061 56.5308 160.289 56.8185 160.448C57.1063 160.607 57.414 160.686 57.7415 160.686ZM59.885 165.673H58.6495L64.3358 155.61H65.5713L59.885 165.673ZM66.6431 165.792C66.0377 165.792 65.4969 165.653 65.0205 165.375C64.5541 165.097 64.1869 164.72 63.919 164.244C63.651 163.768 63.5171 163.242 63.5171 162.666C63.5171 162.09 63.651 161.569 63.919 161.103C64.1869 160.627 64.5541 160.25 65.0205 159.972C65.4969 159.684 66.0377 159.54 66.6431 159.54C67.2484 159.54 67.7843 159.684 68.2507 159.972C68.727 160.25 69.0992 160.627 69.3671 161.103C69.6351 161.569 69.769 162.09 69.769 162.666C69.769 163.242 69.6351 163.768 69.3671 164.244C69.0992 164.72 68.727 165.097 68.2507 165.375C67.7843 165.653 67.2484 165.792 66.6431 165.792ZM66.6431 164.705C66.9805 164.705 67.2881 164.631 67.566 164.482C67.8538 164.323 68.082 164.09 68.2507 163.782C68.4194 163.475 68.5038 163.103 68.5038 162.666C68.5038 162.219 68.4194 161.847 68.2507 161.55C68.082 161.252 67.8538 161.029 67.566 160.88C67.2881 160.721 66.9805 160.642 66.6431 160.642C66.3056 160.642 65.9931 160.721 65.7053 160.88C65.4274 161.029 65.1992 161.252 65.0205 161.55C64.8518 161.847 64.7675 162.219 64.7675 162.666C64.7675 163.103 64.8518 163.475 65.0205 163.782C65.1992 164.09 65.4274 164.323 65.7053 164.482C65.9931 164.631 66.3056 164.705 66.6431 164.705Z" fill="#EC3B3B"/>
<mask id="mask0_0_1" style="mask-type:alpha" maskUnits="userSpaceOnUse" x="74" y="149" width="21" height="21">
<rect width="19.8475" height="19.8475" transform="matrix(1 0 0 -1 74.1562 169.597)" fill="#D9D9D9"/>
</mask>
<g mask="url(#mask0_0_1)">
<path d="M76.9703 154.711L75.8125 155.869L81.9321 162.03L85.2401 158.722L89.5404 162.981H87.3902V164.635H92.3521V159.673H90.6981V161.823L85.2401 156.365L81.9321 159.673L76.9703 154.711Z" fill="#EC3B3B"/>
</g>
<rect x="-28" y="181" width="618" height="344" fill="url(#paint1_linear_0_1)"/>
</g>
</g>
<defs>
<filter id="filter0_f_0_1" x="-449" y="-935" width="1768" height="1768" filterUnits="userSpaceOnUse" color-interpolation-filters="sRGB">
<feFlood flood-opacity="0" result="BackgroundImageFix"/>
<feBlend mode="normal" in="SourceGraphic" in2="BackgroundImageFix" result="shape"/>
<feGaussianBlur stdDeviation="250" result="effect1_foregroundBlur_0_1"/>
</filter>
<linearGradient id="paint0_linear_0_1" x1="-2.55166e-07" y1="198.182" x2="272.801" y2="-33.1154" gradientUnits="userSpaceOnUse">
<stop stop-color="#050E27"/>
<stop offset="1" stop-color="#050E27" stop-opacity="0"/>
</linearGradient>
<linearGradient id="paint1_linear_0_1" x1="281" y1="186.46" x2="281" y2="423.736" gradientUnits="userSpaceOnUse">
<stop stop-color="#07153B" stop-opacity="0"/>
<stop offset="1" stop-color="#0B163B"/>
</linearGradient>
<clipPath id="clip0_0_1">
<rect width="1440" height="6443" fill="white" transform="translate(-838 -335)"/>
</clipPath>
<clipPath id="clip1_0_1">
<rect width="1440" height="843" fill="white" transform="translate(-838 -335)"/>
</clipPath>
</defs>
</svg>
