<svg width="123" height="186" viewBox="0 0 123 186" fill="none" xmlns="http://www.w3.org/2000/svg">
<path opacity="0.5" d="M122.85 160.92V185.22H4.86V169.56L61.83 108C69.03 100.08 74.79 93.24 79.11 87.48C83.61 81.54 86.85 76.05 88.83 71.01C90.81 65.97 91.8 60.75 91.8 55.35C91.8 49.23 90.45 43.83 87.75 39.15C85.23 34.47 81.63 30.87 76.95 28.35C72.27 25.83 66.78 24.57 60.48 24.57C53.64 24.57 47.7 25.92 42.66 28.62C37.8 31.32 33.93 35.19 31.05 40.23C28.17 45.27 26.73 51.21 26.73 58.05H0C0 46.71 2.61 36.72 7.83 28.08C13.23 19.26 20.52 12.42 29.7 7.56001C38.88 2.52001 49.5 0 61.56 0C72.9 0 82.98 2.25001 91.8 6.75002C100.8 11.25 107.82 17.46 112.86 25.38C117.9 33.12 120.42 42.03 120.42 52.11C120.42 58.95 119.34 65.52 117.18 71.82C115.02 77.94 111.24 84.69 105.84 92.07C100.44 99.45 92.7 108.54 82.62 119.34L45.9 160.92H122.85Z" fill="url(#paint0_linear_1097_2162)"/>
<defs>
<linearGradient id="paint0_linear_1097_2162" x1="62.8024" y1="-100.78" x2="5.30242" y2="277.72" gradientUnits="userSpaceOnUse">
<stop stop-color="white"/>
<stop offset="0.640722" stop-color="#07153B"/>
</linearGradient>
</defs>
</svg>
