<svg width="434" height="207" viewBox="0 0 434 207" fill="none" xmlns="http://www.w3.org/2000/svg">
<path d="M407.264 180.188H77.3555V206.302H407.264V180.188Z" fill="#EC3B3B"/>
<path d="M433.166 25.8003H407.381V180.486H433.166V25.8003Z" fill="#EC3B3B"/>
<path d="M407.142 0H154.705V26.1141H407.142V0Z" fill="#EC3B3B"/>
<path d="M422.979 51.3578H141.816V77.4719H422.979V51.3578Z" fill="#EC3B3B"/>
<path d="M415.144 102.716H141.816V128.83H415.144V102.716Z" fill="#EC3B3B"/>
<path d="M77.3555 206.013L30.1341 167.232C10.9836 151.505 0 128.268 0 103.484V25.8003H25.7852V103.484C25.7852 120.521 33.3351 136.496 46.5033 147.308L77.3605 172.648L108.218 147.308C121.386 136.496 128.936 120.521 128.936 103.484V25.8003H154.721V103.484C154.721 128.268 143.737 151.505 124.587 167.232L77.3656 206.013H77.3555Z" fill="#DAE6EA"/>
<path d="M128.931 0H25.7852V25.7852H128.931V0Z" fill="#DAE6EA"/>
</svg>
