<svg width="58" height="58" viewBox="0 0 58 58" fill="none" xmlns="http://www.w3.org/2000/svg">
<path d="M29.0002 2.33337L34.3654 16.2829C35.1174 18.2382 35.4934 19.2159 36.0782 20.0382C36.5964 20.767 37.2332 21.4038 37.962 21.922C38.7844 22.5068 39.762 22.8828 41.7173 23.6348L55.6668 29L41.7173 34.3653C39.762 35.1173 38.7844 35.4933 37.962 36.078C37.2332 36.5963 36.5964 37.2331 36.0782 37.9619C35.4934 38.7842 35.1174 39.7619 34.3654 41.7171L29.0002 55.6667L23.6349 41.7171C22.8829 39.7619 22.5069 38.7842 21.9222 37.9619C21.4039 37.2331 20.7671 36.5963 20.0383 36.078C19.216 35.4933 18.2383 35.1173 16.2831 34.3653L2.3335 29L16.2831 23.6348C18.2383 22.8828 19.216 22.5068 20.0383 21.922C20.7671 21.4038 21.4039 20.767 21.9222 20.0382C22.5069 19.2159 22.8829 18.2382 23.6349 16.2829L29.0002 2.33337Z" stroke="#EC3B3B" stroke-width="4" stroke-linecap="round" stroke-linejoin="round"/>
</svg>
