<svg width="434" height="213" viewBox="0 0 434 213" fill="none" xmlns="http://www.w3.org/2000/svg">
<path d="M433.729 212.395H216.863V191.136H412.464V21.2644H216.863V0.00012207H433.729V212.395Z" fill="#EC3B3B"/>
<path d="M423.096 84.0761C382.6 84.0761 349.654 51.1303 349.654 10.6346H370.914C370.914 39.4084 394.322 62.8168 423.096 62.8168V84.0761Z" fill="#EC3B3B"/>
<path d="M370.914 202.175H349.654C349.654 161.679 382.6 128.734 423.096 128.734V149.993C394.322 149.993 370.914 173.401 370.914 202.175Z" fill="#EC3B3B"/>
<path d="M216.864 174.17H209.658V152.911H216.864C242.619 152.911 263.575 131.955 263.575 106.2C263.575 80.4453 242.619 59.4895 216.864 59.4895H209.658V38.2302H216.864C254.341 38.2302 284.834 68.7234 284.834 106.2C284.834 143.677 254.341 174.17 216.864 174.17Z" fill="#DAE6EA"/>
<path d="M21.2592 0H0V21.2592H21.2592V0Z" fill="#DAE6EA"/>
<path d="M60.3803 0H39.1211V21.2592H60.3803V0Z" fill="#DAE6EA"/>
<path d="M99.4995 0H78.2402V21.2592H99.4995V0Z" fill="#DAE6EA"/>
<path d="M138.621 0H117.361V21.2592H138.621V0Z" fill="#DAE6EA"/>
<path d="M177.74 0H156.48V21.2592H177.74V0Z" fill="#DAE6EA"/>
<path d="M216.861 0H195.602V21.2592H216.861V0Z" fill="#DAE6EA"/>
<path d="M21.2592 38.2302H0V59.4895H21.2592V38.2302Z" fill="#DAE6EA"/>
<path d="M60.3803 38.2302H39.1211V59.4895H60.3803V38.2302Z" fill="#DAE6EA"/>
<path d="M99.4995 38.2302H78.2402V59.4895H99.4995V38.2302Z" fill="#EC3B3B"/>
<path d="M138.621 38.2302H117.361V59.4895H138.621V38.2302Z" fill="#DAE6EA"/>
<path d="M177.74 38.2302H156.48V59.4895H177.74V38.2302Z" fill="#DAE6EA"/>
<path d="M216.861 38.2302H195.602V59.4895H216.861V38.2302Z" fill="#EC3B3B"/>
<path d="M21.2592 76.4553H0V97.7145H21.2592V76.4553Z" fill="#DAE6EA"/>
<path d="M60.3803 76.4553H39.1211V97.7145H60.3803V76.4553Z" fill="#EC3B3B"/>
<path d="M99.4995 76.4553H78.2402V97.7145H99.4995V76.4553Z" fill="#DAE6EA"/>
<path d="M138.621 76.4553H117.361V97.7145H138.621V76.4553Z" fill="#DAE6EA"/>
<path d="M177.74 76.4553H156.48V97.7145H177.74V76.4553Z" fill="#EC3B3B"/>
<path d="M216.861 76.4553H195.602V97.7145H216.861V76.4553Z" fill="#DAE6EA"/>
<path d="M21.2592 114.681H0V135.94H21.2592V114.681Z" fill="#DAE6EA"/>
<path d="M60.3803 114.681H39.1211V135.94H60.3803V114.681Z" fill="#EC3B3B"/>
<path d="M99.4995 114.681H78.2402V135.94H99.4995V114.681Z" fill="#DAE6EA"/>
<path d="M138.621 114.681H117.361V135.94H138.621V114.681Z" fill="#DAE6EA"/>
<path d="M177.74 114.681H156.48V135.94H177.74V114.681Z" fill="#EC3B3B"/>
<path d="M216.861 114.681H195.602V135.94H216.861V114.681Z" fill="#DAE6EA"/>
<path d="M21.2592 152.906H0V174.165H21.2592V152.906Z" fill="#DAE6EA"/>
<path d="M60.3803 152.906H39.1211V174.165H60.3803V152.906Z" fill="#DAE6EA"/>
<path d="M99.4995 152.906H78.2402V174.165H99.4995V152.906Z" fill="#EC3B3B"/>
<path d="M138.621 152.906H117.361V174.165H138.621V152.906Z" fill="#DAE6EA"/>
<path d="M177.74 152.906H156.48V174.165H177.74V152.906Z" fill="#DAE6EA"/>
<path d="M216.861 152.906H195.602V174.165H216.861V152.906Z" fill="#EC3B3B"/>
<path d="M21.2592 191.136H0V212.395H21.2592V191.136Z" fill="#DAE6EA"/>
<path d="M60.3803 191.136H39.1211V212.395H60.3803V191.136Z" fill="#DAE6EA"/>
<path d="M99.4995 191.136H78.2402V212.395H99.4995V191.136Z" fill="#DAE6EA"/>
<path d="M138.621 191.136H117.361V212.395H138.621V191.136Z" fill="#DAE6EA"/>
<path d="M177.74 191.136H156.48V212.395H177.74V191.136Z" fill="#DAE6EA"/>
<path d="M216.861 191.136H195.602V212.395H216.861V191.136Z" fill="#DAE6EA"/>
</svg>
