<svg width="146" height="32" viewBox="0 0 146 32" fill="none" xmlns="http://www.w3.org/2000/svg">
<path d="M0.0625 0.794922V31.4525H5.56334V14.0507L15.1127 23.5852L24.664 14.0507V31.4525H30.1649V0.794922L15.1127 15.8216L0.0625 0.794922Z" fill="#DAE6EA"/>
<path d="M44.164 15.3023C46.0285 15.3023 47.77 16.2255 48.8195 17.7737L49.0616 18.1305L54.2996 16.3162L53.9932 15.7365C52.0852 12.1361 48.2277 9.81006 44.164 9.81006C38.0353 9.81006 33.0488 14.7869 33.0488 20.9022C33.0488 27.0174 38.0353 31.9999 44.164 31.9999C48.2277 31.9999 52.0871 29.6739 53.9932 26.0734L54.2996 25.4938L49.0616 23.6794L48.8195 24.0363C47.77 25.5844 46.0285 26.5077 44.164 26.5077C41.0684 26.5077 38.5497 23.9928 38.5497 20.9022C38.5497 17.8115 41.0684 15.3023 44.164 15.3023Z" fill="#DAE6EA"/>
<path d="M120.027 10.2769H114.526V31.4529H120.027V10.2769Z" fill="#DAE6EA"/>
<path d="M117.277 6.98006C118.987 6.98006 120.374 5.59547 120.374 3.88749C120.374 2.17951 118.987 0.794922 117.277 0.794922C115.566 0.794922 114.179 2.17951 114.179 3.88749C114.179 5.59547 115.566 6.98006 117.277 6.98006Z" fill="#DAE6EA"/>
<path d="M145.893 20.8304C145.853 14.7378 140.895 9.81006 134.783 9.81006C132.253 9.81006 129.921 10.6559 128.053 12.0776L123.67 10.2084V20.904V31.4524H129.171V20.7568C129.248 17.7284 131.731 15.2966 134.781 15.2966C137.831 15.2966 140.354 17.768 140.394 20.8285V31.4505H145.895V20.8285L145.893 20.8304Z" fill="#DAE6EA"/>
<path d="M108.026 11.1527C106.642 9.77066 104.429 9.44215 101.797 10.2313C99.3729 10.9658 96.8314 12.5763 94.6397 14.7664C92.4462 16.9565 90.8332 19.4958 90.0976 21.9125C89.3015 24.535 89.6306 26.7439 91.0223 28.1316L93.5411 30.6465C94.428 31.5319 95.676 32.0002 97.1528 32.0002H97.1585C100.161 32.0002 103.813 30.1443 106.927 27.0328C109.193 24.771 110.826 22.1825 111.528 19.7432C112.262 17.1906 111.914 15.0326 110.547 13.6675L108.026 11.1527ZM106.625 12.5555C107.141 13.069 107.404 13.811 107.406 14.7588C107.408 17.1679 105.681 20.4493 103.007 23.1189C100.335 25.7867 97.0526 27.5086 94.6397 27.5086H94.6341C93.7661 27.5086 93.0702 27.2877 92.5635 26.8553L92.4235 26.7175C91.5707 25.8736 91.4175 24.3688 91.9943 22.4827C92.6296 20.3775 94.0668 18.1327 96.0391 16.1635C98.0113 14.1943 100.258 12.7594 102.368 12.1231C104.252 11.5511 105.793 11.7134 106.621 12.5536L106.625 12.5555Z" fill="#EC3B3B"/>
<path d="M82.0849 21.2459C80.209 24.4914 76.7164 26.5078 72.9704 26.5078C67.167 26.5078 62.4452 21.7934 62.4452 15.9991C62.4452 10.2047 67.167 5.49035 72.9704 5.49035C76.7145 5.49035 80.209 7.50864 82.0905 10.7579L82.3193 11.1525L87.5933 9.42687L87.3021 8.84347C84.5715 3.38899 79.0801 0 72.9704 0C64.1339 0 56.9463 7.17824 56.9463 15.9991C56.9463 24.8199 64.1358 31.9981 72.9704 31.9981C79.0801 31.9981 84.5715 28.611 87.3021 23.1584L87.5951 22.575L82.3156 20.8494L82.0868 21.244L82.0849 21.2459Z" fill="#DAE6EA"/>
</svg>
